%TF.GenerationSoftware,KiCad,Pcbnew,9.0.1*%
%TF.CreationDate,2025-06-13T20:33:13-06:00*%
%TF.ProjectId,AuraCTRL PCB,41757261-4354-4524-9c20-5043422e6b69,rev?*%
%TF.SameCoordinates,Original*%
%TF.FileFunction,Profile,NP*%
%FSLAX46Y46*%
G04 Gerber Fmt 4.6, Leading zero omitted, Abs format (unit mm)*
G04 Created by KiCad (PCBNEW 9.0.1) date 2025-06-13 20:33:13*
%MOMM*%
%LPD*%
G01*
G04 APERTURE LIST*
%TA.AperFunction,Profile*%
%ADD10C,0.050000*%
%TD*%
%TA.AperFunction,Profile*%
%ADD11C,0.120000*%
%TD*%
G04 APERTURE END LIST*
D10*
X197400000Y-80000000D02*
G75*
G02*
X107400000Y-80000000I-45000000J0D01*
G01*
X107400000Y-80000000D02*
G75*
G02*
X197400000Y-80000000I45000000J0D01*
G01*
X182400000Y-80000000D02*
G75*
G02*
X122400000Y-80000000I-30000000J0D01*
G01*
X122400000Y-80000000D02*
G75*
G02*
X182400000Y-80000000I30000000J0D01*
G01*
D11*
%TO.C,D6*%
X170666227Y-45065848D02*
G75*
G02*
X170759644Y-45332818I-86778J-180194D01*
G01*
X169284444Y-48396115D02*
G75*
G02*
X169017474Y-48489532I-180194J86777D01*
G01*
X168056736Y-44031171D02*
G75*
G02*
X168323706Y-43937754I180194J-86778D01*
G01*
X166674953Y-47361438D02*
G75*
G02*
X166581536Y-47094468I86777J180194D01*
G01*
X170759644Y-45332818D02*
X169284444Y-48396115D01*
X169017474Y-48489532D02*
X166674953Y-47361438D01*
X168323706Y-43937754D02*
X170666227Y-45065848D01*
X166581536Y-47094468D02*
X168056736Y-44031171D01*
%TO.C,D5*%
X186968628Y-70571325D02*
X190283382Y-69814750D01*
X187396704Y-73345627D02*
X186818147Y-70810815D01*
X190522872Y-69965231D02*
X191101429Y-72500043D01*
X190950948Y-72739533D02*
X187636194Y-73496108D01*
X186818147Y-70810815D02*
G75*
G02*
X186968628Y-70571325I194985J44505D01*
G01*
X187636194Y-73496108D02*
G75*
G02*
X187396703Y-73345627I-44505J194986D01*
G01*
X190283382Y-69814750D02*
G75*
G02*
X190522873Y-69965231I44504J-194987D01*
G01*
X191101429Y-72500043D02*
G75*
G02*
X190950948Y-72739534I-194987J-44504D01*
G01*
%TO.C,D3*%
X150900000Y-119200000D02*
X150900000Y-115800000D01*
X151100000Y-115600000D02*
X153700000Y-115600000D01*
X153700000Y-119400000D02*
X151100000Y-119400000D01*
X153900000Y-115800000D02*
X153900000Y-119200000D01*
X150900000Y-115800000D02*
G75*
G02*
X151100000Y-115600000I200000J0D01*
G01*
X151100000Y-119400000D02*
G75*
G02*
X150900000Y-119200000I1J200001D01*
G01*
X153700000Y-115600000D02*
G75*
G02*
X153900000Y-115800000I0J-200000D01*
G01*
X153900000Y-119200000D02*
G75*
G02*
X153700000Y-119400000I-200001J1D01*
G01*
%TO.C,D7*%
X134133651Y-45065912D02*
X136476168Y-43937810D01*
X135515445Y-48396174D02*
X134040235Y-45332883D01*
X136743139Y-44031226D02*
X138218349Y-47094517D01*
X138124933Y-47361488D02*
X135782416Y-48489590D01*
X134040235Y-45332883D02*
G75*
G02*
X134133651Y-45065912I180195J86777D01*
G01*
X135782416Y-48489590D02*
G75*
G02*
X135515446Y-48396174I-86777J180193D01*
G01*
X136476168Y-43937810D02*
G75*
G02*
X136743139Y-44031226I86777J-180195D01*
G01*
X138218349Y-47094517D02*
G75*
G02*
X138124933Y-47361487I-180193J-86777D01*
G01*
%TO.C,D4*%
X179422675Y-103212604D02*
X181043748Y-101179842D01*
X181324812Y-101148173D02*
X183983040Y-103268037D01*
X182112572Y-105613533D02*
X179454344Y-103493669D01*
X184014709Y-103549102D02*
X182393636Y-105581864D01*
X179454344Y-103493669D02*
G75*
G02*
X179422675Y-103212604I124698J156367D01*
G01*
X181043748Y-101179842D02*
G75*
G02*
X181324812Y-101148174I156366J-124698D01*
G01*
X182393636Y-105581864D02*
G75*
G02*
X182112573Y-105613532I-156366J124699D01*
G01*
X183983040Y-103268037D02*
G75*
G02*
X184014710Y-103549103I-124701J-156368D01*
G01*
%TO.C,D8*%
X113698544Y-72500178D02*
X114277092Y-69965364D01*
X114516581Y-69814882D02*
X117831338Y-70571445D01*
X117163783Y-73496230D02*
X113849026Y-72739667D01*
X117981820Y-70810934D02*
X117403272Y-73345748D01*
X113849026Y-72739667D02*
G75*
G02*
X113698545Y-72500178I44505J194986D01*
G01*
X114277092Y-69965364D02*
G75*
G02*
X114516581Y-69814883I194986J-44505D01*
G01*
X117403272Y-73345748D02*
G75*
G02*
X117163783Y-73496230I-194986J44504D01*
G01*
X117831338Y-70571445D02*
G75*
G02*
X117981819Y-70810934I-44504J-194985D01*
G01*
%TO.C,D2*%
X120817040Y-103268147D02*
X123475261Y-101148274D01*
X122406453Y-105581969D02*
X120785373Y-103549212D01*
X123756325Y-101179941D02*
X125377405Y-103212698D01*
X125345738Y-103493763D02*
X122687517Y-105613636D01*
X120785373Y-103549212D02*
G75*
G02*
X120817040Y-103268147I156367J124699D01*
G01*
X122687517Y-105613636D02*
G75*
G02*
X122406453Y-105581969I-124698J156367D01*
G01*
X123475261Y-101148274D02*
G75*
G02*
X123756326Y-101179941I124699J-156366D01*
G01*
X125377405Y-103212698D02*
G75*
G02*
X125345738Y-103493763I-156366J-124699D01*
G01*
%TD*%
M02*
