%TF.GenerationSoftware,KiCad,Pcbnew,9.0.1*%
%TF.CreationDate,2025-06-15T22:50:49-06:00*%
%TF.ProjectId,AuraCTRL PCB,41757261-4354-4524-9c20-5043422e6b69,rev?*%
%TF.SameCoordinates,Original*%
%TF.FileFunction,Copper,L2,Bot*%
%TF.FilePolarity,Positive*%
%FSLAX46Y46*%
G04 Gerber Fmt 4.6, Leading zero omitted, Abs format (unit mm)*
G04 Created by KiCad (PCBNEW 9.0.1) date 2025-06-15 22:50:49*
%MOMM*%
%LPD*%
G01*
G04 APERTURE LIST*
G04 Aperture macros list*
%AMRoundRect*
0 Rectangle with rounded corners*
0 $1 Rounding radius*
0 $2 $3 $4 $5 $6 $7 $8 $9 X,Y pos of 4 corners*
0 Add a 4 corners polygon primitive as box body*
4,1,4,$2,$3,$4,$5,$6,$7,$8,$9,$2,$3,0*
0 Add four circle primitives for the rounded corners*
1,1,$1+$1,$2,$3*
1,1,$1+$1,$4,$5*
1,1,$1+$1,$6,$7*
1,1,$1+$1,$8,$9*
0 Add four rect primitives between the rounded corners*
20,1,$1+$1,$2,$3,$4,$5,0*
20,1,$1+$1,$4,$5,$6,$7,0*
20,1,$1+$1,$6,$7,$8,$9,0*
20,1,$1+$1,$8,$9,$2,$3,0*%
%AMRotRect*
0 Rectangle, with rotation*
0 The origin of the aperture is its center*
0 $1 length*
0 $2 width*
0 $3 Rotation angle, in degrees counterclockwise*
0 Add horizontal line*
21,1,$1,$2,0,0,$3*%
G04 Aperture macros list end*
%ADD10C,0.300000*%
%TA.AperFunction,SMDPad,CuDef*%
%ADD11RotRect,1.450000X0.820000X102.857000*%
%TD*%
%TA.AperFunction,SMDPad,CuDef*%
%ADD12RoundRect,0.205000X0.315570X-0.461347X0.084151X0.552579X-0.315570X0.461347X-0.084151X-0.552579X0*%
%TD*%
%TA.AperFunction,SMDPad,CuDef*%
%ADD13RotRect,1.450000X0.820000X154.285000*%
%TD*%
%TA.AperFunction,SMDPad,CuDef*%
%ADD14RoundRect,0.205000X0.557449X-0.040928X-0.379553X0.410323X-0.557449X0.040928X0.379553X-0.410323X0*%
%TD*%
%TA.AperFunction,SMDPad,CuDef*%
%ADD15RotRect,1.450000X0.820000X51.429000*%
%TD*%
%TA.AperFunction,SMDPad,CuDef*%
%ADD16RoundRect,0.205000X-0.163935X-0.534369X0.484488X0.278741X0.163935X0.534369X-0.484488X-0.278741X0*%
%TD*%
%TA.AperFunction,SMDPad,CuDef*%
%ADD17RotRect,1.450000X0.820000X308.572000*%
%TD*%
%TA.AperFunction,SMDPad,CuDef*%
%ADD18RoundRect,0.205000X-0.484493X0.278732X0.163945X-0.534366X0.484493X-0.278732X-0.163945X0.534366X0*%
%TD*%
%TA.AperFunction,SMDPad,CuDef*%
%ADD19RotRect,1.450000X0.820000X205.714000*%
%TD*%
%TA.AperFunction,SMDPad,CuDef*%
%ADD20RoundRect,0.205000X0.379560X0.410316X-0.557450X-0.040918X-0.379560X-0.410316X0.557450X0.040918X0*%
%TD*%
%TA.AperFunction,SMDPad,CuDef*%
%ADD21R,1.450000X0.820000*%
%TD*%
%TA.AperFunction,SMDPad,CuDef*%
%ADD22RoundRect,0.205000X-0.520000X-0.205000X0.520000X-0.205000X0.520000X0.205000X-0.520000X0.205000X0*%
%TD*%
%TA.AperFunction,SMDPad,CuDef*%
%ADD23RotRect,1.450000X0.820000X257.143000*%
%TD*%
%TA.AperFunction,SMDPad,CuDef*%
%ADD24RoundRect,0.205000X-0.084151X0.552579X-0.315570X-0.461347X0.084151X-0.552579X0.315570X0.461347X0*%
%TD*%
%TA.AperFunction,ComponentPad*%
%ADD25C,2.000000*%
%TD*%
%TA.AperFunction,ComponentPad*%
%ADD26O,1.600000X2.000000*%
%TD*%
%TA.AperFunction,ComponentPad*%
%ADD27R,2.000000X2.000000*%
%TD*%
%TA.AperFunction,ComponentPad*%
%ADD28R,2.000000X3.200000*%
%TD*%
%TA.AperFunction,ComponentPad*%
%ADD29C,1.524000*%
%TD*%
%TA.AperFunction,ViaPad*%
%ADD30C,0.600000*%
%TD*%
%TA.AperFunction,Conductor*%
%ADD31C,0.200000*%
%TD*%
G04 APERTURE END LIST*
D10*
G36*
X81253559Y-87998613D02*
G01*
X76768847Y-87998613D01*
X76768847Y-86155564D01*
X76935514Y-86155564D01*
X76935514Y-86214092D01*
X76957912Y-86268164D01*
X76999296Y-86309548D01*
X77053368Y-86331946D01*
X77082632Y-86334828D01*
X77361203Y-86334828D01*
X77361203Y-87684828D01*
X77364085Y-87714092D01*
X77386483Y-87768164D01*
X77427867Y-87809548D01*
X77481939Y-87831946D01*
X77540467Y-87831946D01*
X77594539Y-87809548D01*
X77635923Y-87768164D01*
X77658321Y-87714092D01*
X77661203Y-87684828D01*
X77661203Y-87084136D01*
X78292657Y-87084136D01*
X78292657Y-87142664D01*
X78315055Y-87196736D01*
X78356439Y-87238120D01*
X78410511Y-87260518D01*
X78439775Y-87263400D01*
X79582632Y-87263400D01*
X79611896Y-87260518D01*
X79665968Y-87238120D01*
X79707352Y-87196736D01*
X79729750Y-87142664D01*
X79729750Y-87084136D01*
X79707352Y-87030064D01*
X79665968Y-86988680D01*
X79611896Y-86966282D01*
X79582632Y-86963400D01*
X78439775Y-86963400D01*
X78410511Y-86966282D01*
X78356439Y-86988680D01*
X78315055Y-87030064D01*
X78292657Y-87084136D01*
X77661203Y-87084136D01*
X77661203Y-86334828D01*
X77939774Y-86334828D01*
X77969038Y-86331946D01*
X78023110Y-86309548D01*
X78064494Y-86268164D01*
X78086892Y-86214092D01*
X78086892Y-86155564D01*
X79935514Y-86155564D01*
X79935514Y-86214092D01*
X79957912Y-86268164D01*
X79999296Y-86309548D01*
X80053368Y-86331946D01*
X80082632Y-86334828D01*
X80361203Y-86334828D01*
X80361203Y-87684828D01*
X80364085Y-87714092D01*
X80386483Y-87768164D01*
X80427867Y-87809548D01*
X80481939Y-87831946D01*
X80540467Y-87831946D01*
X80594539Y-87809548D01*
X80635923Y-87768164D01*
X80658321Y-87714092D01*
X80661203Y-87684828D01*
X80661203Y-86334828D01*
X80939774Y-86334828D01*
X80969038Y-86331946D01*
X81023110Y-86309548D01*
X81064494Y-86268164D01*
X81086892Y-86214092D01*
X81086892Y-86155564D01*
X81064494Y-86101492D01*
X81023110Y-86060108D01*
X80969038Y-86037710D01*
X80939774Y-86034828D01*
X80082632Y-86034828D01*
X80053368Y-86037710D01*
X79999296Y-86060108D01*
X79957912Y-86101492D01*
X79935514Y-86155564D01*
X78086892Y-86155564D01*
X78064494Y-86101492D01*
X78023110Y-86060108D01*
X77969038Y-86037710D01*
X77939774Y-86034828D01*
X77082632Y-86034828D01*
X77053368Y-86037710D01*
X76999296Y-86060108D01*
X76957912Y-86101492D01*
X76935514Y-86155564D01*
X76768847Y-86155564D01*
X76768847Y-85868161D01*
X81253559Y-85868161D01*
X81253559Y-87998613D01*
G37*
D11*
%TO.P,D1,1,DOUT*%
%TO.N,Net-(D1-DOUT)*%
X44474358Y-115162513D03*
%TO.P,D1,2,VSS*%
%TO.N,Net-(D1-VSS)*%
X45936751Y-114828735D03*
D12*
%TO.P,D1,3,DIN*%
%TO.N,Net-(D1-DIN)*%
X44746278Y-109612867D03*
D11*
%TO.P,D1,4,VDD*%
%TO.N,Net-(D1-VDD)*%
X43283885Y-109946645D03*
%TD*%
D13*
%TO.P,D1,1,DOUT*%
%TO.N,Net-(D1-DOUT)*%
X36525935Y-122333645D03*
%TO.P,D1,2,VSS*%
%TO.N,Net-(D1-VSS)*%
X37176777Y-120982199D03*
D14*
%TO.P,D1,3,DIN*%
%TO.N,Net-(D1-DIN)*%
X32356623Y-118660861D03*
D13*
%TO.P,D1,4,VDD*%
%TO.N,Net-(D1-VDD)*%
X31705781Y-120012307D03*
%TD*%
D15*
%TO.P,D1,1,DOUT*%
%TO.N,Net-(D1-DOUT)*%
X55036723Y-116905740D03*
%TO.P,D1,2,VSS*%
%TO.N,Net-(D1-VSS)*%
X56209478Y-117840966D03*
D16*
%TO.P,D1,3,DIN*%
%TO.N,Net-(D1-DIN)*%
X59545117Y-113658142D03*
D15*
%TO.P,D1,4,VDD*%
%TO.N,Net-(D1-VDD)*%
X58372362Y-112722916D03*
%TD*%
D17*
%TO.P,D1,1,DOUT*%
%TO.N,Net-(D1-DOUT)*%
X56209481Y-136160172D03*
%TO.P,D1,2,VSS*%
%TO.N,Net-(D1-VSS)*%
X55036743Y-137095418D03*
D18*
%TO.P,D1,3,DIN*%
%TO.N,Net-(D1-DIN)*%
X58372455Y-141278182D03*
D17*
%TO.P,D1,4,VDD*%
%TO.N,Net-(D1-VDD)*%
X59545193Y-140342936D03*
%TD*%
D19*
%TO.P,D1,1,DOUT*%
%TO.N,Net-(D1-DOUT)*%
X37176813Y-133019058D03*
%TO.P,D1,2,VSS*%
%TO.N,Net-(D1-VSS)*%
X36525994Y-131667602D03*
D20*
%TO.P,D1,3,DIN*%
%TO.N,Net-(D1-DIN)*%
X31705799Y-133988856D03*
D19*
%TO.P,D1,4,VDD*%
%TO.N,Net-(D1-VDD)*%
X32356618Y-135340312D03*
%TD*%
D21*
%TO.P,D1,1,DOUT*%
%TO.N,Net-(D1-DOUT)*%
X60259324Y-126250574D03*
%TO.P,D1,2,VSS*%
%TO.N,Net-(D1-VSS)*%
X60259324Y-127750574D03*
D22*
%TO.P,D1,3,DIN*%
%TO.N,Net-(D1-DIN)*%
X65609324Y-127750574D03*
D21*
%TO.P,D1,4,VDD*%
%TO.N,Net-(D1-VDD)*%
X65609324Y-126250574D03*
%TD*%
D23*
%TO.P,D1,1,DOUT*%
%TO.N,Net-(D1-DOUT)*%
X45936810Y-139172434D03*
%TO.P,D1,2,VSS*%
%TO.N,Net-(D1-VSS)*%
X44474418Y-138838655D03*
D24*
%TO.P,D1,3,DIN*%
%TO.N,Net-(D1-DIN)*%
X43283944Y-144054524D03*
D23*
%TO.P,D1,4,VDD*%
%TO.N,Net-(D1-VDD)*%
X44746336Y-144388303D03*
%TD*%
D25*
%TO.P,Back1,2,2*%
%TO.N,Row1*%
X103020000Y-116550000D03*
X96520000Y-116550000D03*
%TO.P,Back1,1,1*%
%TO.N,Colum3*%
X103020000Y-112050000D03*
X96520000Y-112050000D03*
%TD*%
%TO.P,Confirm1,2,2*%
%TO.N,Row1*%
X77620000Y-116550000D03*
X71120000Y-116550000D03*
%TO.P,Confirm1,1,1*%
%TO.N,Colum1*%
X77620000Y-112050000D03*
X71120000Y-112050000D03*
%TD*%
%TO.P,D-Pad_Up1,2,2*%
%TO.N,Row1*%
X90320000Y-116550000D03*
X83820000Y-116550000D03*
%TO.P,D-Pad_Up1,1,1*%
%TO.N,Colum2*%
X90320000Y-112050000D03*
X83820000Y-112050000D03*
%TD*%
%TO.P,SW7,2,2*%
%TO.N,Row2*%
X103020000Y-129250000D03*
X96520000Y-129250000D03*
%TO.P,SW7,1,1*%
%TO.N,Colum3*%
X103020000Y-124750000D03*
X96520000Y-124750000D03*
%TD*%
%TO.P,Enter1,2,2*%
%TO.N,Row2*%
X90320000Y-129250000D03*
X83820000Y-129250000D03*
%TO.P,Enter1,1,1*%
%TO.N,Colum2*%
X90320000Y-124750000D03*
X83820000Y-124750000D03*
%TD*%
%TO.P,D-Pad_Right1,2,2*%
%TO.N,Row2*%
X77620000Y-129250000D03*
X71120000Y-129250000D03*
%TO.P,D-Pad_Right1,1,1*%
%TO.N,Colum1*%
X77620000Y-124750000D03*
X71120000Y-124750000D03*
%TD*%
%TO.P,SW8,2,2*%
%TO.N,Row3*%
X103020000Y-141950000D03*
X96520000Y-141950000D03*
%TO.P,SW8,1,1*%
%TO.N,Colum3*%
X103020000Y-137450000D03*
X96520000Y-137450000D03*
%TD*%
%TO.P,SW5,2,2*%
%TO.N,Row3*%
X77620000Y-141950000D03*
X71120000Y-141950000D03*
%TO.P,SW5,1,1*%
%TO.N,Colum1*%
X77620000Y-137450000D03*
X71120000Y-137450000D03*
%TD*%
%TO.P,SW6,2,2*%
%TO.N,Row3*%
X90320000Y-141950000D03*
X83820000Y-141950000D03*
%TO.P,SW6,1,1*%
%TO.N,Colum2*%
X90320000Y-137450000D03*
X83820000Y-137450000D03*
%TD*%
D26*
%TO.P,J1,1,Pin_1*%
%TO.N,GND*%
X82820238Y-80645000D03*
%TO.P,J1,2,Pin_2*%
%TO.N,3v3*%
X85360238Y-80645000D03*
%TO.P,J1,3,Pin_3*%
%TO.N,SCL*%
X87900238Y-80645000D03*
%TO.P,J1,4,Pin_4*%
%TO.N,SDA*%
X90440238Y-80645000D03*
%TD*%
D27*
%TO.P,SW1,A,A*%
%TO.N,EC-A*%
X111800000Y-134350000D03*
D25*
%TO.P,SW1,B,B*%
%TO.N,EC-B*%
X116800000Y-134350000D03*
%TO.P,SW1,C,C*%
%TO.N,GND*%
X114300000Y-134350000D03*
D28*
%TO.P,SW1,MP*%
%TO.N,N/C*%
X108700000Y-126850000D03*
X119900000Y-126850000D03*
D25*
%TO.P,SW1,S1,S1*%
%TO.N,Colum3*%
X116800000Y-119850000D03*
%TO.P,SW1,S2,S2*%
%TO.N,Row1*%
X111800000Y-119850000D03*
%TD*%
D29*
%TO.P,U1,1,GPIO2/A0/D0*%
%TO.N,Net-(D1-DIN)*%
X94360238Y-163830000D03*
%TO.P,U1,2,GPIO3/A1/D1*%
%TO.N,Colum1*%
X94360238Y-161290000D03*
%TO.P,U1,3,GPIO4/A2/D2*%
%TO.N,Colum2*%
X94360238Y-158750000D03*
%TO.P,U1,4,GPIO5/A3/D3*%
%TO.N,Colum3*%
X94360238Y-156210000D03*
%TO.P,U1,5,GPIO6/D4/SDA*%
%TO.N,SDA*%
X94360238Y-153670000D03*
%TO.P,U1,6,GPIO7/D5/SCL*%
%TO.N,SCL*%
X94360238Y-151130000D03*
%TO.P,U1,7,GPIO21/D6/TX*%
%TO.N,EC-A*%
X94360238Y-148590000D03*
%TO.P,U1,8,GPIO20/D7/RX*%
%TO.N,EC-B*%
X79120238Y-148590000D03*
%TO.P,U1,9,GPIO8/D8/SCK*%
%TO.N,Row3*%
X79120238Y-151130000D03*
%TO.P,U1,10,GPIO9/D9/MISO*%
%TO.N,Row2*%
X79120238Y-153670000D03*
%TO.P,U1,11,GPIO10/D10/MOSI*%
%TO.N,Row1*%
X79120238Y-156210000D03*
%TO.P,U1,12,VCC_3V3*%
%TO.N,3v3*%
X79120238Y-158750000D03*
%TO.P,U1,13,GND*%
%TO.N,GND*%
X79120238Y-161290000D03*
%TO.P,U1,14,VBUS*%
%TO.N,5V+*%
X79120238Y-163830000D03*
%TD*%
D30*
%TO.N,Net-(D1-DIN)*%
X97155000Y-163830000D03*
%TO.N,Net-(D1-VDD)*%
X31705781Y-120012307D03*
%TO.N,Net-(D1-DOUT)*%
X37176813Y-133019058D03*
X36525935Y-122333645D03*
X55036723Y-116905740D03*
X56209481Y-136160172D03*
%TO.N,Net-(D1-DIN)*%
X67146511Y-127169375D03*
%TO.N,Net-(D1-DOUT)*%
X60259324Y-126250574D03*
X44474358Y-115162513D03*
%TO.N,Net-(D1-VDD)*%
X32356618Y-135340312D03*
X58372362Y-112722916D03*
X65609324Y-126250574D03*
X44746336Y-144388303D03*
X43283885Y-109946645D03*
%TO.N,Net-(D1-DOUT)*%
X45936810Y-139172434D03*
%TO.N,Net-(D1-VDD)*%
X59545193Y-140342936D03*
%TO.N,SCL*%
X89916000Y-150368000D03*
%TO.N,SDA*%
X85344000Y-151384000D03*
X86868000Y-144780000D03*
%TD*%
D31*
%TO.N,Net-(D1-VSS)*%
X36525994Y-131667602D02*
X36178205Y-131319813D01*
%TO.N,Net-(D1-DIN)*%
X30894634Y-135763574D02*
X30894634Y-134493574D01*
%TO.N,Net-(D1-VSS)*%
X53829349Y-138302812D02*
X55036743Y-137095418D01*
%TO.N,Net-(D1-DIN)*%
X59545117Y-113658142D02*
X61120634Y-115233659D01*
X57241341Y-111379574D02*
X58834634Y-111379574D01*
%TO.N,Net-(D1-VSS)*%
X37199168Y-120595288D02*
X37388635Y-120080539D01*
%TO.N,Net-(D1-DIN)*%
X40927634Y-109093574D02*
X41816634Y-109093574D01*
%TO.N,Net-(D1-VSS)*%
X38514634Y-132207574D02*
X37625634Y-131318574D01*
X44474418Y-138838655D02*
X44632125Y-138838655D01*
%TO.N,Net-(D1-DIN)*%
X60993634Y-138794574D02*
X60993634Y-140970574D01*
X45127985Y-109677418D02*
X45400383Y-109642049D01*
X45585128Y-109618061D02*
X45672290Y-109606743D01*
X44746278Y-108975218D02*
X44746278Y-109612867D01*
%TO.N,Net-(D1-VSS)*%
X44632125Y-138838655D02*
X45675968Y-137794812D01*
X59088634Y-124968574D02*
X59088634Y-120720122D01*
%TO.N,Net-(D1-DIN)*%
X58888351Y-141794078D02*
X58372455Y-141278182D01*
X60993634Y-140970574D02*
X60170130Y-141794078D01*
X32356623Y-117664585D02*
X40927634Y-109093574D01*
X54135634Y-141731812D02*
X57383180Y-141731812D01*
X65609324Y-127750574D02*
X65609324Y-134178884D01*
X31705799Y-133988856D02*
X31705799Y-133587823D01*
X66581634Y-127000574D02*
X65957634Y-127000574D01*
%TO.N,Net-(D1-VSS)*%
X35974634Y-123825574D02*
X36228634Y-123571574D01*
%TO.N,Net-(D1-DIN)*%
X58123259Y-141527378D02*
X58372455Y-141278182D01*
%TO.N,Net-(D1-VSS)*%
X45715595Y-116399574D02*
X45936751Y-116178418D01*
%TO.N,Net-(D1-DIN)*%
X66835634Y-125739884D02*
X66835634Y-126746574D01*
X30284634Y-119228574D02*
X31148634Y-118364574D01*
X57540821Y-141685500D02*
X57783236Y-141527378D01*
X57440762Y-141674230D02*
X57540821Y-141685500D01*
%TO.N,Net-(D1-VSS)*%
X53627634Y-116205574D02*
X53627634Y-117348574D01*
X56802634Y-134493574D02*
X60259324Y-131036884D01*
X38133634Y-122936574D02*
X38133634Y-121666574D01*
X37388635Y-120080539D02*
X37388635Y-118982573D01*
%TO.N,Net-(D1-DIN)*%
X66835634Y-126746574D02*
X66581634Y-127000574D01*
%TO.N,Net-(D1-VSS)*%
X60259324Y-131036884D02*
X60259324Y-127750574D01*
X55786634Y-134493574D02*
X56802634Y-134493574D01*
X54516634Y-136575309D02*
X54516634Y-135763574D01*
X36990634Y-131318574D02*
X36863634Y-131445574D01*
%TO.N,Net-(D1-DIN)*%
X45400383Y-109642049D02*
X45563906Y-109604726D01*
%TO.N,Net-(D1-VSS)*%
X37449259Y-120982199D02*
X37176777Y-120982199D01*
X45675968Y-137794812D02*
X47150634Y-137794812D01*
%TO.N,Net-(D1-DIN)*%
X60104634Y-112649574D02*
X60104634Y-113098625D01*
%TO.N,Net-(D1-VSS)*%
X36178205Y-131319813D02*
X35974634Y-130956968D01*
X38895634Y-134366574D02*
X38514634Y-133985574D01*
X38133634Y-121666574D02*
X37449259Y-120982199D01*
X37176777Y-120982199D02*
X37176777Y-120605631D01*
%TO.N,Net-(D1-DIN)*%
X67146511Y-127451697D02*
X67146511Y-127169375D01*
%TO.N,Net-(D1-VSS)*%
X58546634Y-127093574D02*
X58546634Y-125510574D01*
X36228634Y-123571574D02*
X37498634Y-123571574D01*
%TO.N,Net-(D1-DIN)*%
X32060336Y-118364574D02*
X32356623Y-118660861D01*
X60170130Y-141794078D02*
X58888351Y-141794078D01*
X65609324Y-127348884D02*
X65609324Y-127750574D01*
X33180634Y-136779574D02*
X31910634Y-136779574D01*
X44861985Y-109728574D02*
X45021286Y-109728574D01*
X57383180Y-141731812D02*
X57440762Y-141674230D01*
X43283944Y-144054524D02*
X43283944Y-144977884D01*
%TO.N,Net-(D1-VSS)*%
X44474418Y-138838655D02*
X41589715Y-138838655D01*
X47658634Y-138302812D02*
X53829349Y-138302812D01*
%TO.N,Net-(D1-DIN)*%
X45672290Y-109606743D02*
X45866200Y-109728574D01*
%TO.N,Net-(D1-VSS)*%
X43106556Y-115951574D02*
X43554556Y-116399574D01*
X53627634Y-117348574D02*
X54741908Y-118462848D01*
%TO.N,Net-(D1-DIN)*%
X58834634Y-111379574D02*
X60104634Y-112649574D01*
X45681850Y-145487358D02*
X50380088Y-145487358D01*
%TO.N,Net-(D1-VSS)*%
X60259324Y-127750574D02*
X59203634Y-127750574D01*
%TO.N,Net-(D1-DIN)*%
X45021286Y-109728574D02*
X45102940Y-109709937D01*
%TO.N,Net-(D1-VSS)*%
X59203634Y-127750574D02*
X58546634Y-127093574D01*
X54516634Y-135763574D02*
X55786634Y-134493574D01*
X41589715Y-138838655D02*
X38895634Y-136144574D01*
%TO.N,Net-(D1-DIN)*%
X31705799Y-133587823D02*
X28934634Y-130816658D01*
%TO.N,Net-(D1-VSS)*%
X45936751Y-114828735D02*
X52250795Y-114828735D01*
%TO.N,Net-(D1-DIN)*%
X65565634Y-123698574D02*
X65565634Y-124469884D01*
%TO.N,Net-(D1-VSS)*%
X59088634Y-120720122D02*
X56209478Y-117840966D01*
%TO.N,Net-(D1-DIN)*%
X43283944Y-144054524D02*
X40455584Y-144054524D01*
X45372634Y-145796574D02*
X45681850Y-145487358D01*
%TO.N,Net-(D1-VSS)*%
X43554556Y-116399574D02*
X45715595Y-116399574D01*
%TO.N,Net-(D1-DIN)*%
X28934634Y-130816658D02*
X28934634Y-123153574D01*
X42324634Y-108585574D02*
X44356634Y-108585574D01*
X45102940Y-109709937D02*
X45127985Y-109677418D01*
X45563906Y-109604726D02*
X45585128Y-109618061D01*
X40455584Y-144054524D02*
X33180634Y-136779574D01*
%TO.N,Net-(D1-VSS)*%
X58546634Y-125510574D02*
X59088634Y-124968574D01*
%TO.N,Net-(D1-DIN)*%
X65609324Y-134178884D02*
X60993634Y-138794574D01*
%TO.N,Net-(D1-VSS)*%
X55587596Y-118462848D02*
X56209478Y-117840966D01*
X37176777Y-120605631D02*
X37199168Y-120595288D01*
%TO.N,Net-(D1-DIN)*%
X65957634Y-127000574D02*
X65609324Y-127348884D01*
%TO.N,Net-(D1-VSS)*%
X35974634Y-130956968D02*
X35974634Y-123825574D01*
%TO.N,Net-(D1-DIN)*%
X28934634Y-123153574D02*
X30284634Y-121803574D01*
X57783236Y-141527378D02*
X58123259Y-141527378D01*
X31148634Y-118364574D02*
X32060336Y-118364574D01*
X65565634Y-124469884D02*
X66835634Y-125739884D01*
%TO.N,Net-(D1-VSS)*%
X37388635Y-118982573D02*
X40419634Y-115951574D01*
%TO.N,Net-(D1-DIN)*%
X44356634Y-108585574D02*
X44746278Y-108975218D01*
X44102634Y-145796574D02*
X45372634Y-145796574D01*
X66847634Y-127750574D02*
X67146511Y-127451697D01*
%TO.N,Net-(D1-VSS)*%
X38895634Y-136144574D02*
X38895634Y-134366574D01*
%TO.N,Net-(D1-DIN)*%
X31399352Y-133988856D02*
X31705799Y-133988856D01*
X60104634Y-113098625D02*
X59545117Y-113658142D01*
X44746278Y-109612867D02*
X44861985Y-109728574D01*
X61120634Y-115233659D02*
X61120634Y-119253574D01*
X65609324Y-127750574D02*
X66847634Y-127750574D01*
%TO.N,Net-(D1-VSS)*%
X36863634Y-131445574D02*
X36748022Y-131445574D01*
X55036743Y-137095418D02*
X54516634Y-136575309D01*
X40419634Y-115951574D02*
X43106556Y-115951574D01*
X45936751Y-116178418D02*
X45936751Y-114828735D01*
X36748022Y-131445574D02*
X36525994Y-131667602D01*
X37625634Y-131318574D02*
X36990634Y-131318574D01*
X52250795Y-114828735D02*
X53627634Y-116205574D01*
X47150634Y-137794812D02*
X47658634Y-138302812D01*
X38514634Y-133985574D02*
X38514634Y-132207574D01*
%TO.N,Net-(D1-DIN)*%
X55590341Y-109728574D02*
X57241341Y-111379574D01*
%TO.N,Net-(D1-VSS)*%
X37498634Y-123571574D02*
X38133634Y-122936574D01*
X54741908Y-118462848D02*
X55587596Y-118462848D01*
%TO.N,Net-(D1-DIN)*%
X32356623Y-118660861D02*
X32356623Y-117664585D01*
X50380088Y-145487358D02*
X54135634Y-141731812D01*
X41816634Y-109093574D02*
X42324634Y-108585574D01*
X30284634Y-121803574D02*
X30284634Y-119228574D01*
X45866200Y-109728574D02*
X55590341Y-109728574D01*
X43283944Y-144977884D02*
X44102634Y-145796574D01*
X31910634Y-136779574D02*
X30894634Y-135763574D01*
X61120634Y-119253574D02*
X65565634Y-123698574D01*
X30894634Y-134493574D02*
X31399352Y-133988856D01*
%TO.N,Row1*%
X103020000Y-116550000D02*
X106320000Y-119850000D01*
X106320000Y-119850000D02*
X111800000Y-119850000D01*
%TO.N,Colum3*%
X96520000Y-112050000D02*
X94488000Y-114082000D01*
X90932000Y-144780000D02*
X90932000Y-152781762D01*
X116800000Y-119850000D02*
X114222000Y-122428000D01*
X105342000Y-122428000D02*
X103020000Y-124750000D01*
X96520000Y-137450000D02*
X96520000Y-139192000D01*
X96520000Y-139192000D02*
X90932000Y-144780000D01*
X103020000Y-112050000D02*
X96520000Y-112050000D01*
X94488000Y-114082000D02*
X94488000Y-122718000D01*
X103020000Y-124750000D02*
X105156000Y-126886000D01*
X90932000Y-152781762D02*
X94360238Y-156210000D01*
X94488000Y-122718000D02*
X96520000Y-124750000D01*
X103020000Y-137450000D02*
X96520000Y-137450000D01*
X105156000Y-135314000D02*
X103020000Y-137450000D01*
X105156000Y-126886000D02*
X105156000Y-135314000D01*
X96520000Y-124750000D02*
X103020000Y-124750000D01*
X114222000Y-122428000D02*
X105342000Y-122428000D01*
%TO.N,Colum1*%
X94106238Y-161544000D02*
X94360238Y-161290000D01*
X80772000Y-140602000D02*
X80772000Y-153445550D01*
X77620000Y-112050000D02*
X71120000Y-112050000D01*
X88870450Y-161544000D02*
X94106238Y-161544000D01*
X80772000Y-153445550D02*
X88870450Y-161544000D01*
X77620000Y-112050000D02*
X79756000Y-114186000D01*
X77620000Y-124750000D02*
X71120000Y-124750000D01*
X71120000Y-124750000D02*
X69088000Y-126782000D01*
X69088000Y-135418000D02*
X71120000Y-137450000D01*
X79756000Y-114186000D02*
X79756000Y-122614000D01*
X79756000Y-122614000D02*
X77620000Y-124750000D01*
X71120000Y-137450000D02*
X77620000Y-137450000D01*
X77620000Y-137450000D02*
X80772000Y-140602000D01*
X69088000Y-126782000D02*
X69088000Y-135418000D01*
%TO.N,Colum2*%
X83820000Y-112050000D02*
X81788000Y-114082000D01*
X92456000Y-126886000D02*
X92456000Y-135314000D01*
X83820000Y-137450000D02*
X81788000Y-139482000D01*
X88392000Y-157988000D02*
X88392000Y-160020000D01*
X81788000Y-114082000D02*
X81788000Y-122718000D01*
X88900000Y-160528000D02*
X92964000Y-160528000D01*
X94360238Y-159131762D02*
X94360238Y-158750000D01*
X81788000Y-139482000D02*
X81788000Y-151384000D01*
X81788000Y-151384000D02*
X88392000Y-157988000D01*
X92964000Y-160528000D02*
X94360238Y-159131762D01*
X81788000Y-122718000D02*
X83820000Y-124750000D01*
X88392000Y-160020000D02*
X88900000Y-160528000D01*
X92456000Y-135314000D02*
X90320000Y-137450000D01*
X90320000Y-124750000D02*
X92456000Y-126886000D01*
%TO.N,EC-A*%
X96266000Y-148590000D02*
X94360238Y-148590000D01*
X104921529Y-136417529D02*
X104921529Y-143021529D01*
X104653058Y-143290000D02*
X98684058Y-143290000D01*
X106989058Y-134350000D02*
X104921529Y-136417529D01*
X111800000Y-134350000D02*
X106989058Y-134350000D01*
X97028000Y-147828000D02*
X96266000Y-148590000D01*
X98684058Y-143290000D02*
X97028000Y-144946058D01*
X97028000Y-144946058D02*
X97028000Y-147828000D01*
X104921529Y-143021529D02*
X104653058Y-143290000D01*
%TO.N,SCL*%
X89297398Y-79247840D02*
X91439840Y-79247840D01*
X92857000Y-142287900D02*
X88900000Y-146244900D01*
X88900000Y-146244900D02*
X88900000Y-149352000D01*
X87900238Y-80645000D02*
X89297398Y-79247840D01*
X91439840Y-79247840D02*
X92857000Y-80665000D01*
X92857000Y-80665000D02*
X92857000Y-142287900D01*
X88900000Y-149352000D02*
X89916000Y-150368000D01*
%TO.N,SDA*%
X86799238Y-86428762D02*
X90440238Y-82787762D01*
X85344000Y-151384000D02*
X85344000Y-146304000D01*
X86868000Y-125984000D02*
X86799238Y-125915238D01*
X86799238Y-125915238D02*
X86799238Y-86428762D01*
X86868000Y-144780000D02*
X86868000Y-125984000D01*
X90440238Y-82787762D02*
X90440238Y-80645000D01*
X85344000Y-146304000D02*
X86868000Y-144780000D01*
%TD*%
%TA.AperFunction,Conductor*%
%TO.N,GND*%
G36*
X69158703Y-136338384D02*
G01*
X69165181Y-136344416D01*
X69667200Y-136846435D01*
X69700685Y-136907758D01*
X69697450Y-136972433D01*
X69656447Y-137098628D01*
X69619500Y-137331902D01*
X69619500Y-137568097D01*
X69656446Y-137801368D01*
X69729433Y-138025996D01*
X69788412Y-138141747D01*
X69836657Y-138236433D01*
X69975483Y-138427510D01*
X70142490Y-138594517D01*
X70333567Y-138733343D01*
X70431672Y-138783330D01*
X70544003Y-138840566D01*
X70544005Y-138840566D01*
X70544008Y-138840568D01*
X70664412Y-138879689D01*
X70768631Y-138913553D01*
X71001903Y-138950500D01*
X71001908Y-138950500D01*
X71238097Y-138950500D01*
X71471368Y-138913553D01*
X71695992Y-138840568D01*
X71906433Y-138733343D01*
X72097510Y-138594517D01*
X72264517Y-138427510D01*
X72403343Y-138236433D01*
X72463583Y-138118204D01*
X72511558Y-138067409D01*
X72574068Y-138050500D01*
X76165932Y-138050500D01*
X76232971Y-138070185D01*
X76276416Y-138118203D01*
X76336657Y-138236433D01*
X76475483Y-138427510D01*
X76642490Y-138594517D01*
X76833567Y-138733343D01*
X76931672Y-138783330D01*
X77044003Y-138840566D01*
X77044005Y-138840566D01*
X77044008Y-138840568D01*
X77164412Y-138879689D01*
X77268631Y-138913553D01*
X77501903Y-138950500D01*
X77501908Y-138950500D01*
X77738097Y-138950500D01*
X77844126Y-138933705D01*
X77971368Y-138913553D01*
X78097566Y-138872547D01*
X78167404Y-138870553D01*
X78223563Y-138902798D01*
X80135181Y-140814416D01*
X80168666Y-140875739D01*
X80171500Y-140902097D01*
X80171500Y-147556455D01*
X80151815Y-147623494D01*
X80099011Y-147669249D01*
X80029853Y-147679193D01*
X79966297Y-147650168D01*
X79959819Y-147644136D01*
X79942704Y-147627021D01*
X79942702Y-147627019D01*
X79781932Y-147510213D01*
X79604870Y-147419994D01*
X79604867Y-147419993D01*
X79415875Y-147358587D01*
X79317736Y-147343043D01*
X79219599Y-147327500D01*
X79020877Y-147327500D01*
X78955452Y-147337862D01*
X78824600Y-147358587D01*
X78635608Y-147419993D01*
X78635605Y-147419994D01*
X78458543Y-147510213D01*
X78297771Y-147627021D01*
X78157259Y-147767533D01*
X78040451Y-147928305D01*
X77950232Y-148105367D01*
X77950231Y-148105370D01*
X77888825Y-148294362D01*
X77857738Y-148490639D01*
X77857738Y-148689360D01*
X77888825Y-148885637D01*
X77950231Y-149074629D01*
X77950232Y-149074632D01*
X78009271Y-149190500D01*
X78040451Y-149251694D01*
X78157257Y-149412464D01*
X78297774Y-149552981D01*
X78458544Y-149669787D01*
X78558497Y-149720716D01*
X78615018Y-149749515D01*
X78665814Y-149797490D01*
X78682609Y-149865311D01*
X78660071Y-149931446D01*
X78615018Y-149970485D01*
X78458543Y-150050213D01*
X78297771Y-150167021D01*
X78157259Y-150307533D01*
X78040451Y-150468305D01*
X77950232Y-150645367D01*
X77950231Y-150645370D01*
X77888825Y-150834362D01*
X77857738Y-151030639D01*
X77857738Y-151229360D01*
X77888825Y-151425637D01*
X77950231Y-151614629D01*
X77950232Y-151614632D01*
X78025918Y-151763172D01*
X78040451Y-151791694D01*
X78157257Y-151952464D01*
X78297774Y-152092981D01*
X78458544Y-152209787D01*
X78577070Y-152270179D01*
X78615018Y-152289515D01*
X78665814Y-152337490D01*
X78682609Y-152405311D01*
X78660071Y-152471446D01*
X78615018Y-152510485D01*
X78458543Y-152590213D01*
X78297771Y-152707021D01*
X78157259Y-152847533D01*
X78040451Y-153008305D01*
X77950232Y-153185367D01*
X77950231Y-153185370D01*
X77888825Y-153374362D01*
X77888825Y-153374364D01*
X77857738Y-153570639D01*
X77857738Y-153769361D01*
X77870909Y-153852522D01*
X77888825Y-153965637D01*
X77950231Y-154154629D01*
X77950232Y-154154632D01*
X78040451Y-154331694D01*
X78157257Y-154492464D01*
X78297774Y-154632981D01*
X78458544Y-154749787D01*
X78561948Y-154802474D01*
X78615018Y-154829515D01*
X78665814Y-154877490D01*
X78682609Y-154945311D01*
X78660071Y-155011446D01*
X78615018Y-155050485D01*
X78458543Y-155130213D01*
X78297771Y-155247021D01*
X78157259Y-155387533D01*
X78040451Y-155548305D01*
X77950232Y-155725367D01*
X77950231Y-155725370D01*
X77888825Y-155914362D01*
X77857738Y-156110639D01*
X77857738Y-156309360D01*
X77888825Y-156505637D01*
X77950231Y-156694629D01*
X77950232Y-156694632D01*
X78040451Y-156871694D01*
X78157257Y-157032464D01*
X78297774Y-157172981D01*
X78458544Y-157289787D01*
X78577070Y-157350179D01*
X78615018Y-157369515D01*
X78665814Y-157417490D01*
X78682609Y-157485311D01*
X78660071Y-157551446D01*
X78615018Y-157590485D01*
X78458543Y-157670213D01*
X78297771Y-157787021D01*
X78157259Y-157927533D01*
X78040451Y-158088305D01*
X77950232Y-158265367D01*
X77950231Y-158265370D01*
X77888825Y-158454362D01*
X77857738Y-158650639D01*
X77857738Y-158849360D01*
X77888825Y-159045637D01*
X77950231Y-159234629D01*
X77950232Y-159234632D01*
X78023783Y-159378981D01*
X78040451Y-159411694D01*
X78157257Y-159572464D01*
X78297774Y-159712981D01*
X78458544Y-159829787D01*
X78615570Y-159909796D01*
X78666365Y-159957769D01*
X78683160Y-160025590D01*
X78660623Y-160091725D01*
X78615570Y-160130764D01*
X78458804Y-160210641D01*
X78421521Y-160237729D01*
X78421520Y-160237730D01*
X79036144Y-160852352D01*
X78948667Y-160875792D01*
X78847308Y-160934311D01*
X78764549Y-161017070D01*
X78706030Y-161118429D01*
X78682590Y-161205905D01*
X78067968Y-160591282D01*
X78067967Y-160591283D01*
X78040881Y-160628564D01*
X77950695Y-160805562D01*
X77889313Y-160994476D01*
X77889313Y-160994479D01*
X77858238Y-161190678D01*
X77858238Y-161389321D01*
X77889313Y-161585520D01*
X77889313Y-161585523D01*
X77950695Y-161774437D01*
X78040879Y-161951432D01*
X78067968Y-161988715D01*
X78067969Y-161988716D01*
X78682590Y-161374094D01*
X78706030Y-161461571D01*
X78764549Y-161562930D01*
X78847308Y-161645689D01*
X78948667Y-161704208D01*
X79036143Y-161727647D01*
X78421521Y-162342268D01*
X78421521Y-162342269D01*
X78458805Y-162369358D01*
X78615569Y-162449234D01*
X78666365Y-162497209D01*
X78683160Y-162565030D01*
X78660622Y-162631165D01*
X78615569Y-162670204D01*
X78458543Y-162750213D01*
X78297771Y-162867021D01*
X78157259Y-163007533D01*
X78040451Y-163168305D01*
X77950232Y-163345367D01*
X77950231Y-163345370D01*
X77888825Y-163534362D01*
X77857738Y-163730639D01*
X77857738Y-163929360D01*
X77888825Y-164125637D01*
X77950231Y-164314629D01*
X77950232Y-164314632D01*
X77963307Y-164340292D01*
X78040451Y-164491694D01*
X78157257Y-164652464D01*
X78297774Y-164792981D01*
X78458544Y-164909787D01*
X78545387Y-164954035D01*
X78635605Y-165000005D01*
X78635608Y-165000006D01*
X78730104Y-165030709D01*
X78824602Y-165061413D01*
X79020877Y-165092500D01*
X79020878Y-165092500D01*
X79219598Y-165092500D01*
X79219599Y-165092500D01*
X79415874Y-165061413D01*
X79604870Y-165000005D01*
X79781932Y-164909787D01*
X79942702Y-164792981D01*
X80083219Y-164652464D01*
X80200025Y-164491694D01*
X80290243Y-164314632D01*
X80351651Y-164125636D01*
X80382738Y-163929361D01*
X80382738Y-163730639D01*
X80351651Y-163534364D01*
X80290243Y-163345368D01*
X80290243Y-163345367D01*
X80244273Y-163255149D01*
X80200025Y-163168306D01*
X80083219Y-163007536D01*
X79942702Y-162867019D01*
X79781932Y-162750213D01*
X79624905Y-162670203D01*
X79574110Y-162622229D01*
X79557315Y-162554408D01*
X79579852Y-162488273D01*
X79624907Y-162449234D01*
X79781660Y-162369364D01*
X79818954Y-162342268D01*
X79204333Y-161727647D01*
X79291809Y-161704208D01*
X79393168Y-161645689D01*
X79475927Y-161562930D01*
X79534446Y-161461571D01*
X79557885Y-161374094D01*
X80172506Y-161988715D01*
X80199600Y-161951425D01*
X80289780Y-161774437D01*
X80351162Y-161585523D01*
X80351162Y-161585520D01*
X80382238Y-161389321D01*
X80382238Y-161190678D01*
X80351162Y-160994479D01*
X80351162Y-160994476D01*
X80289780Y-160805562D01*
X80199596Y-160628567D01*
X80172506Y-160591283D01*
X79557885Y-161205904D01*
X79534446Y-161118429D01*
X79475927Y-161017070D01*
X79393168Y-160934311D01*
X79291809Y-160875792D01*
X79204332Y-160852352D01*
X79818954Y-160237731D01*
X79818953Y-160237730D01*
X79781670Y-160210641D01*
X79624906Y-160130765D01*
X79574110Y-160082790D01*
X79557315Y-160014969D01*
X79579853Y-159948834D01*
X79624905Y-159909796D01*
X79781932Y-159829787D01*
X79942702Y-159712981D01*
X80083219Y-159572464D01*
X80200025Y-159411694D01*
X80290243Y-159234632D01*
X80351651Y-159045636D01*
X80382738Y-158849361D01*
X80382738Y-158650639D01*
X80351651Y-158454364D01*
X80290243Y-158265368D01*
X80290243Y-158265367D01*
X80200024Y-158088305D01*
X80083219Y-157927536D01*
X79942702Y-157787019D01*
X79781932Y-157670213D01*
X79625456Y-157590484D01*
X79574661Y-157542510D01*
X79557866Y-157474689D01*
X79580403Y-157408554D01*
X79625456Y-157369515D01*
X79781932Y-157289787D01*
X79942702Y-157172981D01*
X80083219Y-157032464D01*
X80200025Y-156871694D01*
X80290243Y-156694632D01*
X80351651Y-156505636D01*
X80382738Y-156309361D01*
X80382738Y-156110639D01*
X80351651Y-155914364D01*
X80290243Y-155725368D01*
X80290243Y-155725367D01*
X80200024Y-155548305D01*
X80171546Y-155509108D01*
X80083219Y-155387536D01*
X79942702Y-155247019D01*
X79781932Y-155130213D01*
X79625456Y-155050484D01*
X79574661Y-155002510D01*
X79557866Y-154934689D01*
X79580403Y-154868554D01*
X79625456Y-154829515D01*
X79781932Y-154749787D01*
X79942702Y-154632981D01*
X80083219Y-154492464D01*
X80200025Y-154331694D01*
X80290243Y-154154632D01*
X80311487Y-154089246D01*
X80350923Y-154031573D01*
X80415281Y-154004373D01*
X80484128Y-154016287D01*
X80517099Y-154039884D01*
X88385589Y-161908374D01*
X88385599Y-161908385D01*
X88389929Y-161912715D01*
X88389930Y-161912716D01*
X88501734Y-162024520D01*
X88588545Y-162074639D01*
X88588547Y-162074641D01*
X88626601Y-162096611D01*
X88638665Y-162103577D01*
X88791393Y-162144501D01*
X88791396Y-162144501D01*
X88957103Y-162144501D01*
X88957119Y-162144500D01*
X93377931Y-162144500D01*
X93444970Y-162164185D01*
X93465612Y-162180819D01*
X93537774Y-162252981D01*
X93698544Y-162369787D01*
X93817070Y-162430179D01*
X93855018Y-162449515D01*
X93905814Y-162497490D01*
X93922609Y-162565311D01*
X93900071Y-162631446D01*
X93855018Y-162670485D01*
X93698543Y-162750213D01*
X93537771Y-162867021D01*
X93397259Y-163007533D01*
X93280451Y-163168305D01*
X93190232Y-163345367D01*
X93190231Y-163345370D01*
X93128825Y-163534362D01*
X93097738Y-163730639D01*
X93097738Y-163929360D01*
X93128825Y-164125637D01*
X93190231Y-164314629D01*
X93190232Y-164314632D01*
X93203307Y-164340292D01*
X93280451Y-164491694D01*
X93397257Y-164652464D01*
X93537774Y-164792981D01*
X93698544Y-164909787D01*
X93785387Y-164954035D01*
X93875605Y-165000005D01*
X93875608Y-165000006D01*
X93970104Y-165030709D01*
X94064602Y-165061413D01*
X94260877Y-165092500D01*
X94260878Y-165092500D01*
X94459598Y-165092500D01*
X94459599Y-165092500D01*
X94655874Y-165061413D01*
X94844870Y-165000005D01*
X95021932Y-164909787D01*
X95182702Y-164792981D01*
X95323219Y-164652464D01*
X95440025Y-164491694D01*
X95530243Y-164314632D01*
X95591651Y-164125636D01*
X95622738Y-163929361D01*
X95622738Y-163730639D01*
X95591651Y-163534364D01*
X95530243Y-163345368D01*
X95530243Y-163345367D01*
X95484273Y-163255149D01*
X95440025Y-163168306D01*
X95323219Y-163007536D01*
X95182702Y-162867019D01*
X95021932Y-162750213D01*
X94865456Y-162670484D01*
X94814661Y-162622510D01*
X94797866Y-162554689D01*
X94820403Y-162488554D01*
X94865456Y-162449515D01*
X95021932Y-162369787D01*
X95182702Y-162252981D01*
X95323219Y-162112464D01*
X95440025Y-161951694D01*
X95530243Y-161774632D01*
X95591651Y-161585636D01*
X95622738Y-161389361D01*
X95622738Y-161190639D01*
X95591651Y-160994364D01*
X95530243Y-160805368D01*
X95530243Y-160805367D01*
X95484273Y-160715149D01*
X95440025Y-160628306D01*
X95323219Y-160467536D01*
X95182702Y-160327019D01*
X95021932Y-160210213D01*
X94865456Y-160130484D01*
X94814661Y-160082510D01*
X94797866Y-160014689D01*
X94820403Y-159948554D01*
X94865456Y-159909515D01*
X95021932Y-159829787D01*
X95182702Y-159712981D01*
X95323219Y-159572464D01*
X95440025Y-159411694D01*
X95530243Y-159234632D01*
X95591651Y-159045636D01*
X95622738Y-158849361D01*
X95622738Y-158650639D01*
X95591651Y-158454364D01*
X95530243Y-158265368D01*
X95530243Y-158265367D01*
X95440024Y-158088305D01*
X95323219Y-157927536D01*
X95182702Y-157787019D01*
X95021932Y-157670213D01*
X94865456Y-157590484D01*
X94814661Y-157542510D01*
X94797866Y-157474689D01*
X94820403Y-157408554D01*
X94865456Y-157369515D01*
X95021932Y-157289787D01*
X95182702Y-157172981D01*
X95323219Y-157032464D01*
X95440025Y-156871694D01*
X95530243Y-156694632D01*
X95591651Y-156505636D01*
X95622738Y-156309361D01*
X95622738Y-156110639D01*
X95591651Y-155914364D01*
X95530243Y-155725368D01*
X95530243Y-155725367D01*
X95440024Y-155548305D01*
X95411546Y-155509108D01*
X95323219Y-155387536D01*
X95182702Y-155247019D01*
X95021932Y-155130213D01*
X94865456Y-155050484D01*
X94814661Y-155002510D01*
X94797866Y-154934689D01*
X94820403Y-154868554D01*
X94865456Y-154829515D01*
X95021932Y-154749787D01*
X95182702Y-154632981D01*
X95323219Y-154492464D01*
X95440025Y-154331694D01*
X95530243Y-154154632D01*
X95591651Y-153965636D01*
X95622738Y-153769361D01*
X95622738Y-153570639D01*
X95591651Y-153374364D01*
X95545763Y-153233134D01*
X95530244Y-153185370D01*
X95530243Y-153185367D01*
X95440024Y-153008305D01*
X95323219Y-152847536D01*
X95182702Y-152707019D01*
X95021932Y-152590213D01*
X94865456Y-152510484D01*
X94814661Y-152462510D01*
X94797866Y-152394689D01*
X94820403Y-152328554D01*
X94865456Y-152289515D01*
X95021932Y-152209787D01*
X95182702Y-152092981D01*
X95323219Y-151952464D01*
X95440025Y-151791694D01*
X95530243Y-151614632D01*
X95591651Y-151425636D01*
X95622738Y-151229361D01*
X95622738Y-151030639D01*
X95591651Y-150834364D01*
X95530243Y-150645368D01*
X95530243Y-150645367D01*
X95440024Y-150468305D01*
X95323219Y-150307536D01*
X95182702Y-150167019D01*
X95021932Y-150050213D01*
X94865456Y-149970484D01*
X94814661Y-149922510D01*
X94797866Y-149854689D01*
X94820403Y-149788554D01*
X94865456Y-149749515D01*
X95021932Y-149669787D01*
X95182702Y-149552981D01*
X95323219Y-149412464D01*
X95440025Y-149251694D01*
X95440027Y-149251689D01*
X95441238Y-149249715D01*
X95441894Y-149249121D01*
X95442889Y-149247752D01*
X95443176Y-149247960D01*
X95493048Y-149202837D01*
X95546968Y-149190500D01*
X96179331Y-149190500D01*
X96179347Y-149190501D01*
X96186943Y-149190501D01*
X96345054Y-149190501D01*
X96345057Y-149190501D01*
X96497785Y-149149577D01*
X96497787Y-149149575D01*
X96497789Y-149149575D01*
X96497790Y-149149574D01*
X96548640Y-149120216D01*
X96548641Y-149120215D01*
X96634716Y-149070520D01*
X96746520Y-148958716D01*
X96746520Y-148958714D01*
X96756724Y-148948511D01*
X96756727Y-148948506D01*
X97077820Y-148627414D01*
X97139142Y-148593930D01*
X97208834Y-148598914D01*
X97264767Y-148640786D01*
X97289184Y-148706250D01*
X97289500Y-148715096D01*
X97289500Y-162905500D01*
X97269815Y-162972539D01*
X97217011Y-163018294D01*
X97165500Y-163029500D01*
X97076155Y-163029500D01*
X96921510Y-163060261D01*
X96921498Y-163060264D01*
X96775827Y-163120602D01*
X96775814Y-163120609D01*
X96644711Y-163208210D01*
X96644707Y-163208213D01*
X96533213Y-163319707D01*
X96533210Y-163319711D01*
X96445609Y-163450814D01*
X96445602Y-163450827D01*
X96385264Y-163596498D01*
X96385261Y-163596510D01*
X96354500Y-163751153D01*
X96354500Y-163908846D01*
X96385261Y-164063489D01*
X96385264Y-164063501D01*
X96445602Y-164209172D01*
X96445609Y-164209185D01*
X96533210Y-164340288D01*
X96533213Y-164340292D01*
X96644707Y-164451786D01*
X96644711Y-164451789D01*
X96775814Y-164539390D01*
X96775827Y-164539397D01*
X96921498Y-164599735D01*
X96921503Y-164599737D01*
X97020496Y-164619428D01*
X97076153Y-164630499D01*
X97076156Y-164630500D01*
X97165500Y-164630500D01*
X97174185Y-164633050D01*
X97183147Y-164631762D01*
X97207187Y-164642740D01*
X97232539Y-164650185D01*
X97238466Y-164657025D01*
X97246703Y-164660787D01*
X97260992Y-164683021D01*
X97278294Y-164702989D01*
X97280581Y-164713503D01*
X97284477Y-164719565D01*
X97289500Y-164754500D01*
X97289500Y-164841324D01*
X97269815Y-164908363D01*
X97253181Y-164929005D01*
X95968005Y-166214181D01*
X95906682Y-166247666D01*
X95880324Y-166250500D01*
X77220676Y-166250500D01*
X77153637Y-166230815D01*
X77132995Y-166214181D01*
X75847819Y-164929005D01*
X75814334Y-164867682D01*
X75811500Y-164841324D01*
X75811500Y-144968108D01*
X75810333Y-144963755D01*
X75810330Y-144963744D01*
X75777392Y-144840814D01*
X75711500Y-144726686D01*
X74475314Y-143490500D01*
X74403756Y-143449186D01*
X74361187Y-143424608D01*
X74297539Y-143407554D01*
X74233892Y-143390500D01*
X74233891Y-143390500D01*
X72071757Y-143390500D01*
X72004718Y-143370815D01*
X71958963Y-143318011D01*
X71949019Y-143248853D01*
X71978044Y-143185297D01*
X71998867Y-143166185D01*
X72097510Y-143094517D01*
X72264517Y-142927510D01*
X72403343Y-142736433D01*
X72510568Y-142525992D01*
X72583553Y-142301368D01*
X72588752Y-142268545D01*
X72620500Y-142068097D01*
X72620500Y-141831902D01*
X76119500Y-141831902D01*
X76119500Y-142068097D01*
X76156446Y-142301368D01*
X76229433Y-142525996D01*
X76290832Y-142646497D01*
X76336657Y-142736433D01*
X76475483Y-142927510D01*
X76642490Y-143094517D01*
X76833567Y-143233343D01*
X76923502Y-143279167D01*
X77044003Y-143340566D01*
X77044005Y-143340566D01*
X77044008Y-143340568D01*
X77164412Y-143379689D01*
X77268631Y-143413553D01*
X77501903Y-143450500D01*
X77501908Y-143450500D01*
X77738097Y-143450500D01*
X77971368Y-143413553D01*
X77974116Y-143412660D01*
X78195992Y-143340568D01*
X78406433Y-143233343D01*
X78597510Y-143094517D01*
X78764517Y-142927510D01*
X78903343Y-142736433D01*
X79010568Y-142525992D01*
X79083553Y-142301368D01*
X79088752Y-142268545D01*
X79120500Y-142068097D01*
X79120500Y-141831902D01*
X79083553Y-141598631D01*
X79010566Y-141374003D01*
X78933159Y-141222085D01*
X78903343Y-141163567D01*
X78764517Y-140972490D01*
X78597510Y-140805483D01*
X78406433Y-140666657D01*
X78398987Y-140662863D01*
X78195996Y-140559433D01*
X77971368Y-140486446D01*
X77738097Y-140449500D01*
X77738092Y-140449500D01*
X77501908Y-140449500D01*
X77501903Y-140449500D01*
X77268631Y-140486446D01*
X77044003Y-140559433D01*
X76833566Y-140666657D01*
X76766090Y-140715682D01*
X76642490Y-140805483D01*
X76642488Y-140805485D01*
X76642487Y-140805485D01*
X76475485Y-140972487D01*
X76475485Y-140972488D01*
X76475483Y-140972490D01*
X76445368Y-141013940D01*
X76336657Y-141163566D01*
X76229433Y-141374003D01*
X76156446Y-141598631D01*
X76119500Y-141831902D01*
X72620500Y-141831902D01*
X72583553Y-141598631D01*
X72510566Y-141374003D01*
X72433159Y-141222085D01*
X72403343Y-141163567D01*
X72264517Y-140972490D01*
X72097510Y-140805483D01*
X71906433Y-140666657D01*
X71898987Y-140662863D01*
X71695996Y-140559433D01*
X71471368Y-140486446D01*
X71238097Y-140449500D01*
X71238092Y-140449500D01*
X71001908Y-140449500D01*
X71001903Y-140449500D01*
X70768631Y-140486446D01*
X70544003Y-140559433D01*
X70333566Y-140666657D01*
X70266090Y-140715682D01*
X70142490Y-140805483D01*
X70142488Y-140805485D01*
X70142487Y-140805485D01*
X69975485Y-140972487D01*
X69975485Y-140972488D01*
X69975483Y-140972490D01*
X69945368Y-141013940D01*
X69836657Y-141163566D01*
X69729433Y-141374003D01*
X69656446Y-141598631D01*
X69619500Y-141831902D01*
X69619500Y-142068097D01*
X69656446Y-142301368D01*
X69729433Y-142525996D01*
X69790832Y-142646497D01*
X69836657Y-142736433D01*
X69975483Y-142927510D01*
X70142490Y-143094517D01*
X70241130Y-143166183D01*
X70283794Y-143221512D01*
X70289773Y-143291125D01*
X70257167Y-143352920D01*
X70196328Y-143387278D01*
X70168243Y-143390500D01*
X69346676Y-143390500D01*
X69279637Y-143370815D01*
X69258995Y-143354181D01*
X68989819Y-143085005D01*
X68956334Y-143023682D01*
X68953500Y-142997324D01*
X68953500Y-136432097D01*
X68973185Y-136365058D01*
X69025989Y-136319303D01*
X69095147Y-136309359D01*
X69158703Y-136338384D01*
G37*
%TD.AperFunction*%
%TA.AperFunction,Conductor*%
G36*
X88699843Y-78697017D02*
G01*
X88766847Y-78716821D01*
X88812508Y-78769706D01*
X88822328Y-78838882D01*
X88793190Y-78902386D01*
X88787303Y-78908698D01*
X88496032Y-79199968D01*
X88434709Y-79233453D01*
X88370033Y-79230218D01*
X88204775Y-79176523D01*
X88053135Y-79152505D01*
X88002590Y-79144500D01*
X87797886Y-79144500D01*
X87773567Y-79148351D01*
X87595703Y-79176522D01*
X87401014Y-79239781D01*
X87218624Y-79332715D01*
X87053024Y-79453028D01*
X86908266Y-79597786D01*
X86787953Y-79763386D01*
X86740723Y-79856080D01*
X86692748Y-79906876D01*
X86624927Y-79923671D01*
X86558792Y-79901134D01*
X86519753Y-79856080D01*
X86472657Y-79763650D01*
X86472525Y-79763390D01*
X86464794Y-79752749D01*
X86352209Y-79597786D01*
X86207451Y-79453028D01*
X86041851Y-79332715D01*
X86041850Y-79332714D01*
X86041848Y-79332713D01*
X85984891Y-79303691D01*
X85859461Y-79239781D01*
X85664772Y-79176522D01*
X85490233Y-79148878D01*
X85462590Y-79144500D01*
X85257886Y-79144500D01*
X85233567Y-79148351D01*
X85055703Y-79176522D01*
X84861014Y-79239781D01*
X84678624Y-79332715D01*
X84513024Y-79453028D01*
X84368266Y-79597786D01*
X84247951Y-79763388D01*
X84200441Y-79856630D01*
X84152466Y-79907426D01*
X84084645Y-79924220D01*
X84018510Y-79901682D01*
X83979472Y-79856628D01*
X83932099Y-79763652D01*
X83811820Y-79598105D01*
X83811820Y-79598104D01*
X83667133Y-79453417D01*
X83501587Y-79333140D01*
X83319267Y-79240244D01*
X83124651Y-79177009D01*
X83070238Y-79168390D01*
X83070238Y-80211988D01*
X83013231Y-80179075D01*
X82886064Y-80145000D01*
X82754412Y-80145000D01*
X82627245Y-80179075D01*
X82570238Y-80211988D01*
X82570238Y-79168390D01*
X82515824Y-79177009D01*
X82321208Y-79240244D01*
X82138888Y-79333140D01*
X81973343Y-79453417D01*
X81973342Y-79453417D01*
X81828655Y-79598104D01*
X81828655Y-79598105D01*
X81708378Y-79763650D01*
X81615482Y-79945968D01*
X81552247Y-80140582D01*
X81520238Y-80342682D01*
X81520238Y-80395000D01*
X82387226Y-80395000D01*
X82354313Y-80452007D01*
X82320238Y-80579174D01*
X82320238Y-80710826D01*
X82354313Y-80837993D01*
X82387226Y-80895000D01*
X81520238Y-80895000D01*
X81520238Y-80947317D01*
X81552247Y-81149417D01*
X81615482Y-81344031D01*
X81708378Y-81526349D01*
X81828655Y-81691894D01*
X81828655Y-81691895D01*
X81973342Y-81836582D01*
X82138888Y-81956859D01*
X82321206Y-82049754D01*
X82515816Y-82112988D01*
X82570238Y-82121607D01*
X82570238Y-81078012D01*
X82627245Y-81110925D01*
X82754412Y-81145000D01*
X82886064Y-81145000D01*
X83013231Y-81110925D01*
X83070238Y-81078012D01*
X83070238Y-82121606D01*
X83124659Y-82112988D01*
X83319269Y-82049754D01*
X83501587Y-81956859D01*
X83667132Y-81836582D01*
X83667133Y-81836582D01*
X83811820Y-81691895D01*
X83811820Y-81691894D01*
X83932099Y-81526347D01*
X83979472Y-81433371D01*
X84027446Y-81382575D01*
X84095266Y-81365779D01*
X84161402Y-81388316D01*
X84200441Y-81433369D01*
X84247951Y-81526611D01*
X84368266Y-81692213D01*
X84513024Y-81836971D01*
X84667987Y-81949556D01*
X84678628Y-81957287D01*
X84759737Y-81998614D01*
X84861014Y-82050218D01*
X84861016Y-82050218D01*
X84861019Y-82050220D01*
X84936056Y-82074601D01*
X85055703Y-82113477D01*
X85156795Y-82129488D01*
X85257886Y-82145500D01*
X85257887Y-82145500D01*
X85462589Y-82145500D01*
X85462590Y-82145500D01*
X85664772Y-82113477D01*
X85859457Y-82050220D01*
X86041848Y-81957287D01*
X86134828Y-81889732D01*
X86207451Y-81836971D01*
X86207453Y-81836968D01*
X86207457Y-81836966D01*
X86352204Y-81692219D01*
X86352206Y-81692215D01*
X86352209Y-81692213D01*
X86472522Y-81526614D01*
X86472524Y-81526611D01*
X86472525Y-81526610D01*
X86519754Y-81433917D01*
X86567727Y-81383123D01*
X86635548Y-81366328D01*
X86701683Y-81388865D01*
X86740723Y-81433919D01*
X86787953Y-81526614D01*
X86908266Y-81692213D01*
X87053024Y-81836971D01*
X87207987Y-81949556D01*
X87218628Y-81957287D01*
X87299737Y-81998614D01*
X87401014Y-82050218D01*
X87401016Y-82050218D01*
X87401019Y-82050220D01*
X87476056Y-82074601D01*
X87595703Y-82113477D01*
X87696795Y-82129488D01*
X87797886Y-82145500D01*
X87797887Y-82145500D01*
X88002589Y-82145500D01*
X88002590Y-82145500D01*
X88204772Y-82113477D01*
X88399457Y-82050220D01*
X88581848Y-81957287D01*
X88674828Y-81889732D01*
X88747451Y-81836971D01*
X88747453Y-81836968D01*
X88747457Y-81836966D01*
X88892204Y-81692219D01*
X88892206Y-81692215D01*
X88892209Y-81692213D01*
X89012522Y-81526614D01*
X89012524Y-81526611D01*
X89012525Y-81526610D01*
X89059754Y-81433917D01*
X89107727Y-81383123D01*
X89175548Y-81366328D01*
X89241683Y-81388865D01*
X89280723Y-81433919D01*
X89327953Y-81526614D01*
X89448266Y-81692213D01*
X89448272Y-81692219D01*
X89593019Y-81836966D01*
X89758628Y-81957287D01*
X89772031Y-81964116D01*
X89822827Y-82012088D01*
X89839738Y-82074601D01*
X89839738Y-82487664D01*
X89820053Y-82554703D01*
X89803419Y-82575345D01*
X86318719Y-86060044D01*
X86318717Y-86060047D01*
X86268599Y-86146856D01*
X86268597Y-86146858D01*
X86239663Y-86196971D01*
X86239662Y-86196972D01*
X86239661Y-86196977D01*
X86198737Y-86349705D01*
X86198737Y-86349707D01*
X86198737Y-86517808D01*
X86198738Y-86517821D01*
X86198738Y-125828568D01*
X86198737Y-125828586D01*
X86198737Y-125994292D01*
X86198736Y-125994292D01*
X86239661Y-126147023D01*
X86250886Y-126166464D01*
X86267500Y-126228466D01*
X86267500Y-144200234D01*
X86247815Y-144267273D01*
X86246602Y-144269125D01*
X86158609Y-144400814D01*
X86158602Y-144400827D01*
X86098264Y-144546498D01*
X86098261Y-144546508D01*
X86067361Y-144701850D01*
X86034976Y-144763761D01*
X86033425Y-144765339D01*
X84863481Y-145935282D01*
X84863481Y-145935283D01*
X84863480Y-145935284D01*
X84821761Y-146007544D01*
X84784423Y-146072215D01*
X84743499Y-146224943D01*
X84743499Y-146224945D01*
X84743499Y-146393046D01*
X84743500Y-146393059D01*
X84743500Y-150804234D01*
X84723815Y-150871273D01*
X84722602Y-150873125D01*
X84634609Y-151004814D01*
X84634602Y-151004827D01*
X84574264Y-151150498D01*
X84574261Y-151150510D01*
X84543500Y-151305153D01*
X84543500Y-151462846D01*
X84574261Y-151617489D01*
X84574264Y-151617501D01*
X84634602Y-151763172D01*
X84634609Y-151763185D01*
X84722210Y-151894288D01*
X84722213Y-151894292D01*
X84833707Y-152005786D01*
X84833711Y-152005789D01*
X84964814Y-152093390D01*
X84964827Y-152093397D01*
X85110498Y-152153735D01*
X85110503Y-152153737D01*
X85265153Y-152184499D01*
X85265156Y-152184500D01*
X85265158Y-152184500D01*
X85422844Y-152184500D01*
X85422845Y-152184499D01*
X85577497Y-152153737D01*
X85723179Y-152093394D01*
X85854289Y-152005789D01*
X85965789Y-151894289D01*
X86053394Y-151763179D01*
X86113737Y-151617497D01*
X86144500Y-151462842D01*
X86144500Y-151305158D01*
X86144500Y-151305155D01*
X86144499Y-151305153D01*
X86117317Y-151168500D01*
X86113737Y-151150503D01*
X86103545Y-151125896D01*
X86053397Y-151004827D01*
X86053390Y-151004814D01*
X85965398Y-150873125D01*
X85944520Y-150806447D01*
X85944500Y-150804234D01*
X85944500Y-146604097D01*
X85964185Y-146537058D01*
X85980819Y-146516416D01*
X86425022Y-146072213D01*
X86882662Y-145614572D01*
X86943983Y-145581089D01*
X86946150Y-145580638D01*
X87004085Y-145569113D01*
X87101497Y-145549737D01*
X87247179Y-145489394D01*
X87378289Y-145401789D01*
X87489789Y-145290289D01*
X87577394Y-145159179D01*
X87637737Y-145013497D01*
X87668500Y-144858842D01*
X87668500Y-144701158D01*
X87668500Y-144701155D01*
X87668499Y-144701153D01*
X87659522Y-144656023D01*
X87637737Y-144546503D01*
X87632991Y-144535044D01*
X87577397Y-144400827D01*
X87577390Y-144400814D01*
X87489398Y-144269125D01*
X87468520Y-144202447D01*
X87468500Y-144200234D01*
X87468500Y-125904945D01*
X87468500Y-125904943D01*
X87442494Y-125807888D01*
X87427577Y-125752215D01*
X87411007Y-125723515D01*
X87407325Y-125713478D01*
X87406061Y-125694370D01*
X87399738Y-125670770D01*
X87399738Y-116431902D01*
X88819500Y-116431902D01*
X88819500Y-116668097D01*
X88856446Y-116901368D01*
X88929433Y-117125996D01*
X89015989Y-117295870D01*
X89036657Y-117336433D01*
X89175483Y-117527510D01*
X89342490Y-117694517D01*
X89533567Y-117833343D01*
X89620422Y-117877598D01*
X89744003Y-117940566D01*
X89744005Y-117940566D01*
X89744008Y-117940568D01*
X89796221Y-117957533D01*
X89968631Y-118013553D01*
X90201903Y-118050500D01*
X90201908Y-118050500D01*
X90438097Y-118050500D01*
X90671368Y-118013553D01*
X90705225Y-118002552D01*
X90895992Y-117940568D01*
X91106433Y-117833343D01*
X91297510Y-117694517D01*
X91464517Y-117527510D01*
X91603343Y-117336433D01*
X91710568Y-117125992D01*
X91783553Y-116901368D01*
X91786922Y-116880098D01*
X91820500Y-116668097D01*
X91820500Y-116431902D01*
X91783553Y-116198631D01*
X91729325Y-116031735D01*
X91710568Y-115974008D01*
X91710566Y-115974005D01*
X91710566Y-115974003D01*
X91654002Y-115862991D01*
X91603343Y-115763567D01*
X91464517Y-115572490D01*
X91297510Y-115405483D01*
X91106433Y-115266657D01*
X90895996Y-115159433D01*
X90671368Y-115086446D01*
X90438097Y-115049500D01*
X90438092Y-115049500D01*
X90201908Y-115049500D01*
X90201903Y-115049500D01*
X89968631Y-115086446D01*
X89744003Y-115159433D01*
X89533566Y-115266657D01*
X89454791Y-115323891D01*
X89342490Y-115405483D01*
X89342488Y-115405485D01*
X89342487Y-115405485D01*
X89175485Y-115572487D01*
X89175485Y-115572488D01*
X89175483Y-115572490D01*
X89167949Y-115582860D01*
X89036657Y-115763566D01*
X88929433Y-115974003D01*
X88856446Y-116198631D01*
X88819500Y-116431902D01*
X87399738Y-116431902D01*
X87399738Y-111931902D01*
X88819500Y-111931902D01*
X88819500Y-112168097D01*
X88856446Y-112401368D01*
X88929433Y-112625996D01*
X89027897Y-112819240D01*
X89036657Y-112836433D01*
X89175483Y-113027510D01*
X89342490Y-113194517D01*
X89533567Y-113333343D01*
X89632991Y-113384002D01*
X89744003Y-113440566D01*
X89744005Y-113440566D01*
X89744008Y-113440568D01*
X89832476Y-113469313D01*
X89968631Y-113513553D01*
X90201903Y-113550500D01*
X90201908Y-113550500D01*
X90438097Y-113550500D01*
X90671368Y-113513553D01*
X90704468Y-113502798D01*
X90895992Y-113440568D01*
X91106433Y-113333343D01*
X91297510Y-113194517D01*
X91464517Y-113027510D01*
X91603343Y-112836433D01*
X91710568Y-112625992D01*
X91783553Y-112401368D01*
X91802640Y-112280858D01*
X91820500Y-112168097D01*
X91820500Y-111931902D01*
X91783553Y-111698631D01*
X91748674Y-111591287D01*
X91710568Y-111474008D01*
X91710566Y-111474005D01*
X91710566Y-111474003D01*
X91615824Y-111288063D01*
X91603343Y-111263567D01*
X91464517Y-111072490D01*
X91297510Y-110905483D01*
X91106433Y-110766657D01*
X91075993Y-110751147D01*
X90895996Y-110659433D01*
X90671368Y-110586446D01*
X90438097Y-110549500D01*
X90438092Y-110549500D01*
X90201908Y-110549500D01*
X90201903Y-110549500D01*
X89968631Y-110586446D01*
X89744003Y-110659433D01*
X89533566Y-110766657D01*
X89454209Y-110824314D01*
X89342490Y-110905483D01*
X89342488Y-110905485D01*
X89342487Y-110905485D01*
X89175485Y-111072487D01*
X89175485Y-111072488D01*
X89175483Y-111072490D01*
X89149559Y-111108171D01*
X89036657Y-111263566D01*
X88929433Y-111474003D01*
X88856446Y-111698631D01*
X88819500Y-111931902D01*
X87399738Y-111931902D01*
X87399738Y-86728859D01*
X87419423Y-86661820D01*
X87436057Y-86641178D01*
X88128995Y-85948240D01*
X90920758Y-83156478D01*
X90999815Y-83019546D01*
X91040739Y-82866819D01*
X91040739Y-82708704D01*
X91040739Y-82701109D01*
X91040738Y-82701091D01*
X91040738Y-82074601D01*
X91060423Y-82007562D01*
X91108444Y-81964116D01*
X91121848Y-81957287D01*
X91287457Y-81836966D01*
X91432204Y-81692219D01*
X91432206Y-81692215D01*
X91432209Y-81692213D01*
X91484970Y-81619590D01*
X91552525Y-81526610D01*
X91645458Y-81344219D01*
X91708715Y-81149534D01*
X91740738Y-80947352D01*
X91740738Y-80697335D01*
X91760423Y-80630296D01*
X91813227Y-80584541D01*
X91882385Y-80574597D01*
X91945941Y-80603622D01*
X91952419Y-80609654D01*
X92220181Y-80877416D01*
X92253666Y-80938739D01*
X92256500Y-80965097D01*
X92256500Y-125537903D01*
X92236815Y-125604942D01*
X92184011Y-125650697D01*
X92114853Y-125660641D01*
X92051297Y-125631616D01*
X92044819Y-125625584D01*
X91772798Y-125353563D01*
X91739313Y-125292240D01*
X91742547Y-125227566D01*
X91783553Y-125101368D01*
X91813093Y-124914861D01*
X91820500Y-124868097D01*
X91820500Y-124631902D01*
X91783553Y-124398631D01*
X91719856Y-124202593D01*
X91710568Y-124174008D01*
X91710566Y-124174005D01*
X91710566Y-124174003D01*
X91603342Y-123963566D01*
X91464517Y-123772490D01*
X91297510Y-123605483D01*
X91106433Y-123466657D01*
X90895996Y-123359433D01*
X90671368Y-123286446D01*
X90438097Y-123249500D01*
X90438092Y-123249500D01*
X90201908Y-123249500D01*
X90201903Y-123249500D01*
X89968631Y-123286446D01*
X89744003Y-123359433D01*
X89533566Y-123466657D01*
X89474728Y-123509406D01*
X89342490Y-123605483D01*
X89342488Y-123605485D01*
X89342487Y-123605485D01*
X89175485Y-123772487D01*
X89175485Y-123772488D01*
X89175483Y-123772490D01*
X89115862Y-123854550D01*
X89036657Y-123963566D01*
X88929433Y-124174003D01*
X88856446Y-124398631D01*
X88819500Y-124631902D01*
X88819500Y-124868097D01*
X88856446Y-125101368D01*
X88929433Y-125325996D01*
X89011469Y-125486999D01*
X89036657Y-125536433D01*
X89175483Y-125727510D01*
X89342490Y-125894517D01*
X89533567Y-126033343D01*
X89565974Y-126049855D01*
X89744003Y-126140566D01*
X89744005Y-126140566D01*
X89744008Y-126140568D01*
X89832476Y-126169313D01*
X89968631Y-126213553D01*
X90201903Y-126250500D01*
X90201908Y-126250500D01*
X90438097Y-126250500D01*
X90544126Y-126233705D01*
X90671368Y-126213553D01*
X90797566Y-126172547D01*
X90867404Y-126170553D01*
X90923563Y-126202798D01*
X91819181Y-127098416D01*
X91852666Y-127159739D01*
X91855500Y-127186097D01*
X91855500Y-128441955D01*
X91835815Y-128508994D01*
X91783011Y-128554749D01*
X91713853Y-128564693D01*
X91650297Y-128535668D01*
X91621016Y-128498250D01*
X91603346Y-128463571D01*
X91552701Y-128393865D01*
X91464517Y-128272490D01*
X91297510Y-128105483D01*
X91106433Y-127966657D01*
X91101256Y-127964019D01*
X90895996Y-127859433D01*
X90671368Y-127786446D01*
X90438097Y-127749500D01*
X90438092Y-127749500D01*
X90201908Y-127749500D01*
X90201903Y-127749500D01*
X89968631Y-127786446D01*
X89744003Y-127859433D01*
X89533566Y-127966657D01*
X89426606Y-128044369D01*
X89342490Y-128105483D01*
X89342488Y-128105485D01*
X89342487Y-128105485D01*
X89175485Y-128272487D01*
X89175485Y-128272488D01*
X89175483Y-128272490D01*
X89118002Y-128351605D01*
X89036657Y-128463566D01*
X88929433Y-128674003D01*
X88856446Y-128898631D01*
X88819500Y-129131902D01*
X88819500Y-129368097D01*
X88856446Y-129601368D01*
X88929433Y-129825996D01*
X88996028Y-129956695D01*
X89036657Y-130036433D01*
X89175483Y-130227510D01*
X89342490Y-130394517D01*
X89533567Y-130533343D01*
X89632991Y-130584002D01*
X89744003Y-130640566D01*
X89744005Y-130640566D01*
X89744008Y-130640568D01*
X89838234Y-130671184D01*
X89968631Y-130713553D01*
X90201903Y-130750500D01*
X90201908Y-130750500D01*
X90438097Y-130750500D01*
X90671368Y-130713553D01*
X90673815Y-130712758D01*
X90895992Y-130640568D01*
X91106433Y-130533343D01*
X91297510Y-130394517D01*
X91464517Y-130227510D01*
X91603343Y-130036433D01*
X91621015Y-130001750D01*
X91668989Y-129950953D01*
X91736810Y-129934158D01*
X91802945Y-129956695D01*
X91846397Y-130011410D01*
X91855500Y-130058044D01*
X91855500Y-135013902D01*
X91835815Y-135080941D01*
X91819181Y-135101583D01*
X90923563Y-135997200D01*
X90862240Y-136030685D01*
X90797564Y-136027450D01*
X90671370Y-135986447D01*
X90438097Y-135949500D01*
X90438092Y-135949500D01*
X90201908Y-135949500D01*
X90201903Y-135949500D01*
X89968631Y-135986446D01*
X89744003Y-136059433D01*
X89533566Y-136166657D01*
X89460151Y-136219997D01*
X89342490Y-136305483D01*
X89342488Y-136305485D01*
X89342487Y-136305485D01*
X89175485Y-136472487D01*
X89175485Y-136472488D01*
X89175483Y-136472490D01*
X89125758Y-136540930D01*
X89036657Y-136663566D01*
X88929433Y-136874003D01*
X88856446Y-137098631D01*
X88819500Y-137331902D01*
X88819500Y-137568097D01*
X88856446Y-137801368D01*
X88929433Y-138025996D01*
X88988412Y-138141747D01*
X89036657Y-138236433D01*
X89175483Y-138427510D01*
X89342490Y-138594517D01*
X89533567Y-138733343D01*
X89631672Y-138783330D01*
X89744003Y-138840566D01*
X89744005Y-138840566D01*
X89744008Y-138840568D01*
X89864412Y-138879689D01*
X89968631Y-138913553D01*
X90201903Y-138950500D01*
X90201908Y-138950500D01*
X90438097Y-138950500D01*
X90671368Y-138913553D01*
X90895992Y-138840568D01*
X91106433Y-138733343D01*
X91297510Y-138594517D01*
X91464517Y-138427510D01*
X91603343Y-138236433D01*
X91710568Y-138025992D01*
X91783553Y-137801368D01*
X91785721Y-137787680D01*
X91820500Y-137568097D01*
X91820500Y-137331902D01*
X91791418Y-137148290D01*
X91783553Y-137098632D01*
X91742547Y-136972433D01*
X91740553Y-136902593D01*
X91772796Y-136846437D01*
X92044820Y-136574414D01*
X92106142Y-136540930D01*
X92175834Y-136545914D01*
X92231767Y-136587786D01*
X92256184Y-136653250D01*
X92256500Y-136662096D01*
X92256500Y-141987802D01*
X92236815Y-142054841D01*
X92220181Y-142075483D01*
X92013747Y-142281916D01*
X91952424Y-142315401D01*
X91882732Y-142310417D01*
X91826799Y-142268545D01*
X91802382Y-142203081D01*
X91803592Y-142174840D01*
X91811399Y-142125552D01*
X91820500Y-142068096D01*
X91820500Y-141831902D01*
X91783553Y-141598631D01*
X91710566Y-141374003D01*
X91633159Y-141222085D01*
X91603343Y-141163567D01*
X91464517Y-140972490D01*
X91297510Y-140805483D01*
X91106433Y-140666657D01*
X91098987Y-140662863D01*
X90895996Y-140559433D01*
X90671368Y-140486446D01*
X90438097Y-140449500D01*
X90438092Y-140449500D01*
X90201908Y-140449500D01*
X90201903Y-140449500D01*
X89968631Y-140486446D01*
X89744003Y-140559433D01*
X89533566Y-140666657D01*
X89466090Y-140715682D01*
X89342490Y-140805483D01*
X89342488Y-140805485D01*
X89342487Y-140805485D01*
X89175485Y-140972487D01*
X89175485Y-140972488D01*
X89175483Y-140972490D01*
X89145368Y-141013940D01*
X89036657Y-141163566D01*
X88929433Y-141374003D01*
X88856446Y-141598631D01*
X88819500Y-141831902D01*
X88819500Y-142068097D01*
X88856446Y-142301368D01*
X88929433Y-142525996D01*
X88990832Y-142646497D01*
X89036657Y-142736433D01*
X89175483Y-142927510D01*
X89342490Y-143094517D01*
X89533567Y-143233343D01*
X89623502Y-143279167D01*
X89744003Y-143340566D01*
X89744005Y-143340566D01*
X89744008Y-143340568D01*
X89864412Y-143379689D01*
X89968631Y-143413553D01*
X90201903Y-143450500D01*
X90201908Y-143450500D01*
X90438096Y-143450500D01*
X90495552Y-143441399D01*
X90544837Y-143433593D01*
X90614129Y-143442547D01*
X90667582Y-143487543D01*
X90688222Y-143554294D01*
X90669498Y-143621608D01*
X90651916Y-143643747D01*
X88531286Y-145764378D01*
X88419481Y-145876182D01*
X88419479Y-145876184D01*
X88395496Y-145917725D01*
X88385359Y-145935284D01*
X88340423Y-146013115D01*
X88299499Y-146165843D01*
X88299499Y-146165845D01*
X88299499Y-146333946D01*
X88299500Y-146333959D01*
X88299500Y-149265330D01*
X88299499Y-149265348D01*
X88299499Y-149431054D01*
X88299498Y-149431054D01*
X88340423Y-149583785D01*
X88348782Y-149598263D01*
X88419477Y-149720712D01*
X88419481Y-149720717D01*
X88538349Y-149839585D01*
X88538355Y-149839590D01*
X89081425Y-150382660D01*
X89114910Y-150443983D01*
X89115361Y-150446149D01*
X89146261Y-150601491D01*
X89146264Y-150601501D01*
X89206602Y-150747172D01*
X89206609Y-150747185D01*
X89294210Y-150878288D01*
X89294213Y-150878292D01*
X89405707Y-150989786D01*
X89405711Y-150989789D01*
X89536814Y-151077390D01*
X89536827Y-151077397D01*
X89653916Y-151125896D01*
X89682503Y-151137737D01*
X89780189Y-151157168D01*
X89837153Y-151168499D01*
X89837156Y-151168500D01*
X89837158Y-151168500D01*
X89994844Y-151168500D01*
X89994845Y-151168499D01*
X90149497Y-151137737D01*
X90160045Y-151133367D01*
X90229511Y-151125896D01*
X90291992Y-151157168D01*
X90327647Y-151217256D01*
X90331500Y-151247927D01*
X90331500Y-152695092D01*
X90331499Y-152695110D01*
X90331499Y-152860816D01*
X90331498Y-152860816D01*
X90372423Y-153013547D01*
X90401358Y-153063662D01*
X90401359Y-153063666D01*
X90401360Y-153063666D01*
X90451479Y-153150476D01*
X90451481Y-153150479D01*
X90570349Y-153269347D01*
X90570355Y-153269352D01*
X91909822Y-154608819D01*
X91943307Y-154670142D01*
X91938323Y-154739834D01*
X91896451Y-154795767D01*
X91830987Y-154820184D01*
X91822141Y-154820500D01*
X89333683Y-154820500D01*
X89187927Y-154849493D01*
X89187919Y-154849495D01*
X89050608Y-154906371D01*
X88927035Y-154988939D01*
X88927028Y-154988945D01*
X88821945Y-155094028D01*
X88821939Y-155094035D01*
X88739371Y-155217608D01*
X88682495Y-155354919D01*
X88682493Y-155354927D01*
X88653500Y-155500683D01*
X88653500Y-157100903D01*
X88633815Y-157167942D01*
X88581011Y-157213697D01*
X88511853Y-157223641D01*
X88448297Y-157194616D01*
X88441819Y-157188584D01*
X82424819Y-151171584D01*
X82391334Y-151110261D01*
X82388500Y-151083903D01*
X82388500Y-142914144D01*
X82408185Y-142847105D01*
X82460989Y-142801350D01*
X82530147Y-142791406D01*
X82593703Y-142820431D01*
X82612816Y-142841257D01*
X82675483Y-142927510D01*
X82842490Y-143094517D01*
X83033567Y-143233343D01*
X83123502Y-143279167D01*
X83244003Y-143340566D01*
X83244005Y-143340566D01*
X83244008Y-143340568D01*
X83364412Y-143379689D01*
X83468631Y-143413553D01*
X83701903Y-143450500D01*
X83701908Y-143450500D01*
X83938097Y-143450500D01*
X84171368Y-143413553D01*
X84174116Y-143412660D01*
X84395992Y-143340568D01*
X84606433Y-143233343D01*
X84797510Y-143094517D01*
X84964517Y-142927510D01*
X85103343Y-142736433D01*
X85210568Y-142525992D01*
X85283553Y-142301368D01*
X85288752Y-142268545D01*
X85320500Y-142068097D01*
X85320500Y-141831902D01*
X85283553Y-141598631D01*
X85210566Y-141374003D01*
X85133159Y-141222085D01*
X85103343Y-141163567D01*
X84964517Y-140972490D01*
X84797510Y-140805483D01*
X84606433Y-140666657D01*
X84598987Y-140662863D01*
X84395996Y-140559433D01*
X84171368Y-140486446D01*
X83938097Y-140449500D01*
X83938092Y-140449500D01*
X83701908Y-140449500D01*
X83701903Y-140449500D01*
X83468631Y-140486446D01*
X83244003Y-140559433D01*
X83033566Y-140666657D01*
X82966090Y-140715682D01*
X82842490Y-140805483D01*
X82842488Y-140805485D01*
X82842487Y-140805485D01*
X82675485Y-140972487D01*
X82675485Y-140972488D01*
X82675483Y-140972490D01*
X82645368Y-141013940D01*
X82612818Y-141058741D01*
X82557488Y-141101406D01*
X82487874Y-141107385D01*
X82426079Y-141074779D01*
X82391722Y-141013940D01*
X82388500Y-140985855D01*
X82388500Y-139782096D01*
X82408185Y-139715057D01*
X82424815Y-139694419D01*
X83216437Y-138902796D01*
X83277758Y-138869313D01*
X83342433Y-138872547D01*
X83468632Y-138913553D01*
X83556110Y-138927408D01*
X83701903Y-138950500D01*
X83701908Y-138950500D01*
X83938097Y-138950500D01*
X84171368Y-138913553D01*
X84395992Y-138840568D01*
X84606433Y-138733343D01*
X84797510Y-138594517D01*
X84964517Y-138427510D01*
X85103343Y-138236433D01*
X85210568Y-138025992D01*
X85283553Y-137801368D01*
X85285721Y-137787680D01*
X85320500Y-137568097D01*
X85320500Y-137331902D01*
X85283553Y-137098631D01*
X85219856Y-136902593D01*
X85210568Y-136874008D01*
X85210566Y-136874005D01*
X85210566Y-136874003D01*
X85103342Y-136663566D01*
X85080527Y-136632164D01*
X84964517Y-136472490D01*
X84797510Y-136305483D01*
X84606433Y-136166657D01*
X84395996Y-136059433D01*
X84171368Y-135986446D01*
X83938097Y-135949500D01*
X83938092Y-135949500D01*
X83701908Y-135949500D01*
X83701903Y-135949500D01*
X83468631Y-135986446D01*
X83244003Y-136059433D01*
X83033566Y-136166657D01*
X82960151Y-136219997D01*
X82842490Y-136305483D01*
X82842488Y-136305485D01*
X82842487Y-136305485D01*
X82675485Y-136472487D01*
X82675485Y-136472488D01*
X82675483Y-136472490D01*
X82625758Y-136540930D01*
X82536657Y-136663566D01*
X82429433Y-136874003D01*
X82356446Y-137098631D01*
X82319500Y-137331902D01*
X82319500Y-137568097D01*
X82356447Y-137801369D01*
X82356447Y-137801372D01*
X82397450Y-137927564D01*
X82399445Y-137997405D01*
X82367200Y-138053563D01*
X81422706Y-138998057D01*
X81422700Y-138998063D01*
X81419286Y-139001478D01*
X81419284Y-139001480D01*
X81307480Y-139113284D01*
X81278499Y-139163481D01*
X81272785Y-139173377D01*
X81272784Y-139173379D01*
X81228424Y-139250213D01*
X81228423Y-139250215D01*
X81187499Y-139402943D01*
X81187499Y-139402945D01*
X81187499Y-139571046D01*
X81187500Y-139571059D01*
X81187500Y-139868903D01*
X81167815Y-139935942D01*
X81115011Y-139981697D01*
X81045853Y-139991641D01*
X80982297Y-139962616D01*
X80975819Y-139956584D01*
X79072798Y-138053563D01*
X79039313Y-137992240D01*
X79042547Y-137927566D01*
X79083553Y-137801368D01*
X79104994Y-137665993D01*
X79120500Y-137568097D01*
X79120500Y-137331902D01*
X79083553Y-137098631D01*
X79019856Y-136902593D01*
X79010568Y-136874008D01*
X79010566Y-136874005D01*
X79010566Y-136874003D01*
X78903342Y-136663566D01*
X78880527Y-136632164D01*
X78764517Y-136472490D01*
X78597510Y-136305483D01*
X78406433Y-136166657D01*
X78195996Y-136059433D01*
X77971368Y-135986446D01*
X77738097Y-135949500D01*
X77738092Y-135949500D01*
X77501908Y-135949500D01*
X77501903Y-135949500D01*
X77268631Y-135986446D01*
X77044003Y-136059433D01*
X76833566Y-136166657D01*
X76760151Y-136219997D01*
X76642490Y-136305483D01*
X76642488Y-136305485D01*
X76642487Y-136305485D01*
X76475485Y-136472487D01*
X76475485Y-136472488D01*
X76475483Y-136472490D01*
X76425758Y-136540930D01*
X76336657Y-136663566D01*
X76276417Y-136781795D01*
X76228442Y-136832591D01*
X76165932Y-136849500D01*
X72574068Y-136849500D01*
X72507029Y-136829815D01*
X72463583Y-136781795D01*
X72403342Y-136663566D01*
X72380527Y-136632164D01*
X72264517Y-136472490D01*
X72097510Y-136305483D01*
X71906433Y-136166657D01*
X71695996Y-136059433D01*
X71471368Y-135986446D01*
X71238097Y-135949500D01*
X71238092Y-135949500D01*
X71001908Y-135949500D01*
X71001903Y-135949500D01*
X70768628Y-135986447D01*
X70642433Y-136027450D01*
X70572592Y-136029445D01*
X70516435Y-135997200D01*
X69724819Y-135205584D01*
X69691334Y-135144261D01*
X69688500Y-135117903D01*
X69688500Y-130214144D01*
X69708185Y-130147105D01*
X69760989Y-130101350D01*
X69830147Y-130091406D01*
X69893703Y-130120431D01*
X69912816Y-130141257D01*
X69975483Y-130227510D01*
X70142490Y-130394517D01*
X70333567Y-130533343D01*
X70432991Y-130584002D01*
X70544003Y-130640566D01*
X70544005Y-130640566D01*
X70544008Y-130640568D01*
X70638234Y-130671184D01*
X70768631Y-130713553D01*
X71001903Y-130750500D01*
X71001908Y-130750500D01*
X71238097Y-130750500D01*
X71471368Y-130713553D01*
X71473815Y-130712758D01*
X71695992Y-130640568D01*
X71906433Y-130533343D01*
X72097510Y-130394517D01*
X72264517Y-130227510D01*
X72403343Y-130036433D01*
X72510568Y-129825992D01*
X72583553Y-129601368D01*
X72591453Y-129551492D01*
X72620500Y-129368097D01*
X72620500Y-129131902D01*
X76119500Y-129131902D01*
X76119500Y-129368097D01*
X76156446Y-129601368D01*
X76229433Y-129825996D01*
X76296028Y-129956695D01*
X76336657Y-130036433D01*
X76475483Y-130227510D01*
X76642490Y-130394517D01*
X76833567Y-130533343D01*
X76932991Y-130584002D01*
X77044003Y-130640566D01*
X77044005Y-130640566D01*
X77044008Y-130640568D01*
X77138234Y-130671184D01*
X77268631Y-130713553D01*
X77501903Y-130750500D01*
X77501908Y-130750500D01*
X77738097Y-130750500D01*
X77971368Y-130713553D01*
X77973815Y-130712758D01*
X78195992Y-130640568D01*
X78406433Y-130533343D01*
X78597510Y-130394517D01*
X78764517Y-130227510D01*
X78903343Y-130036433D01*
X79010568Y-129825992D01*
X79083553Y-129601368D01*
X79091453Y-129551492D01*
X79120500Y-129368097D01*
X79120500Y-129131902D01*
X82319500Y-129131902D01*
X82319500Y-129368097D01*
X82356446Y-129601368D01*
X82429433Y-129825996D01*
X82496028Y-129956695D01*
X82536657Y-130036433D01*
X82675483Y-130227510D01*
X82842490Y-130394517D01*
X83033567Y-130533343D01*
X83132991Y-130584002D01*
X83244003Y-130640566D01*
X83244005Y-130640566D01*
X83244008Y-130640568D01*
X83338234Y-130671184D01*
X83468631Y-130713553D01*
X83701903Y-130750500D01*
X83701908Y-130750500D01*
X83938097Y-130750500D01*
X84171368Y-130713553D01*
X84173815Y-130712758D01*
X84395992Y-130640568D01*
X84606433Y-130533343D01*
X84797510Y-130394517D01*
X84964517Y-130227510D01*
X85103343Y-130036433D01*
X85210568Y-129825992D01*
X85283553Y-129601368D01*
X85291453Y-129551492D01*
X85320500Y-129368097D01*
X85320500Y-129131902D01*
X85283553Y-128898631D01*
X85216523Y-128692335D01*
X85210568Y-128674008D01*
X85210566Y-128674005D01*
X85210566Y-128674003D01*
X85151195Y-128557482D01*
X85103343Y-128463567D01*
X84964517Y-128272490D01*
X84797510Y-128105483D01*
X84606433Y-127966657D01*
X84601256Y-127964019D01*
X84395996Y-127859433D01*
X84171368Y-127786446D01*
X83938097Y-127749500D01*
X83938092Y-127749500D01*
X83701908Y-127749500D01*
X83701903Y-127749500D01*
X83468631Y-127786446D01*
X83244003Y-127859433D01*
X83033566Y-127966657D01*
X82926606Y-128044369D01*
X82842490Y-128105483D01*
X82842488Y-128105485D01*
X82842487Y-128105485D01*
X82675485Y-128272487D01*
X82675485Y-128272488D01*
X82675483Y-128272490D01*
X82618002Y-128351605D01*
X82536657Y-128463566D01*
X82429433Y-128674003D01*
X82356446Y-128898631D01*
X82319500Y-129131902D01*
X79120500Y-129131902D01*
X79083553Y-128898631D01*
X79016523Y-128692335D01*
X79010568Y-128674008D01*
X79010566Y-128674005D01*
X79010566Y-128674003D01*
X78951195Y-128557482D01*
X78903343Y-128463567D01*
X78764517Y-128272490D01*
X78597510Y-128105483D01*
X78406433Y-127966657D01*
X78401256Y-127964019D01*
X78195996Y-127859433D01*
X77971368Y-127786446D01*
X77738097Y-127749500D01*
X77738092Y-127749500D01*
X77501908Y-127749500D01*
X77501903Y-127749500D01*
X77268631Y-127786446D01*
X77044003Y-127859433D01*
X76833566Y-127966657D01*
X76726606Y-128044369D01*
X76642490Y-128105483D01*
X76642488Y-128105485D01*
X76642487Y-128105485D01*
X76475485Y-128272487D01*
X76475485Y-128272488D01*
X76475483Y-128272490D01*
X76418002Y-128351605D01*
X76336657Y-128463566D01*
X76229433Y-128674003D01*
X76156446Y-128898631D01*
X76119500Y-129131902D01*
X72620500Y-129131902D01*
X72583553Y-128898631D01*
X72516523Y-128692335D01*
X72510568Y-128674008D01*
X72510566Y-128674005D01*
X72510566Y-128674003D01*
X72451195Y-128557482D01*
X72403343Y-128463567D01*
X72264517Y-128272490D01*
X72097510Y-128105483D01*
X71906433Y-127966657D01*
X71901256Y-127964019D01*
X71695996Y-127859433D01*
X71471368Y-127786446D01*
X71238097Y-127749500D01*
X71238092Y-127749500D01*
X71001908Y-127749500D01*
X71001903Y-127749500D01*
X70768631Y-127786446D01*
X70544003Y-127859433D01*
X70333566Y-127966657D01*
X70226606Y-128044369D01*
X70142490Y-128105483D01*
X70142488Y-128105485D01*
X70142487Y-128105485D01*
X69975485Y-128272487D01*
X69975485Y-128272488D01*
X69975483Y-128272490D01*
X69915536Y-128355000D01*
X69912818Y-128358741D01*
X69857488Y-128401406D01*
X69787874Y-128407385D01*
X69726079Y-128374779D01*
X69691722Y-128313940D01*
X69688500Y-128285855D01*
X69688500Y-127082096D01*
X69708185Y-127015057D01*
X69724815Y-126994419D01*
X70516437Y-126202796D01*
X70577758Y-126169313D01*
X70642433Y-126172547D01*
X70768632Y-126213553D01*
X70856110Y-126227408D01*
X71001903Y-126250500D01*
X71001908Y-126250500D01*
X71238097Y-126250500D01*
X71471368Y-126213553D01*
X71527726Y-126195241D01*
X71695992Y-126140568D01*
X71906433Y-126033343D01*
X72097510Y-125894517D01*
X72264517Y-125727510D01*
X72403343Y-125536433D01*
X72463583Y-125418204D01*
X72511558Y-125367409D01*
X72574068Y-125350500D01*
X76165932Y-125350500D01*
X76232971Y-125370185D01*
X76276416Y-125418203D01*
X76336657Y-125536433D01*
X76475483Y-125727510D01*
X76642490Y-125894517D01*
X76833567Y-126033343D01*
X76865974Y-126049855D01*
X77044003Y-126140566D01*
X77044005Y-126140566D01*
X77044008Y-126140568D01*
X77132476Y-126169313D01*
X77268631Y-126213553D01*
X77501903Y-126250500D01*
X77501908Y-126250500D01*
X77738097Y-126250500D01*
X77971368Y-126213553D01*
X78027726Y-126195241D01*
X78195992Y-126140568D01*
X78406433Y-126033343D01*
X78597510Y-125894517D01*
X78764517Y-125727510D01*
X78903343Y-125536433D01*
X79010568Y-125325992D01*
X79083553Y-125101368D01*
X79092064Y-125047631D01*
X79120500Y-124868097D01*
X79120500Y-124631902D01*
X79083553Y-124398635D01*
X79083553Y-124398632D01*
X79042547Y-124272433D01*
X79040553Y-124202593D01*
X79072796Y-124146437D01*
X80124713Y-123094521D01*
X80124716Y-123094520D01*
X80236520Y-122982716D01*
X80286639Y-122895904D01*
X80315577Y-122845785D01*
X80328634Y-122797054D01*
X81187498Y-122797054D01*
X81228424Y-122949789D01*
X81228425Y-122949790D01*
X81255642Y-122996930D01*
X81255643Y-122996931D01*
X81307479Y-123086714D01*
X81307481Y-123086717D01*
X81426349Y-123205585D01*
X81426355Y-123205590D01*
X82367200Y-124146435D01*
X82400685Y-124207758D01*
X82397450Y-124272433D01*
X82356447Y-124398628D01*
X82319500Y-124631902D01*
X82319500Y-124868097D01*
X82356446Y-125101368D01*
X82429433Y-125325996D01*
X82511469Y-125486999D01*
X82536657Y-125536433D01*
X82675483Y-125727510D01*
X82842490Y-125894517D01*
X83033567Y-126033343D01*
X83065974Y-126049855D01*
X83244003Y-126140566D01*
X83244005Y-126140566D01*
X83244008Y-126140568D01*
X83332476Y-126169313D01*
X83468631Y-126213553D01*
X83701903Y-126250500D01*
X83701908Y-126250500D01*
X83938097Y-126250500D01*
X84171368Y-126213553D01*
X84227726Y-126195241D01*
X84395992Y-126140568D01*
X84606433Y-126033343D01*
X84797510Y-125894517D01*
X84964517Y-125727510D01*
X85103343Y-125536433D01*
X85210568Y-125325992D01*
X85283553Y-125101368D01*
X85292064Y-125047631D01*
X85320500Y-124868097D01*
X85320500Y-124631902D01*
X85283553Y-124398631D01*
X85219856Y-124202593D01*
X85210568Y-124174008D01*
X85210566Y-124174005D01*
X85210566Y-124174003D01*
X85103342Y-123963566D01*
X84964517Y-123772490D01*
X84797510Y-123605483D01*
X84606433Y-123466657D01*
X84395996Y-123359433D01*
X84171368Y-123286446D01*
X83938097Y-123249500D01*
X83938092Y-123249500D01*
X83701908Y-123249500D01*
X83701903Y-123249500D01*
X83468628Y-123286447D01*
X83342433Y-123327450D01*
X83272592Y-123329445D01*
X83216435Y-123297200D01*
X82424819Y-122505584D01*
X82391334Y-122444261D01*
X82388500Y-122417903D01*
X82388500Y-117514144D01*
X82408185Y-117447105D01*
X82460989Y-117401350D01*
X82530147Y-117391406D01*
X82593703Y-117420431D01*
X82612816Y-117441257D01*
X82675483Y-117527510D01*
X82842490Y-117694517D01*
X83033567Y-117833343D01*
X83120422Y-117877598D01*
X83244003Y-117940566D01*
X83244005Y-117940566D01*
X83244008Y-117940568D01*
X83296221Y-117957533D01*
X83468631Y-118013553D01*
X83701903Y-118050500D01*
X83701908Y-118050500D01*
X83938097Y-118050500D01*
X84171368Y-118013553D01*
X84205225Y-118002552D01*
X84395992Y-117940568D01*
X84606433Y-117833343D01*
X84797510Y-117694517D01*
X84964517Y-117527510D01*
X85103343Y-117336433D01*
X85210568Y-117125992D01*
X85283553Y-116901368D01*
X85286922Y-116880098D01*
X85320500Y-116668097D01*
X85320500Y-116431902D01*
X85283553Y-116198631D01*
X85229325Y-116031735D01*
X85210568Y-115974008D01*
X85210566Y-115974005D01*
X85210566Y-115974003D01*
X85154002Y-115862991D01*
X85103343Y-115763567D01*
X84964517Y-115572490D01*
X84797510Y-115405483D01*
X84606433Y-115266657D01*
X84395996Y-115159433D01*
X84171368Y-115086446D01*
X83938097Y-115049500D01*
X83938092Y-115049500D01*
X83701908Y-115049500D01*
X83701903Y-115049500D01*
X83468631Y-115086446D01*
X83244003Y-115159433D01*
X83033566Y-115266657D01*
X82954791Y-115323891D01*
X82842490Y-115405483D01*
X82842488Y-115405485D01*
X82842487Y-115405485D01*
X82675485Y-115572487D01*
X82675485Y-115572488D01*
X82675483Y-115572490D01*
X82667949Y-115582860D01*
X82612818Y-115658741D01*
X82557488Y-115701406D01*
X82487874Y-115707385D01*
X82426079Y-115674779D01*
X82391722Y-115613940D01*
X82388500Y-115585855D01*
X82388500Y-114382096D01*
X82408185Y-114315057D01*
X82424815Y-114294419D01*
X83216437Y-113502796D01*
X83277758Y-113469313D01*
X83342433Y-113472547D01*
X83468632Y-113513553D01*
X83556110Y-113527408D01*
X83701903Y-113550500D01*
X83701908Y-113550500D01*
X83938097Y-113550500D01*
X84171368Y-113513553D01*
X84204468Y-113502798D01*
X84395992Y-113440568D01*
X84606433Y-113333343D01*
X84797510Y-113194517D01*
X84964517Y-113027510D01*
X85103343Y-112836433D01*
X85210568Y-112625992D01*
X85283553Y-112401368D01*
X85302640Y-112280858D01*
X85320500Y-112168097D01*
X85320500Y-111931902D01*
X85283553Y-111698631D01*
X85248674Y-111591287D01*
X85210568Y-111474008D01*
X85210566Y-111474005D01*
X85210566Y-111474003D01*
X85115824Y-111288063D01*
X85103343Y-111263567D01*
X84964517Y-111072490D01*
X84797510Y-110905483D01*
X84606433Y-110766657D01*
X84575993Y-110751147D01*
X84395996Y-110659433D01*
X84171368Y-110586446D01*
X83938097Y-110549500D01*
X83938092Y-110549500D01*
X83701908Y-110549500D01*
X83701903Y-110549500D01*
X83468631Y-110586446D01*
X83244003Y-110659433D01*
X83033566Y-110766657D01*
X82954209Y-110824314D01*
X82842490Y-110905483D01*
X82842488Y-110905485D01*
X82842487Y-110905485D01*
X82675485Y-111072487D01*
X82675485Y-111072488D01*
X82675483Y-111072490D01*
X82649559Y-111108171D01*
X82536657Y-111263566D01*
X82429433Y-111474003D01*
X82356446Y-111698631D01*
X82319500Y-111931902D01*
X82319500Y-112168097D01*
X82356447Y-112401369D01*
X82356447Y-112401372D01*
X82397450Y-112527564D01*
X82399445Y-112597405D01*
X82367200Y-112653563D01*
X81419286Y-113601478D01*
X81307481Y-113713282D01*
X81283930Y-113754074D01*
X81259810Y-113795851D01*
X81228423Y-113850215D01*
X81187499Y-114002943D01*
X81187499Y-114161057D01*
X81187499Y-114161059D01*
X81187500Y-114171058D01*
X81187500Y-122631330D01*
X81187499Y-122631348D01*
X81187499Y-122797054D01*
X81187498Y-122797054D01*
X80328634Y-122797054D01*
X80356500Y-122693057D01*
X80356500Y-122534943D01*
X80356500Y-114106943D01*
X80335002Y-114026710D01*
X80315577Y-113954215D01*
X80276712Y-113886900D01*
X80236520Y-113817284D01*
X80124716Y-113705480D01*
X80124715Y-113705479D01*
X80120385Y-113701149D01*
X80120374Y-113701139D01*
X79072798Y-112653563D01*
X79039313Y-112592240D01*
X79042547Y-112527566D01*
X79083553Y-112401368D01*
X79103705Y-112274126D01*
X79120500Y-112168097D01*
X79120500Y-111931902D01*
X79083553Y-111698631D01*
X79048674Y-111591287D01*
X79010568Y-111474008D01*
X79010566Y-111474005D01*
X79010566Y-111474003D01*
X78915824Y-111288063D01*
X78903343Y-111263567D01*
X78764517Y-111072490D01*
X78597510Y-110905483D01*
X78406433Y-110766657D01*
X78375993Y-110751147D01*
X78195996Y-110659433D01*
X77971368Y-110586446D01*
X77738097Y-110549500D01*
X77738092Y-110549500D01*
X77501908Y-110549500D01*
X77501903Y-110549500D01*
X77268631Y-110586446D01*
X77044003Y-110659433D01*
X76833566Y-110766657D01*
X76754209Y-110824314D01*
X76642490Y-110905483D01*
X76642488Y-110905485D01*
X76642487Y-110905485D01*
X76475485Y-111072487D01*
X76475485Y-111072488D01*
X76475483Y-111072490D01*
X76449559Y-111108171D01*
X76336657Y-111263566D01*
X76276417Y-111381795D01*
X76228442Y-111432591D01*
X76165932Y-111449500D01*
X72574068Y-111449500D01*
X72507029Y-111429815D01*
X72463583Y-111381795D01*
X72415824Y-111288063D01*
X72403343Y-111263567D01*
X72264517Y-111072490D01*
X72097510Y-110905483D01*
X71906433Y-110766657D01*
X71875993Y-110751147D01*
X71695996Y-110659433D01*
X71471368Y-110586446D01*
X71238097Y-110549500D01*
X71238092Y-110549500D01*
X71051676Y-110549500D01*
X70984637Y-110529815D01*
X70938882Y-110477011D01*
X70928938Y-110407853D01*
X70957963Y-110344297D01*
X70963995Y-110337819D01*
X71274733Y-110027081D01*
X71774500Y-109527314D01*
X71840392Y-109413186D01*
X71874500Y-109285892D01*
X71874500Y-109154107D01*
X71874500Y-87839828D01*
X76927632Y-87839828D01*
X81094774Y-87839828D01*
X81094774Y-86029828D01*
X76927632Y-86029828D01*
X76927632Y-87839828D01*
X71874500Y-87839828D01*
X71874500Y-78930972D01*
X71876031Y-78925757D01*
X71874949Y-78920432D01*
X71885770Y-78892588D01*
X71894185Y-78863933D01*
X71898814Y-78859028D01*
X71900260Y-78855309D01*
X71925557Y-78830696D01*
X72117069Y-78691385D01*
X72182858Y-78667869D01*
X72190198Y-78667663D01*
X88699843Y-78697017D01*
G37*
%TD.AperFunction*%
%TA.AperFunction,Conductor*%
G36*
X109503089Y-124749500D02*
G01*
X107652129Y-124749500D01*
X107652123Y-124749501D01*
X107592516Y-124755908D01*
X107457671Y-124806202D01*
X107457664Y-124806206D01*
X107342455Y-124892452D01*
X107342452Y-124892455D01*
X107256206Y-125007664D01*
X107256202Y-125007671D01*
X107205908Y-125142517D01*
X107201451Y-125183980D01*
X107199501Y-125202123D01*
X107199500Y-125202135D01*
X107199500Y-128497870D01*
X107199501Y-128497876D01*
X107205908Y-128557483D01*
X107256202Y-128692328D01*
X107256206Y-128692335D01*
X107342452Y-128807544D01*
X107342455Y-128807547D01*
X107457664Y-128893793D01*
X107457671Y-128893797D01*
X107592517Y-128944091D01*
X107592516Y-128944091D01*
X107599444Y-128944835D01*
X107652127Y-128950500D01*
X109747872Y-128950499D01*
X109807483Y-128944091D01*
X109858205Y-128925172D01*
X110264751Y-133705591D01*
X110227011Y-133738294D01*
X110175500Y-133749500D01*
X107075728Y-133749500D01*
X107075712Y-133749499D01*
X107068116Y-133749499D01*
X106910001Y-133749499D01*
X106833637Y-133769961D01*
X106757272Y-133790423D01*
X106757267Y-133790426D01*
X106620348Y-133869475D01*
X106620340Y-133869481D01*
X105968181Y-134521641D01*
X105906858Y-134555126D01*
X105837166Y-134550142D01*
X105781233Y-134508270D01*
X105756816Y-134442806D01*
X105756500Y-134433960D01*
X105756500Y-126806945D01*
X105756500Y-126806943D01*
X105742503Y-126754706D01*
X105715577Y-126654215D01*
X105675327Y-126584500D01*
X105636520Y-126517284D01*
X105524716Y-126405480D01*
X105524715Y-126405479D01*
X105520385Y-126401149D01*
X105520374Y-126401139D01*
X104472798Y-125353563D01*
X104465504Y-125340205D01*
X104454291Y-125329914D01*
X104449099Y-125310162D01*
X104439313Y-125292240D01*
X104440124Y-125276015D01*
X104436530Y-125262340D01*
X104442546Y-125227569D01*
X104483553Y-125101368D01*
X104513093Y-124914861D01*
X104520500Y-124868097D01*
X104520500Y-124631902D01*
X104483553Y-124398635D01*
X104483553Y-124398632D01*
X104442547Y-124272433D01*
X104440553Y-124202593D01*
X104472796Y-124146437D01*
X105554416Y-123064819D01*
X105615739Y-123031334D01*
X105642097Y-123028500D01*
X109356729Y-123028500D01*
X109503089Y-124749500D01*
G37*
%TD.AperFunction*%
%TD*%
%TA.AperFunction,Conductor*%
%TO.N,GND*%
G36*
X115528142Y-135224589D02*
G01*
X115542226Y-135228438D01*
X115572943Y-135234891D01*
X115576743Y-135237872D01*
X115579363Y-135238589D01*
X115588788Y-135247324D01*
X115606467Y-135261196D01*
X115610804Y-135266015D01*
X115655483Y-135327510D01*
X115762103Y-135434130D01*
X115764281Y-135436550D01*
X115778037Y-135465232D01*
X115793277Y-135493142D01*
X115793036Y-135496506D01*
X115794495Y-135499548D01*
X115790562Y-135531105D01*
X115788293Y-135562834D01*
X115786271Y-135565534D01*
X115785854Y-135568882D01*
X115765477Y-135593310D01*
X115746421Y-135618767D01*
X115743261Y-135619945D01*
X115741100Y-135622537D01*
X115710751Y-135632071D01*
X115680957Y-135643184D01*
X115674662Y-135643408D01*
X115674442Y-135643478D01*
X115674243Y-135643423D01*
X115672111Y-135643500D01*
X115291309Y-135643500D01*
X115224270Y-135623815D01*
X115203628Y-135607181D01*
X114429409Y-134832962D01*
X114492993Y-134815925D01*
X114607007Y-134750099D01*
X114700099Y-134657007D01*
X114765925Y-134542993D01*
X114782962Y-134479409D01*
X115528142Y-135224589D01*
G37*
%TD.AperFunction*%
%TA.AperFunction,Conductor*%
G36*
X121728363Y-118503185D02*
G01*
X121749005Y-118519819D01*
X121891181Y-118661995D01*
X121924666Y-118723318D01*
X121927500Y-118749676D01*
X121927500Y-135504324D01*
X121918855Y-135533764D01*
X121912332Y-135563751D01*
X121908577Y-135568766D01*
X121907815Y-135571363D01*
X121891181Y-135592005D01*
X121876005Y-135607181D01*
X121814682Y-135640666D01*
X121788324Y-135643500D01*
X117927889Y-135643500D01*
X117860850Y-135623815D01*
X117815095Y-135571011D01*
X117805151Y-135501853D01*
X117834176Y-135438297D01*
X117840208Y-135431819D01*
X117874155Y-135397872D01*
X117944517Y-135327510D01*
X118083343Y-135136433D01*
X118190568Y-134925992D01*
X118263553Y-134701368D01*
X118270579Y-134657007D01*
X118300500Y-134468097D01*
X118300500Y-134231902D01*
X118263553Y-133998631D01*
X118215259Y-133850000D01*
X118190568Y-133774008D01*
X118190566Y-133774005D01*
X118190566Y-133774003D01*
X118083342Y-133563566D01*
X118016382Y-133471404D01*
X117944517Y-133372490D01*
X117777510Y-133205483D01*
X117586433Y-133066657D01*
X117375996Y-132959433D01*
X117151368Y-132886446D01*
X116918097Y-132849500D01*
X116918092Y-132849500D01*
X116681908Y-132849500D01*
X116681903Y-132849500D01*
X116448631Y-132886446D01*
X116224003Y-132959433D01*
X116013566Y-133066657D01*
X115957119Y-133107669D01*
X115822490Y-133205483D01*
X115822488Y-133205485D01*
X115822487Y-133205485D01*
X115655482Y-133372490D01*
X115614615Y-133428739D01*
X115559285Y-133471404D01*
X115527455Y-133476096D01*
X114782962Y-134220590D01*
X114765925Y-134157007D01*
X114700099Y-134042993D01*
X114607007Y-133949901D01*
X114492993Y-133884075D01*
X114429408Y-133867037D01*
X115169105Y-133127340D01*
X115169104Y-133127338D01*
X115086174Y-133067087D01*
X114875802Y-132959897D01*
X114651247Y-132886934D01*
X114651248Y-132886934D01*
X114418052Y-132850000D01*
X114181948Y-132850000D01*
X113948752Y-132886934D01*
X113724197Y-132959897D01*
X113513824Y-133067087D01*
X113418141Y-133136605D01*
X113352334Y-133160085D01*
X113284281Y-133144259D01*
X113245990Y-133110599D01*
X113197843Y-133046284D01*
X113157546Y-132992454D01*
X113157544Y-132992453D01*
X113157544Y-132992452D01*
X113042335Y-132906206D01*
X113042328Y-132906202D01*
X112907482Y-132855908D01*
X112907483Y-132855908D01*
X112847883Y-132849501D01*
X112847881Y-132849500D01*
X112847873Y-132849500D01*
X112847864Y-132849500D01*
X110752129Y-132849500D01*
X110752123Y-132849501D01*
X110692516Y-132855908D01*
X110557671Y-132906202D01*
X110557664Y-132906206D01*
X110442455Y-132992452D01*
X110442452Y-132992455D01*
X110356206Y-133107664D01*
X110356202Y-133107671D01*
X110305908Y-133242517D01*
X110299501Y-133302116D01*
X110299500Y-133302135D01*
X110299500Y-133625500D01*
X110296949Y-133634185D01*
X110298238Y-133643147D01*
X110287259Y-133667187D01*
X110279815Y-133692539D01*
X110272974Y-133698466D01*
X110269213Y-133706703D01*
X110265071Y-133709364D01*
X109858205Y-128925172D01*
X109942331Y-128893796D01*
X110057546Y-128807546D01*
X110143796Y-128692331D01*
X110194091Y-128557483D01*
X110200500Y-128497873D01*
X110200499Y-125202135D01*
X118399500Y-125202135D01*
X118399500Y-128497870D01*
X118399501Y-128497876D01*
X118405908Y-128557483D01*
X118456202Y-128692328D01*
X118456206Y-128692335D01*
X118542452Y-128807544D01*
X118542455Y-128807547D01*
X118657664Y-128893793D01*
X118657671Y-128893797D01*
X118792517Y-128944091D01*
X118792516Y-128944091D01*
X118799444Y-128944835D01*
X118852127Y-128950500D01*
X120947872Y-128950499D01*
X121007483Y-128944091D01*
X121142331Y-128893796D01*
X121257546Y-128807546D01*
X121343796Y-128692331D01*
X121394091Y-128557483D01*
X121400500Y-128497873D01*
X121400499Y-125202128D01*
X121394091Y-125142517D01*
X121378743Y-125101368D01*
X121343797Y-125007671D01*
X121343793Y-125007664D01*
X121257547Y-124892455D01*
X121257544Y-124892452D01*
X121142335Y-124806206D01*
X121142328Y-124806202D01*
X121007482Y-124755908D01*
X121007483Y-124755908D01*
X120947883Y-124749501D01*
X120947881Y-124749500D01*
X120947873Y-124749500D01*
X120947864Y-124749500D01*
X118852129Y-124749500D01*
X118852123Y-124749501D01*
X118792516Y-124755908D01*
X118657671Y-124806202D01*
X118657664Y-124806206D01*
X118542455Y-124892452D01*
X118542452Y-124892455D01*
X118456206Y-125007664D01*
X118456202Y-125007671D01*
X118405908Y-125142517D01*
X118399501Y-125202116D01*
X118399501Y-125202123D01*
X118399500Y-125202135D01*
X110200499Y-125202135D01*
X110200499Y-125202128D01*
X110194091Y-125142517D01*
X110178743Y-125101368D01*
X110143797Y-125007671D01*
X110143793Y-125007664D01*
X110057547Y-124892455D01*
X110057544Y-124892452D01*
X109942335Y-124806206D01*
X109942328Y-124806202D01*
X109807482Y-124755908D01*
X109807483Y-124755908D01*
X109747883Y-124749501D01*
X109747881Y-124749500D01*
X109747873Y-124749500D01*
X109747865Y-124749500D01*
X109503089Y-124749500D01*
X109356728Y-123028500D01*
X114135331Y-123028500D01*
X114135347Y-123028501D01*
X114142943Y-123028501D01*
X114301054Y-123028501D01*
X114301057Y-123028501D01*
X114453785Y-122987577D01*
X114503904Y-122958639D01*
X114590716Y-122908520D01*
X114702520Y-122796716D01*
X114702520Y-122796714D01*
X114712728Y-122786507D01*
X114712730Y-122786504D01*
X116196437Y-121302796D01*
X116257758Y-121269313D01*
X116322433Y-121272547D01*
X116448632Y-121313553D01*
X116536110Y-121327408D01*
X116681903Y-121350500D01*
X116681908Y-121350500D01*
X116918097Y-121350500D01*
X117151368Y-121313553D01*
X117184468Y-121302798D01*
X117375992Y-121240568D01*
X117586433Y-121133343D01*
X117777510Y-120994517D01*
X117944517Y-120827510D01*
X118083343Y-120636433D01*
X118190568Y-120425992D01*
X118263553Y-120201368D01*
X118300500Y-119968097D01*
X118300500Y-119731902D01*
X118263553Y-119498631D01*
X118190566Y-119274003D01*
X118083342Y-119063566D01*
X117944517Y-118872490D01*
X117777510Y-118705483D01*
X117777507Y-118705481D01*
X117773805Y-118702319D01*
X117775211Y-118700672D01*
X117738055Y-118652480D01*
X117732080Y-118582866D01*
X117764691Y-118521074D01*
X117825532Y-118486721D01*
X117853609Y-118483500D01*
X121661324Y-118483500D01*
X121728363Y-118503185D01*
G37*
%TD.AperFunction*%
%TD*%
M02*
