%TF.GenerationSoftware,KiCad,Pcbnew,9.0.1*%
%TF.CreationDate,2025-06-15T22:50:49-06:00*%
%TF.ProjectId,AuraCTRL PCB,41757261-4354-4524-9c20-5043422e6b69,rev?*%
%TF.SameCoordinates,Original*%
%TF.FileFunction,Legend,Bot*%
%TF.FilePolarity,Positive*%
%FSLAX46Y46*%
G04 Gerber Fmt 4.6, Leading zero omitted, Abs format (unit mm)*
G04 Created by KiCad (PCBNEW 9.0.1) date 2025-06-15 22:50:49*
%MOMM*%
%LPD*%
G01*
G04 APERTURE LIST*
%ADD10C,0.150000*%
%ADD11C,0.100000*%
%ADD12C,0.120000*%
G04 APERTURE END LIST*
D10*
X42369825Y-113429014D02*
X43052275Y-113273252D01*
X43052275Y-113273252D02*
X43015189Y-113110763D01*
X43015189Y-113110763D02*
X42960439Y-113020688D01*
X42960439Y-113020688D02*
X42880610Y-112970527D01*
X42880610Y-112970527D02*
X42808197Y-112952864D01*
X42808197Y-112952864D02*
X42670789Y-112950036D01*
X42670789Y-112950036D02*
X42573297Y-112972288D01*
X42573297Y-112972288D02*
X42450723Y-113034454D01*
X42450723Y-113034454D02*
X42393145Y-113081786D01*
X42393145Y-113081786D02*
X42342985Y-113161616D01*
X42342985Y-113161616D02*
X42332739Y-113266526D01*
X42332739Y-113266526D02*
X42369825Y-113429014D01*
X42132472Y-112389091D02*
X42221480Y-112779062D01*
X42176976Y-112584076D02*
X42859426Y-112428314D01*
X42859426Y-112428314D02*
X42776768Y-112515561D01*
X42776768Y-112515561D02*
X42726607Y-112595390D01*
X42726607Y-112595390D02*
X42708944Y-112667803D01*
X33858472Y-122898189D02*
X34162198Y-122267514D01*
X34162198Y-122267514D02*
X34012038Y-122195199D01*
X34012038Y-122195199D02*
X33907478Y-122181841D01*
X33907478Y-122181841D02*
X33818488Y-122212979D01*
X33818488Y-122212979D02*
X33759529Y-122258580D01*
X33759529Y-122258580D02*
X33671644Y-122364246D01*
X33671644Y-122364246D02*
X33628255Y-122454342D01*
X33628255Y-122454342D02*
X33600434Y-122588934D01*
X33600434Y-122588934D02*
X33601540Y-122663461D01*
X33601540Y-122663461D02*
X33632678Y-122752451D01*
X33632678Y-122752451D02*
X33708311Y-122825873D01*
X33708311Y-122825873D02*
X33858472Y-122898189D01*
X32897444Y-122435368D02*
X33257829Y-122608926D01*
X33077637Y-122522147D02*
X33381363Y-121891472D01*
X33381363Y-121891472D02*
X33398038Y-122010495D01*
X33398038Y-122010495D02*
X33429176Y-122099485D01*
X33429176Y-122099485D02*
X33474777Y-122158444D01*
X55079843Y-114179530D02*
X55627128Y-114615969D01*
X55627128Y-114615969D02*
X55731042Y-114485663D01*
X55731042Y-114485663D02*
X55767330Y-114386697D01*
X55767330Y-114386697D02*
X55756773Y-114293009D01*
X55756773Y-114293009D02*
X55725433Y-114225382D01*
X55725433Y-114225382D02*
X55641971Y-114116189D01*
X55641971Y-114116189D02*
X55563787Y-114053841D01*
X55563787Y-114053841D02*
X55438760Y-113996771D01*
X55438760Y-113996771D02*
X55365855Y-113981267D01*
X55365855Y-113981267D02*
X55272167Y-113991823D01*
X55272167Y-113991823D02*
X55183757Y-114049224D01*
X55183757Y-114049224D02*
X55079843Y-114179530D01*
X55744893Y-113345572D02*
X55495499Y-113658306D01*
X55620196Y-113501939D02*
X56167481Y-113938378D01*
X56167481Y-113938378D02*
X56047732Y-113928152D01*
X56047732Y-113928152D02*
X55954044Y-113938708D01*
X55954044Y-113938708D02*
X55886417Y-113970048D01*
X58857743Y-136808844D02*
X58310465Y-137245292D01*
X58310465Y-137245292D02*
X58414382Y-137375596D01*
X58414382Y-137375596D02*
X58502792Y-137432995D01*
X58502792Y-137432995D02*
X58596481Y-137443551D01*
X58596481Y-137443551D02*
X58669385Y-137428045D01*
X58669385Y-137428045D02*
X58794412Y-137370973D01*
X58794412Y-137370973D02*
X58872595Y-137308623D01*
X58872595Y-137308623D02*
X58956055Y-137199429D01*
X58956055Y-137199429D02*
X58987393Y-137131802D01*
X58987393Y-137131802D02*
X58997948Y-137038114D01*
X58997948Y-137038114D02*
X58961659Y-136939148D01*
X58961659Y-136939148D02*
X58857743Y-136808844D01*
X59522807Y-137642791D02*
X59273408Y-137330061D01*
X59398108Y-137486426D02*
X58850830Y-137922874D01*
X58850830Y-137922874D02*
X58887446Y-137808402D01*
X58887446Y-137808402D02*
X58898001Y-137714714D01*
X58898001Y-137714714D02*
X58882496Y-137641809D01*
X35955074Y-135456562D02*
X35651359Y-134825882D01*
X35651359Y-134825882D02*
X35501197Y-134898195D01*
X35501197Y-134898195D02*
X35425562Y-134971615D01*
X35425562Y-134971615D02*
X35394423Y-135060605D01*
X35394423Y-135060605D02*
X35393316Y-135135133D01*
X35393316Y-135135133D02*
X35421134Y-135269725D01*
X35421134Y-135269725D02*
X35464522Y-135359822D01*
X35464522Y-135359822D02*
X35552405Y-135465489D01*
X35552405Y-135465489D02*
X35611363Y-135511091D01*
X35611363Y-135511091D02*
X35700353Y-135542230D01*
X35700353Y-135542230D02*
X35804912Y-135528875D01*
X35804912Y-135528875D02*
X35955074Y-135456562D01*
X34994038Y-135919366D02*
X35354427Y-135745814D01*
X35174233Y-135832590D02*
X34870517Y-135201911D01*
X34870517Y-135201911D02*
X34973970Y-135263082D01*
X34973970Y-135263082D02*
X35062960Y-135294222D01*
X35062960Y-135294222D02*
X35137487Y-135295329D01*
X62417657Y-124584540D02*
X62417657Y-125284540D01*
X62417657Y-125284540D02*
X62584324Y-125284540D01*
X62584324Y-125284540D02*
X62684324Y-125251207D01*
X62684324Y-125251207D02*
X62750991Y-125184540D01*
X62750991Y-125184540D02*
X62784324Y-125117874D01*
X62784324Y-125117874D02*
X62817657Y-124984540D01*
X62817657Y-124984540D02*
X62817657Y-124884540D01*
X62817657Y-124884540D02*
X62784324Y-124751207D01*
X62784324Y-124751207D02*
X62750991Y-124684540D01*
X62750991Y-124684540D02*
X62684324Y-124617874D01*
X62684324Y-124617874D02*
X62584324Y-124584540D01*
X62584324Y-124584540D02*
X62417657Y-124584540D01*
X63484324Y-124584540D02*
X63084324Y-124584540D01*
X63284324Y-124584540D02*
X63284324Y-125284540D01*
X63284324Y-125284540D02*
X63217657Y-125184540D01*
X63217657Y-125184540D02*
X63150991Y-125117874D01*
X63150991Y-125117874D02*
X63084324Y-125084540D01*
X47080804Y-141647378D02*
X46398354Y-141491615D01*
X46398354Y-141491615D02*
X46361268Y-141654103D01*
X46361268Y-141654103D02*
X46371514Y-141759013D01*
X46371514Y-141759013D02*
X46421674Y-141838843D01*
X46421674Y-141838843D02*
X46479252Y-141886175D01*
X46479252Y-141886175D02*
X46601825Y-141948342D01*
X46601825Y-141948342D02*
X46699318Y-141970594D01*
X46699318Y-141970594D02*
X46836726Y-141967765D01*
X46836726Y-141967765D02*
X46909139Y-141950102D01*
X46909139Y-141950102D02*
X46988968Y-141899942D01*
X46988968Y-141899942D02*
X47043718Y-141809866D01*
X47043718Y-141809866D02*
X47080804Y-141647378D01*
X46843451Y-142687302D02*
X46932459Y-142297330D01*
X46887955Y-142492316D02*
X46205505Y-142336553D01*
X46205505Y-142336553D02*
X46317832Y-142293810D01*
X46317832Y-142293810D02*
X46397662Y-142243649D01*
X46397662Y-142243649D02*
X46444994Y-142186071D01*
D11*
%TO.C,D1*%
X46070634Y-109797810D02*
X45485678Y-109931321D01*
X45352166Y-109346365D01*
X46070634Y-109797810D01*
G36*
X46070634Y-109797810D02*
G01*
X45485678Y-109931321D01*
X45352166Y-109346365D01*
X46070634Y-109797810D01*
G37*
D12*
X43781620Y-115264209D02*
X43513298Y-115571623D01*
X43406490Y-115103658D01*
X43781620Y-115264209D01*
G36*
X43781620Y-115264209D02*
G01*
X43513298Y-115571623D01*
X43406490Y-115103658D01*
X43781620Y-115264209D01*
G37*
D11*
X33066612Y-118281335D02*
X32526036Y-118020998D01*
X33326949Y-117740757D01*
X33066612Y-118281335D01*
G36*
X33066612Y-118281335D02*
G01*
X32526036Y-118020998D01*
X33326949Y-117740757D01*
X33066612Y-118281335D01*
G37*
D12*
X36246569Y-123340106D02*
X35814107Y-123131836D01*
X36173523Y-122938653D01*
X36246569Y-123340106D01*
G36*
X36246569Y-123340106D02*
G01*
X35814107Y-123131836D01*
X36173523Y-122938653D01*
X36246569Y-123340106D01*
G37*
D11*
X60226257Y-114808869D02*
X59757155Y-114434779D01*
X60131246Y-113965677D01*
X60226257Y-114808869D01*
G36*
X60226257Y-114808869D02*
G01*
X59757155Y-114434779D01*
X60131246Y-113965677D01*
X60226257Y-114808869D01*
G37*
D12*
X54525293Y-116427547D02*
X54117651Y-116409438D01*
X54416923Y-116034156D01*
X54525293Y-116427547D01*
G36*
X54525293Y-116427547D02*
G01*
X54117651Y-116409438D01*
X54416923Y-116034156D01*
X54525293Y-116427547D01*
G37*
D11*
X57942206Y-141781184D02*
X57099012Y-141686187D01*
X57568107Y-141312089D01*
X57942206Y-141781184D01*
G36*
X57942206Y-141781184D02*
G01*
X57099012Y-141686187D01*
X57568107Y-141312089D01*
X57942206Y-141781184D01*
G37*
D12*
X57197129Y-135749854D02*
X56789486Y-135767971D01*
X56897851Y-135374577D01*
X57197129Y-135749854D01*
G36*
X57197129Y-135749854D02*
G01*
X56789486Y-135767971D01*
X56897851Y-135374577D01*
X57197129Y-135749854D01*
G37*
D11*
X31851739Y-133197132D02*
X31311156Y-133457459D01*
X31591411Y-132656549D01*
X31851739Y-133197132D01*
G36*
X31851739Y-133197132D02*
G01*
X31311156Y-133457459D01*
X31591411Y-132656549D01*
X31851739Y-133197132D01*
G37*
D12*
X37789520Y-133864988D02*
X37357054Y-134073251D01*
X37430107Y-133671799D01*
X37789520Y-133864988D01*
G36*
X37789520Y-133864988D02*
G01*
X37357054Y-134073251D01*
X37430107Y-133671799D01*
X37789520Y-133864988D01*
G37*
D11*
X65134324Y-129000574D02*
X65134324Y-128400574D01*
X65734324Y-128400574D01*
X65134324Y-129000574D01*
G36*
X65134324Y-129000574D02*
G01*
X65134324Y-128400574D01*
X65734324Y-128400574D01*
X65134324Y-129000574D01*
G37*
D12*
X60314324Y-125552574D02*
X60074324Y-125222574D01*
X60554324Y-125222574D01*
X60314324Y-125552574D01*
G36*
X60314324Y-125552574D02*
G01*
X60074324Y-125222574D01*
X60554324Y-125222574D01*
X60314324Y-125552574D01*
G37*
D11*
X42755936Y-143446796D02*
X42622425Y-144031753D01*
X42170979Y-143313285D01*
X42755936Y-143446796D01*
G36*
X42755936Y-143446796D02*
G01*
X42622425Y-144031753D01*
X42170979Y-143313285D01*
X42755936Y-143446796D01*
G37*
D12*
X46873394Y-139688787D02*
X46605072Y-139381373D01*
X46980203Y-139220821D01*
X46873394Y-139688787D01*
G36*
X46873394Y-139688787D02*
G01*
X46605072Y-139381373D01*
X46980203Y-139220821D01*
X46873394Y-139688787D01*
G37*
%TD*%
M02*
