M48
; DRILL file {KiCad 9.0.1} date 2025-06-15T22:50:52-0600
; FORMAT={-:-/ absolute / metric / decimal}
; #@! TF.CreationDate,2025-06-15T22:50:52-06:00
; #@! TF.GenerationSoftware,Kicad,Pcbnew,9.0.1
; #@! TF.FileFunction,Plated,1,2,PTH
FMAT,2
METRIC
; #@! TA.AperFunction,Plated,PTH,ViaDrill
T1C0.300
; #@! TA.AperFunction,Plated,PTH,ComponentDrill
T2C0.889
; #@! TA.AperFunction,Plated,PTH,ComponentDrill
T3C1.000
; #@! TA.AperFunction,Plated,PTH,ComponentDrill
T4C1.100
; #@! TA.AperFunction,Plated,PTH,ComponentDrill
T5C1.500
%
G90
G05
T1
X31.706Y-120.012
X32.357Y-135.34
X36.526Y-122.334
X37.177Y-133.019
X43.284Y-109.947
X44.474Y-115.163
X44.746Y-144.388
X45.937Y-139.172
X55.037Y-116.906
X56.209Y-136.16
X58.372Y-112.723
X59.545Y-140.343
X60.259Y-126.251
X65.609Y-126.251
X67.147Y-127.169
X85.344Y-151.384
X86.868Y-144.78
X89.916Y-150.368
X97.155Y-163.83
T2
X79.12Y-148.59
X79.12Y-151.13
X79.12Y-153.67
X79.12Y-156.21
X79.12Y-158.75
X79.12Y-161.29
X79.12Y-163.83
X94.36Y-148.59
X94.36Y-151.13
X94.36Y-153.67
X94.36Y-156.21
X94.36Y-158.75
X94.36Y-161.29
X94.36Y-163.83
T3
X82.82Y-80.645
X85.36Y-80.645
X87.9Y-80.645
X90.44Y-80.645
X111.8Y-119.85
X111.8Y-134.35
X114.3Y-134.35
X116.8Y-119.85
X116.8Y-134.35
T4
X71.12Y-112.05
X71.12Y-116.55
X71.12Y-124.75
X71.12Y-129.25
X71.12Y-137.45
X71.12Y-141.95
X77.62Y-112.05
X77.62Y-116.55
X77.62Y-124.75
X77.62Y-129.25
X77.62Y-137.45
X77.62Y-141.95
X83.82Y-112.05
X83.82Y-116.55
X83.82Y-124.75
X83.82Y-129.25
X83.82Y-137.45
X83.82Y-141.95
X90.32Y-112.05
X90.32Y-116.55
X90.32Y-124.75
X90.32Y-129.25
X90.32Y-137.45
X90.32Y-141.95
X96.52Y-112.05
X96.52Y-116.55
X96.52Y-124.75
X96.52Y-129.25
X96.52Y-137.45
X96.52Y-141.95
X103.02Y-112.05
X103.02Y-116.55
X103.02Y-124.75
X103.02Y-129.25
X103.02Y-137.45
X103.02Y-141.95
T5
X108.7Y-127.5G85X108.7Y-126.2
G05
X119.9Y-127.5G85X119.9Y-126.2
G05
M30
