%TF.GenerationSoftware,KiCad,Pcbnew,9.0.1*%
%TF.CreationDate,2025-06-15T22:50:49-06:00*%
%TF.ProjectId,AuraCTRL PCB,41757261-4354-4524-9c20-5043422e6b69,rev?*%
%TF.SameCoordinates,Original*%
%TF.FileFunction,Legend,Top*%
%TF.FilePolarity,Positive*%
%FSLAX46Y46*%
G04 Gerber Fmt 4.6, Leading zero omitted, Abs format (unit mm)*
G04 Created by KiCad (PCBNEW 9.0.1) date 2025-06-15 22:50:49*
%MOMM*%
%LPD*%
G01*
G04 APERTURE LIST*
%ADD10C,0.150000*%
%ADD11C,0.101600*%
%ADD12C,0.120000*%
%ADD13C,0.127000*%
%ADD14C,0.100000*%
%ADD15C,0.504000*%
G04 APERTURE END LIST*
D10*
X98079523Y-109981009D02*
X98222380Y-110028628D01*
X98222380Y-110028628D02*
X98269999Y-110076247D01*
X98269999Y-110076247D02*
X98317618Y-110171485D01*
X98317618Y-110171485D02*
X98317618Y-110314342D01*
X98317618Y-110314342D02*
X98269999Y-110409580D01*
X98269999Y-110409580D02*
X98222380Y-110457200D01*
X98222380Y-110457200D02*
X98127142Y-110504819D01*
X98127142Y-110504819D02*
X97746190Y-110504819D01*
X97746190Y-110504819D02*
X97746190Y-109504819D01*
X97746190Y-109504819D02*
X98079523Y-109504819D01*
X98079523Y-109504819D02*
X98174761Y-109552438D01*
X98174761Y-109552438D02*
X98222380Y-109600057D01*
X98222380Y-109600057D02*
X98269999Y-109695295D01*
X98269999Y-109695295D02*
X98269999Y-109790533D01*
X98269999Y-109790533D02*
X98222380Y-109885771D01*
X98222380Y-109885771D02*
X98174761Y-109933390D01*
X98174761Y-109933390D02*
X98079523Y-109981009D01*
X98079523Y-109981009D02*
X97746190Y-109981009D01*
X99174761Y-110504819D02*
X99174761Y-109981009D01*
X99174761Y-109981009D02*
X99127142Y-109885771D01*
X99127142Y-109885771D02*
X99031904Y-109838152D01*
X99031904Y-109838152D02*
X98841428Y-109838152D01*
X98841428Y-109838152D02*
X98746190Y-109885771D01*
X99174761Y-110457200D02*
X99079523Y-110504819D01*
X99079523Y-110504819D02*
X98841428Y-110504819D01*
X98841428Y-110504819D02*
X98746190Y-110457200D01*
X98746190Y-110457200D02*
X98698571Y-110361961D01*
X98698571Y-110361961D02*
X98698571Y-110266723D01*
X98698571Y-110266723D02*
X98746190Y-110171485D01*
X98746190Y-110171485D02*
X98841428Y-110123866D01*
X98841428Y-110123866D02*
X99079523Y-110123866D01*
X99079523Y-110123866D02*
X99174761Y-110076247D01*
X100079523Y-110457200D02*
X99984285Y-110504819D01*
X99984285Y-110504819D02*
X99793809Y-110504819D01*
X99793809Y-110504819D02*
X99698571Y-110457200D01*
X99698571Y-110457200D02*
X99650952Y-110409580D01*
X99650952Y-110409580D02*
X99603333Y-110314342D01*
X99603333Y-110314342D02*
X99603333Y-110028628D01*
X99603333Y-110028628D02*
X99650952Y-109933390D01*
X99650952Y-109933390D02*
X99698571Y-109885771D01*
X99698571Y-109885771D02*
X99793809Y-109838152D01*
X99793809Y-109838152D02*
X99984285Y-109838152D01*
X99984285Y-109838152D02*
X100079523Y-109885771D01*
X100508095Y-110504819D02*
X100508095Y-109504819D01*
X100603333Y-110123866D02*
X100889047Y-110504819D01*
X100889047Y-109838152D02*
X100508095Y-110219104D01*
X101841428Y-110504819D02*
X101270000Y-110504819D01*
X101555714Y-110504819D02*
X101555714Y-109504819D01*
X101555714Y-109504819D02*
X101460476Y-109647676D01*
X101460476Y-109647676D02*
X101365238Y-109742914D01*
X101365238Y-109742914D02*
X101270000Y-109790533D01*
X71798571Y-110409580D02*
X71750952Y-110457200D01*
X71750952Y-110457200D02*
X71608095Y-110504819D01*
X71608095Y-110504819D02*
X71512857Y-110504819D01*
X71512857Y-110504819D02*
X71370000Y-110457200D01*
X71370000Y-110457200D02*
X71274762Y-110361961D01*
X71274762Y-110361961D02*
X71227143Y-110266723D01*
X71227143Y-110266723D02*
X71179524Y-110076247D01*
X71179524Y-110076247D02*
X71179524Y-109933390D01*
X71179524Y-109933390D02*
X71227143Y-109742914D01*
X71227143Y-109742914D02*
X71274762Y-109647676D01*
X71274762Y-109647676D02*
X71370000Y-109552438D01*
X71370000Y-109552438D02*
X71512857Y-109504819D01*
X71512857Y-109504819D02*
X71608095Y-109504819D01*
X71608095Y-109504819D02*
X71750952Y-109552438D01*
X71750952Y-109552438D02*
X71798571Y-109600057D01*
X72370000Y-110504819D02*
X72274762Y-110457200D01*
X72274762Y-110457200D02*
X72227143Y-110409580D01*
X72227143Y-110409580D02*
X72179524Y-110314342D01*
X72179524Y-110314342D02*
X72179524Y-110028628D01*
X72179524Y-110028628D02*
X72227143Y-109933390D01*
X72227143Y-109933390D02*
X72274762Y-109885771D01*
X72274762Y-109885771D02*
X72370000Y-109838152D01*
X72370000Y-109838152D02*
X72512857Y-109838152D01*
X72512857Y-109838152D02*
X72608095Y-109885771D01*
X72608095Y-109885771D02*
X72655714Y-109933390D01*
X72655714Y-109933390D02*
X72703333Y-110028628D01*
X72703333Y-110028628D02*
X72703333Y-110314342D01*
X72703333Y-110314342D02*
X72655714Y-110409580D01*
X72655714Y-110409580D02*
X72608095Y-110457200D01*
X72608095Y-110457200D02*
X72512857Y-110504819D01*
X72512857Y-110504819D02*
X72370000Y-110504819D01*
X73131905Y-109838152D02*
X73131905Y-110504819D01*
X73131905Y-109933390D02*
X73179524Y-109885771D01*
X73179524Y-109885771D02*
X73274762Y-109838152D01*
X73274762Y-109838152D02*
X73417619Y-109838152D01*
X73417619Y-109838152D02*
X73512857Y-109885771D01*
X73512857Y-109885771D02*
X73560476Y-109981009D01*
X73560476Y-109981009D02*
X73560476Y-110504819D01*
X73893810Y-109838152D02*
X74274762Y-109838152D01*
X74036667Y-110504819D02*
X74036667Y-109647676D01*
X74036667Y-109647676D02*
X74084286Y-109552438D01*
X74084286Y-109552438D02*
X74179524Y-109504819D01*
X74179524Y-109504819D02*
X74274762Y-109504819D01*
X74608096Y-110504819D02*
X74608096Y-109838152D01*
X74608096Y-109504819D02*
X74560477Y-109552438D01*
X74560477Y-109552438D02*
X74608096Y-109600057D01*
X74608096Y-109600057D02*
X74655715Y-109552438D01*
X74655715Y-109552438D02*
X74608096Y-109504819D01*
X74608096Y-109504819D02*
X74608096Y-109600057D01*
X75084286Y-110504819D02*
X75084286Y-109838152D01*
X75084286Y-110028628D02*
X75131905Y-109933390D01*
X75131905Y-109933390D02*
X75179524Y-109885771D01*
X75179524Y-109885771D02*
X75274762Y-109838152D01*
X75274762Y-109838152D02*
X75370000Y-109838152D01*
X75703334Y-110504819D02*
X75703334Y-109838152D01*
X75703334Y-109933390D02*
X75750953Y-109885771D01*
X75750953Y-109885771D02*
X75846191Y-109838152D01*
X75846191Y-109838152D02*
X75989048Y-109838152D01*
X75989048Y-109838152D02*
X76084286Y-109885771D01*
X76084286Y-109885771D02*
X76131905Y-109981009D01*
X76131905Y-109981009D02*
X76131905Y-110504819D01*
X76131905Y-109981009D02*
X76179524Y-109885771D01*
X76179524Y-109885771D02*
X76274762Y-109838152D01*
X76274762Y-109838152D02*
X76417619Y-109838152D01*
X76417619Y-109838152D02*
X76512858Y-109885771D01*
X76512858Y-109885771D02*
X76560477Y-109981009D01*
X76560477Y-109981009D02*
X76560477Y-110504819D01*
X77560476Y-110504819D02*
X76989048Y-110504819D01*
X77274762Y-110504819D02*
X77274762Y-109504819D01*
X77274762Y-109504819D02*
X77179524Y-109647676D01*
X77179524Y-109647676D02*
X77084286Y-109742914D01*
X77084286Y-109742914D02*
X76989048Y-109790533D01*
X82950952Y-110504819D02*
X82950952Y-109504819D01*
X82950952Y-109504819D02*
X83189047Y-109504819D01*
X83189047Y-109504819D02*
X83331904Y-109552438D01*
X83331904Y-109552438D02*
X83427142Y-109647676D01*
X83427142Y-109647676D02*
X83474761Y-109742914D01*
X83474761Y-109742914D02*
X83522380Y-109933390D01*
X83522380Y-109933390D02*
X83522380Y-110076247D01*
X83522380Y-110076247D02*
X83474761Y-110266723D01*
X83474761Y-110266723D02*
X83427142Y-110361961D01*
X83427142Y-110361961D02*
X83331904Y-110457200D01*
X83331904Y-110457200D02*
X83189047Y-110504819D01*
X83189047Y-110504819D02*
X82950952Y-110504819D01*
X83950952Y-110123866D02*
X84712857Y-110123866D01*
X85189047Y-110504819D02*
X85189047Y-109504819D01*
X85189047Y-109504819D02*
X85569999Y-109504819D01*
X85569999Y-109504819D02*
X85665237Y-109552438D01*
X85665237Y-109552438D02*
X85712856Y-109600057D01*
X85712856Y-109600057D02*
X85760475Y-109695295D01*
X85760475Y-109695295D02*
X85760475Y-109838152D01*
X85760475Y-109838152D02*
X85712856Y-109933390D01*
X85712856Y-109933390D02*
X85665237Y-109981009D01*
X85665237Y-109981009D02*
X85569999Y-110028628D01*
X85569999Y-110028628D02*
X85189047Y-110028628D01*
X86617618Y-110504819D02*
X86617618Y-109981009D01*
X86617618Y-109981009D02*
X86569999Y-109885771D01*
X86569999Y-109885771D02*
X86474761Y-109838152D01*
X86474761Y-109838152D02*
X86284285Y-109838152D01*
X86284285Y-109838152D02*
X86189047Y-109885771D01*
X86617618Y-110457200D02*
X86522380Y-110504819D01*
X86522380Y-110504819D02*
X86284285Y-110504819D01*
X86284285Y-110504819D02*
X86189047Y-110457200D01*
X86189047Y-110457200D02*
X86141428Y-110361961D01*
X86141428Y-110361961D02*
X86141428Y-110266723D01*
X86141428Y-110266723D02*
X86189047Y-110171485D01*
X86189047Y-110171485D02*
X86284285Y-110123866D01*
X86284285Y-110123866D02*
X86522380Y-110123866D01*
X86522380Y-110123866D02*
X86617618Y-110076247D01*
X87522380Y-110504819D02*
X87522380Y-109504819D01*
X87522380Y-110457200D02*
X87427142Y-110504819D01*
X87427142Y-110504819D02*
X87236666Y-110504819D01*
X87236666Y-110504819D02*
X87141428Y-110457200D01*
X87141428Y-110457200D02*
X87093809Y-110409580D01*
X87093809Y-110409580D02*
X87046190Y-110314342D01*
X87046190Y-110314342D02*
X87046190Y-110028628D01*
X87046190Y-110028628D02*
X87093809Y-109933390D01*
X87093809Y-109933390D02*
X87141428Y-109885771D01*
X87141428Y-109885771D02*
X87236666Y-109838152D01*
X87236666Y-109838152D02*
X87427142Y-109838152D01*
X87427142Y-109838152D02*
X87522380Y-109885771D01*
X87760476Y-110600057D02*
X88522380Y-110600057D01*
X88760476Y-109504819D02*
X88760476Y-110314342D01*
X88760476Y-110314342D02*
X88808095Y-110409580D01*
X88808095Y-110409580D02*
X88855714Y-110457200D01*
X88855714Y-110457200D02*
X88950952Y-110504819D01*
X88950952Y-110504819D02*
X89141428Y-110504819D01*
X89141428Y-110504819D02*
X89236666Y-110457200D01*
X89236666Y-110457200D02*
X89284285Y-110409580D01*
X89284285Y-110409580D02*
X89331904Y-110314342D01*
X89331904Y-110314342D02*
X89331904Y-109504819D01*
X89808095Y-109838152D02*
X89808095Y-110838152D01*
X89808095Y-109885771D02*
X89903333Y-109838152D01*
X89903333Y-109838152D02*
X90093809Y-109838152D01*
X90093809Y-109838152D02*
X90189047Y-109885771D01*
X90189047Y-109885771D02*
X90236666Y-109933390D01*
X90236666Y-109933390D02*
X90284285Y-110028628D01*
X90284285Y-110028628D02*
X90284285Y-110314342D01*
X90284285Y-110314342D02*
X90236666Y-110409580D01*
X90236666Y-110409580D02*
X90189047Y-110457200D01*
X90189047Y-110457200D02*
X90093809Y-110504819D01*
X90093809Y-110504819D02*
X89903333Y-110504819D01*
X89903333Y-110504819D02*
X89808095Y-110457200D01*
X91236666Y-110504819D02*
X90665238Y-110504819D01*
X90950952Y-110504819D02*
X90950952Y-109504819D01*
X90950952Y-109504819D02*
X90855714Y-109647676D01*
X90855714Y-109647676D02*
X90760476Y-109742914D01*
X90760476Y-109742914D02*
X90665238Y-109790533D01*
X98436667Y-123157200D02*
X98579524Y-123204819D01*
X98579524Y-123204819D02*
X98817619Y-123204819D01*
X98817619Y-123204819D02*
X98912857Y-123157200D01*
X98912857Y-123157200D02*
X98960476Y-123109580D01*
X98960476Y-123109580D02*
X99008095Y-123014342D01*
X99008095Y-123014342D02*
X99008095Y-122919104D01*
X99008095Y-122919104D02*
X98960476Y-122823866D01*
X98960476Y-122823866D02*
X98912857Y-122776247D01*
X98912857Y-122776247D02*
X98817619Y-122728628D01*
X98817619Y-122728628D02*
X98627143Y-122681009D01*
X98627143Y-122681009D02*
X98531905Y-122633390D01*
X98531905Y-122633390D02*
X98484286Y-122585771D01*
X98484286Y-122585771D02*
X98436667Y-122490533D01*
X98436667Y-122490533D02*
X98436667Y-122395295D01*
X98436667Y-122395295D02*
X98484286Y-122300057D01*
X98484286Y-122300057D02*
X98531905Y-122252438D01*
X98531905Y-122252438D02*
X98627143Y-122204819D01*
X98627143Y-122204819D02*
X98865238Y-122204819D01*
X98865238Y-122204819D02*
X99008095Y-122252438D01*
X99341429Y-122204819D02*
X99579524Y-123204819D01*
X99579524Y-123204819D02*
X99770000Y-122490533D01*
X99770000Y-122490533D02*
X99960476Y-123204819D01*
X99960476Y-123204819D02*
X100198572Y-122204819D01*
X100484286Y-122204819D02*
X101150952Y-122204819D01*
X101150952Y-122204819D02*
X100722381Y-123204819D01*
X84903333Y-122681009D02*
X85236666Y-122681009D01*
X85379523Y-123204819D02*
X84903333Y-123204819D01*
X84903333Y-123204819D02*
X84903333Y-122204819D01*
X84903333Y-122204819D02*
X85379523Y-122204819D01*
X85808095Y-122538152D02*
X85808095Y-123204819D01*
X85808095Y-122633390D02*
X85855714Y-122585771D01*
X85855714Y-122585771D02*
X85950952Y-122538152D01*
X85950952Y-122538152D02*
X86093809Y-122538152D01*
X86093809Y-122538152D02*
X86189047Y-122585771D01*
X86189047Y-122585771D02*
X86236666Y-122681009D01*
X86236666Y-122681009D02*
X86236666Y-123204819D01*
X86570000Y-122538152D02*
X86950952Y-122538152D01*
X86712857Y-122204819D02*
X86712857Y-123061961D01*
X86712857Y-123061961D02*
X86760476Y-123157200D01*
X86760476Y-123157200D02*
X86855714Y-123204819D01*
X86855714Y-123204819D02*
X86950952Y-123204819D01*
X87665238Y-123157200D02*
X87570000Y-123204819D01*
X87570000Y-123204819D02*
X87379524Y-123204819D01*
X87379524Y-123204819D02*
X87284286Y-123157200D01*
X87284286Y-123157200D02*
X87236667Y-123061961D01*
X87236667Y-123061961D02*
X87236667Y-122681009D01*
X87236667Y-122681009D02*
X87284286Y-122585771D01*
X87284286Y-122585771D02*
X87379524Y-122538152D01*
X87379524Y-122538152D02*
X87570000Y-122538152D01*
X87570000Y-122538152D02*
X87665238Y-122585771D01*
X87665238Y-122585771D02*
X87712857Y-122681009D01*
X87712857Y-122681009D02*
X87712857Y-122776247D01*
X87712857Y-122776247D02*
X87236667Y-122871485D01*
X88141429Y-123204819D02*
X88141429Y-122538152D01*
X88141429Y-122728628D02*
X88189048Y-122633390D01*
X88189048Y-122633390D02*
X88236667Y-122585771D01*
X88236667Y-122585771D02*
X88331905Y-122538152D01*
X88331905Y-122538152D02*
X88427143Y-122538152D01*
X89284286Y-123204819D02*
X88712858Y-123204819D01*
X88998572Y-123204819D02*
X88998572Y-122204819D01*
X88998572Y-122204819D02*
X88903334Y-122347676D01*
X88903334Y-122347676D02*
X88808096Y-122442914D01*
X88808096Y-122442914D02*
X88712858Y-122490533D01*
X69298571Y-123204819D02*
X69298571Y-122204819D01*
X69298571Y-122204819D02*
X69536666Y-122204819D01*
X69536666Y-122204819D02*
X69679523Y-122252438D01*
X69679523Y-122252438D02*
X69774761Y-122347676D01*
X69774761Y-122347676D02*
X69822380Y-122442914D01*
X69822380Y-122442914D02*
X69869999Y-122633390D01*
X69869999Y-122633390D02*
X69869999Y-122776247D01*
X69869999Y-122776247D02*
X69822380Y-122966723D01*
X69822380Y-122966723D02*
X69774761Y-123061961D01*
X69774761Y-123061961D02*
X69679523Y-123157200D01*
X69679523Y-123157200D02*
X69536666Y-123204819D01*
X69536666Y-123204819D02*
X69298571Y-123204819D01*
X70298571Y-122823866D02*
X71060476Y-122823866D01*
X71536666Y-123204819D02*
X71536666Y-122204819D01*
X71536666Y-122204819D02*
X71917618Y-122204819D01*
X71917618Y-122204819D02*
X72012856Y-122252438D01*
X72012856Y-122252438D02*
X72060475Y-122300057D01*
X72060475Y-122300057D02*
X72108094Y-122395295D01*
X72108094Y-122395295D02*
X72108094Y-122538152D01*
X72108094Y-122538152D02*
X72060475Y-122633390D01*
X72060475Y-122633390D02*
X72012856Y-122681009D01*
X72012856Y-122681009D02*
X71917618Y-122728628D01*
X71917618Y-122728628D02*
X71536666Y-122728628D01*
X72965237Y-123204819D02*
X72965237Y-122681009D01*
X72965237Y-122681009D02*
X72917618Y-122585771D01*
X72917618Y-122585771D02*
X72822380Y-122538152D01*
X72822380Y-122538152D02*
X72631904Y-122538152D01*
X72631904Y-122538152D02*
X72536666Y-122585771D01*
X72965237Y-123157200D02*
X72869999Y-123204819D01*
X72869999Y-123204819D02*
X72631904Y-123204819D01*
X72631904Y-123204819D02*
X72536666Y-123157200D01*
X72536666Y-123157200D02*
X72489047Y-123061961D01*
X72489047Y-123061961D02*
X72489047Y-122966723D01*
X72489047Y-122966723D02*
X72536666Y-122871485D01*
X72536666Y-122871485D02*
X72631904Y-122823866D01*
X72631904Y-122823866D02*
X72869999Y-122823866D01*
X72869999Y-122823866D02*
X72965237Y-122776247D01*
X73869999Y-123204819D02*
X73869999Y-122204819D01*
X73869999Y-123157200D02*
X73774761Y-123204819D01*
X73774761Y-123204819D02*
X73584285Y-123204819D01*
X73584285Y-123204819D02*
X73489047Y-123157200D01*
X73489047Y-123157200D02*
X73441428Y-123109580D01*
X73441428Y-123109580D02*
X73393809Y-123014342D01*
X73393809Y-123014342D02*
X73393809Y-122728628D01*
X73393809Y-122728628D02*
X73441428Y-122633390D01*
X73441428Y-122633390D02*
X73489047Y-122585771D01*
X73489047Y-122585771D02*
X73584285Y-122538152D01*
X73584285Y-122538152D02*
X73774761Y-122538152D01*
X73774761Y-122538152D02*
X73869999Y-122585771D01*
X74108095Y-123300057D02*
X74869999Y-123300057D01*
X75679523Y-123204819D02*
X75346190Y-122728628D01*
X75108095Y-123204819D02*
X75108095Y-122204819D01*
X75108095Y-122204819D02*
X75489047Y-122204819D01*
X75489047Y-122204819D02*
X75584285Y-122252438D01*
X75584285Y-122252438D02*
X75631904Y-122300057D01*
X75631904Y-122300057D02*
X75679523Y-122395295D01*
X75679523Y-122395295D02*
X75679523Y-122538152D01*
X75679523Y-122538152D02*
X75631904Y-122633390D01*
X75631904Y-122633390D02*
X75584285Y-122681009D01*
X75584285Y-122681009D02*
X75489047Y-122728628D01*
X75489047Y-122728628D02*
X75108095Y-122728628D01*
X76108095Y-123204819D02*
X76108095Y-122538152D01*
X76108095Y-122204819D02*
X76060476Y-122252438D01*
X76060476Y-122252438D02*
X76108095Y-122300057D01*
X76108095Y-122300057D02*
X76155714Y-122252438D01*
X76155714Y-122252438D02*
X76108095Y-122204819D01*
X76108095Y-122204819D02*
X76108095Y-122300057D01*
X77012856Y-122538152D02*
X77012856Y-123347676D01*
X77012856Y-123347676D02*
X76965237Y-123442914D01*
X76965237Y-123442914D02*
X76917618Y-123490533D01*
X76917618Y-123490533D02*
X76822380Y-123538152D01*
X76822380Y-123538152D02*
X76679523Y-123538152D01*
X76679523Y-123538152D02*
X76584285Y-123490533D01*
X77012856Y-123157200D02*
X76917618Y-123204819D01*
X76917618Y-123204819D02*
X76727142Y-123204819D01*
X76727142Y-123204819D02*
X76631904Y-123157200D01*
X76631904Y-123157200D02*
X76584285Y-123109580D01*
X76584285Y-123109580D02*
X76536666Y-123014342D01*
X76536666Y-123014342D02*
X76536666Y-122728628D01*
X76536666Y-122728628D02*
X76584285Y-122633390D01*
X76584285Y-122633390D02*
X76631904Y-122585771D01*
X76631904Y-122585771D02*
X76727142Y-122538152D01*
X76727142Y-122538152D02*
X76917618Y-122538152D01*
X76917618Y-122538152D02*
X77012856Y-122585771D01*
X77489047Y-123204819D02*
X77489047Y-122204819D01*
X77917618Y-123204819D02*
X77917618Y-122681009D01*
X77917618Y-122681009D02*
X77869999Y-122585771D01*
X77869999Y-122585771D02*
X77774761Y-122538152D01*
X77774761Y-122538152D02*
X77631904Y-122538152D01*
X77631904Y-122538152D02*
X77536666Y-122585771D01*
X77536666Y-122585771D02*
X77489047Y-122633390D01*
X78250952Y-122538152D02*
X78631904Y-122538152D01*
X78393809Y-122204819D02*
X78393809Y-123061961D01*
X78393809Y-123061961D02*
X78441428Y-123157200D01*
X78441428Y-123157200D02*
X78536666Y-123204819D01*
X78536666Y-123204819D02*
X78631904Y-123204819D01*
X79489047Y-123204819D02*
X78917619Y-123204819D01*
X79203333Y-123204819D02*
X79203333Y-122204819D01*
X79203333Y-122204819D02*
X79108095Y-122347676D01*
X79108095Y-122347676D02*
X79012857Y-122442914D01*
X79012857Y-122442914D02*
X78917619Y-122490533D01*
X98436667Y-135857200D02*
X98579524Y-135904819D01*
X98579524Y-135904819D02*
X98817619Y-135904819D01*
X98817619Y-135904819D02*
X98912857Y-135857200D01*
X98912857Y-135857200D02*
X98960476Y-135809580D01*
X98960476Y-135809580D02*
X99008095Y-135714342D01*
X99008095Y-135714342D02*
X99008095Y-135619104D01*
X99008095Y-135619104D02*
X98960476Y-135523866D01*
X98960476Y-135523866D02*
X98912857Y-135476247D01*
X98912857Y-135476247D02*
X98817619Y-135428628D01*
X98817619Y-135428628D02*
X98627143Y-135381009D01*
X98627143Y-135381009D02*
X98531905Y-135333390D01*
X98531905Y-135333390D02*
X98484286Y-135285771D01*
X98484286Y-135285771D02*
X98436667Y-135190533D01*
X98436667Y-135190533D02*
X98436667Y-135095295D01*
X98436667Y-135095295D02*
X98484286Y-135000057D01*
X98484286Y-135000057D02*
X98531905Y-134952438D01*
X98531905Y-134952438D02*
X98627143Y-134904819D01*
X98627143Y-134904819D02*
X98865238Y-134904819D01*
X98865238Y-134904819D02*
X99008095Y-134952438D01*
X99341429Y-134904819D02*
X99579524Y-135904819D01*
X99579524Y-135904819D02*
X99770000Y-135190533D01*
X99770000Y-135190533D02*
X99960476Y-135904819D01*
X99960476Y-135904819D02*
X100198572Y-134904819D01*
X100722381Y-135333390D02*
X100627143Y-135285771D01*
X100627143Y-135285771D02*
X100579524Y-135238152D01*
X100579524Y-135238152D02*
X100531905Y-135142914D01*
X100531905Y-135142914D02*
X100531905Y-135095295D01*
X100531905Y-135095295D02*
X100579524Y-135000057D01*
X100579524Y-135000057D02*
X100627143Y-134952438D01*
X100627143Y-134952438D02*
X100722381Y-134904819D01*
X100722381Y-134904819D02*
X100912857Y-134904819D01*
X100912857Y-134904819D02*
X101008095Y-134952438D01*
X101008095Y-134952438D02*
X101055714Y-135000057D01*
X101055714Y-135000057D02*
X101103333Y-135095295D01*
X101103333Y-135095295D02*
X101103333Y-135142914D01*
X101103333Y-135142914D02*
X101055714Y-135238152D01*
X101055714Y-135238152D02*
X101008095Y-135285771D01*
X101008095Y-135285771D02*
X100912857Y-135333390D01*
X100912857Y-135333390D02*
X100722381Y-135333390D01*
X100722381Y-135333390D02*
X100627143Y-135381009D01*
X100627143Y-135381009D02*
X100579524Y-135428628D01*
X100579524Y-135428628D02*
X100531905Y-135523866D01*
X100531905Y-135523866D02*
X100531905Y-135714342D01*
X100531905Y-135714342D02*
X100579524Y-135809580D01*
X100579524Y-135809580D02*
X100627143Y-135857200D01*
X100627143Y-135857200D02*
X100722381Y-135904819D01*
X100722381Y-135904819D02*
X100912857Y-135904819D01*
X100912857Y-135904819D02*
X101008095Y-135857200D01*
X101008095Y-135857200D02*
X101055714Y-135809580D01*
X101055714Y-135809580D02*
X101103333Y-135714342D01*
X101103333Y-135714342D02*
X101103333Y-135523866D01*
X101103333Y-135523866D02*
X101055714Y-135428628D01*
X101055714Y-135428628D02*
X101008095Y-135381009D01*
X101008095Y-135381009D02*
X100912857Y-135333390D01*
X73036667Y-135857200D02*
X73179524Y-135904819D01*
X73179524Y-135904819D02*
X73417619Y-135904819D01*
X73417619Y-135904819D02*
X73512857Y-135857200D01*
X73512857Y-135857200D02*
X73560476Y-135809580D01*
X73560476Y-135809580D02*
X73608095Y-135714342D01*
X73608095Y-135714342D02*
X73608095Y-135619104D01*
X73608095Y-135619104D02*
X73560476Y-135523866D01*
X73560476Y-135523866D02*
X73512857Y-135476247D01*
X73512857Y-135476247D02*
X73417619Y-135428628D01*
X73417619Y-135428628D02*
X73227143Y-135381009D01*
X73227143Y-135381009D02*
X73131905Y-135333390D01*
X73131905Y-135333390D02*
X73084286Y-135285771D01*
X73084286Y-135285771D02*
X73036667Y-135190533D01*
X73036667Y-135190533D02*
X73036667Y-135095295D01*
X73036667Y-135095295D02*
X73084286Y-135000057D01*
X73084286Y-135000057D02*
X73131905Y-134952438D01*
X73131905Y-134952438D02*
X73227143Y-134904819D01*
X73227143Y-134904819D02*
X73465238Y-134904819D01*
X73465238Y-134904819D02*
X73608095Y-134952438D01*
X73941429Y-134904819D02*
X74179524Y-135904819D01*
X74179524Y-135904819D02*
X74370000Y-135190533D01*
X74370000Y-135190533D02*
X74560476Y-135904819D01*
X74560476Y-135904819D02*
X74798572Y-134904819D01*
X75655714Y-134904819D02*
X75179524Y-134904819D01*
X75179524Y-134904819D02*
X75131905Y-135381009D01*
X75131905Y-135381009D02*
X75179524Y-135333390D01*
X75179524Y-135333390D02*
X75274762Y-135285771D01*
X75274762Y-135285771D02*
X75512857Y-135285771D01*
X75512857Y-135285771D02*
X75608095Y-135333390D01*
X75608095Y-135333390D02*
X75655714Y-135381009D01*
X75655714Y-135381009D02*
X75703333Y-135476247D01*
X75703333Y-135476247D02*
X75703333Y-135714342D01*
X75703333Y-135714342D02*
X75655714Y-135809580D01*
X75655714Y-135809580D02*
X75608095Y-135857200D01*
X75608095Y-135857200D02*
X75512857Y-135904819D01*
X75512857Y-135904819D02*
X75274762Y-135904819D01*
X75274762Y-135904819D02*
X75179524Y-135857200D01*
X75179524Y-135857200D02*
X75131905Y-135809580D01*
X85736667Y-135857200D02*
X85879524Y-135904819D01*
X85879524Y-135904819D02*
X86117619Y-135904819D01*
X86117619Y-135904819D02*
X86212857Y-135857200D01*
X86212857Y-135857200D02*
X86260476Y-135809580D01*
X86260476Y-135809580D02*
X86308095Y-135714342D01*
X86308095Y-135714342D02*
X86308095Y-135619104D01*
X86308095Y-135619104D02*
X86260476Y-135523866D01*
X86260476Y-135523866D02*
X86212857Y-135476247D01*
X86212857Y-135476247D02*
X86117619Y-135428628D01*
X86117619Y-135428628D02*
X85927143Y-135381009D01*
X85927143Y-135381009D02*
X85831905Y-135333390D01*
X85831905Y-135333390D02*
X85784286Y-135285771D01*
X85784286Y-135285771D02*
X85736667Y-135190533D01*
X85736667Y-135190533D02*
X85736667Y-135095295D01*
X85736667Y-135095295D02*
X85784286Y-135000057D01*
X85784286Y-135000057D02*
X85831905Y-134952438D01*
X85831905Y-134952438D02*
X85927143Y-134904819D01*
X85927143Y-134904819D02*
X86165238Y-134904819D01*
X86165238Y-134904819D02*
X86308095Y-134952438D01*
X86641429Y-134904819D02*
X86879524Y-135904819D01*
X86879524Y-135904819D02*
X87070000Y-135190533D01*
X87070000Y-135190533D02*
X87260476Y-135904819D01*
X87260476Y-135904819D02*
X87498572Y-134904819D01*
X88308095Y-134904819D02*
X88117619Y-134904819D01*
X88117619Y-134904819D02*
X88022381Y-134952438D01*
X88022381Y-134952438D02*
X87974762Y-135000057D01*
X87974762Y-135000057D02*
X87879524Y-135142914D01*
X87879524Y-135142914D02*
X87831905Y-135333390D01*
X87831905Y-135333390D02*
X87831905Y-135714342D01*
X87831905Y-135714342D02*
X87879524Y-135809580D01*
X87879524Y-135809580D02*
X87927143Y-135857200D01*
X87927143Y-135857200D02*
X88022381Y-135904819D01*
X88022381Y-135904819D02*
X88212857Y-135904819D01*
X88212857Y-135904819D02*
X88308095Y-135857200D01*
X88308095Y-135857200D02*
X88355714Y-135809580D01*
X88355714Y-135809580D02*
X88403333Y-135714342D01*
X88403333Y-135714342D02*
X88403333Y-135476247D01*
X88403333Y-135476247D02*
X88355714Y-135381009D01*
X88355714Y-135381009D02*
X88308095Y-135333390D01*
X88308095Y-135333390D02*
X88212857Y-135285771D01*
X88212857Y-135285771D02*
X88022381Y-135285771D01*
X88022381Y-135285771D02*
X87927143Y-135333390D01*
X87927143Y-135333390D02*
X87879524Y-135381009D01*
X87879524Y-135381009D02*
X87831905Y-135476247D01*
X86106904Y-90953819D02*
X86106904Y-91668104D01*
X86106904Y-91668104D02*
X86059285Y-91810961D01*
X86059285Y-91810961D02*
X85964047Y-91906200D01*
X85964047Y-91906200D02*
X85821190Y-91953819D01*
X85821190Y-91953819D02*
X85725952Y-91953819D01*
X87106904Y-91953819D02*
X86535476Y-91953819D01*
X86821190Y-91953819D02*
X86821190Y-90953819D01*
X86821190Y-90953819D02*
X86725952Y-91096676D01*
X86725952Y-91096676D02*
X86630714Y-91191914D01*
X86630714Y-91191914D02*
X86535476Y-91239533D01*
X106455200Y-136745332D02*
X106502819Y-136602475D01*
X106502819Y-136602475D02*
X106502819Y-136364380D01*
X106502819Y-136364380D02*
X106455200Y-136269142D01*
X106455200Y-136269142D02*
X106407580Y-136221523D01*
X106407580Y-136221523D02*
X106312342Y-136173904D01*
X106312342Y-136173904D02*
X106217104Y-136173904D01*
X106217104Y-136173904D02*
X106121866Y-136221523D01*
X106121866Y-136221523D02*
X106074247Y-136269142D01*
X106074247Y-136269142D02*
X106026628Y-136364380D01*
X106026628Y-136364380D02*
X105979009Y-136554856D01*
X105979009Y-136554856D02*
X105931390Y-136650094D01*
X105931390Y-136650094D02*
X105883771Y-136697713D01*
X105883771Y-136697713D02*
X105788533Y-136745332D01*
X105788533Y-136745332D02*
X105693295Y-136745332D01*
X105693295Y-136745332D02*
X105598057Y-136697713D01*
X105598057Y-136697713D02*
X105550438Y-136650094D01*
X105550438Y-136650094D02*
X105502819Y-136554856D01*
X105502819Y-136554856D02*
X105502819Y-136316761D01*
X105502819Y-136316761D02*
X105550438Y-136173904D01*
X105502819Y-135840570D02*
X106502819Y-135602475D01*
X106502819Y-135602475D02*
X105788533Y-135411999D01*
X105788533Y-135411999D02*
X106502819Y-135221523D01*
X106502819Y-135221523D02*
X105502819Y-134983428D01*
X106502819Y-134078666D02*
X106502819Y-134650094D01*
X106502819Y-134364380D02*
X105502819Y-134364380D01*
X105502819Y-134364380D02*
X105645676Y-134459618D01*
X105645676Y-134459618D02*
X105740914Y-134554856D01*
X105740914Y-134554856D02*
X105788533Y-134650094D01*
D11*
X95104047Y-168056520D02*
X95104047Y-167542473D01*
X95104047Y-167542473D02*
X95073809Y-167481997D01*
X95073809Y-167481997D02*
X95043571Y-167451759D01*
X95043571Y-167451759D02*
X94983095Y-167421520D01*
X94983095Y-167421520D02*
X94862142Y-167421520D01*
X94862142Y-167421520D02*
X94801666Y-167451759D01*
X94801666Y-167451759D02*
X94771428Y-167481997D01*
X94771428Y-167481997D02*
X94741190Y-167542473D01*
X94741190Y-167542473D02*
X94741190Y-168056520D01*
X94106190Y-167421520D02*
X94469047Y-167421520D01*
X94287619Y-167421520D02*
X94287619Y-168056520D01*
X94287619Y-168056520D02*
X94348095Y-167965806D01*
X94348095Y-167965806D02*
X94408571Y-167905330D01*
X94408571Y-167905330D02*
X94469047Y-167875092D01*
D12*
%TO.C,Back1*%
X103270000Y-115050000D02*
X103270000Y-113550000D01*
X102020000Y-111050000D02*
X97520000Y-111050000D01*
X97520000Y-117550000D02*
X102020000Y-117550000D01*
X96270000Y-113550000D02*
X96270000Y-115050000D01*
%TO.C,Confirm1*%
X77870000Y-115050000D02*
X77870000Y-113550000D01*
X76620000Y-111050000D02*
X72120000Y-111050000D01*
X72120000Y-117550000D02*
X76620000Y-117550000D01*
X70870000Y-113550000D02*
X70870000Y-115050000D01*
%TO.C,D-Pad_Up1*%
X90570000Y-115050000D02*
X90570000Y-113550000D01*
X89320000Y-111050000D02*
X84820000Y-111050000D01*
X84820000Y-117550000D02*
X89320000Y-117550000D01*
X83570000Y-113550000D02*
X83570000Y-115050000D01*
%TO.C,SW7*%
X103270000Y-127750000D02*
X103270000Y-126250000D01*
X102020000Y-123750000D02*
X97520000Y-123750000D01*
X97520000Y-130250000D02*
X102020000Y-130250000D01*
X96270000Y-126250000D02*
X96270000Y-127750000D01*
%TO.C,Enter1*%
X90570000Y-127750000D02*
X90570000Y-126250000D01*
X89320000Y-123750000D02*
X84820000Y-123750000D01*
X84820000Y-130250000D02*
X89320000Y-130250000D01*
X83570000Y-126250000D02*
X83570000Y-127750000D01*
%TO.C,D-Pad_Right1*%
X77870000Y-127750000D02*
X77870000Y-126250000D01*
X76620000Y-123750000D02*
X72120000Y-123750000D01*
X72120000Y-130250000D02*
X76620000Y-130250000D01*
X70870000Y-126250000D02*
X70870000Y-127750000D01*
%TO.C,SW8*%
X103270000Y-140450000D02*
X103270000Y-138950000D01*
X102020000Y-136450000D02*
X97520000Y-136450000D01*
X97520000Y-142950000D02*
X102020000Y-142950000D01*
X96270000Y-138950000D02*
X96270000Y-140450000D01*
%TO.C,SW5*%
X77870000Y-140450000D02*
X77870000Y-138950000D01*
X76620000Y-136450000D02*
X72120000Y-136450000D01*
X72120000Y-142950000D02*
X76620000Y-142950000D01*
X70870000Y-138950000D02*
X70870000Y-140450000D01*
%TO.C,SW6*%
X90570000Y-140450000D02*
X90570000Y-138950000D01*
X89320000Y-136450000D02*
X84820000Y-136450000D01*
X84820000Y-142950000D02*
X89320000Y-142950000D01*
X83570000Y-138950000D02*
X83570000Y-140450000D01*
%TO.C,J1*%
X73040238Y-78945000D02*
X100440238Y-78945000D01*
X73040238Y-106245000D02*
X73040238Y-78945000D01*
X73462238Y-82240000D02*
X96562238Y-82240000D01*
X73462238Y-98840000D02*
X73462238Y-82240000D01*
X81741238Y-79434000D02*
X81741238Y-81847000D01*
X81741238Y-79434000D02*
X91520238Y-79434000D01*
X91520238Y-79434000D02*
X91520238Y-81847000D01*
X91520238Y-81847000D02*
X81741238Y-81847000D01*
X96562238Y-82240000D02*
X99648238Y-82240000D01*
X96562238Y-98840000D02*
X73462238Y-98840000D01*
X96562238Y-98840000D02*
X99902238Y-98865000D01*
X99902238Y-82228000D02*
X99648238Y-82240000D01*
X99902238Y-98865000D02*
X99902238Y-82228000D01*
X100440238Y-78945000D02*
X100440238Y-106245000D01*
X100440238Y-106245000D02*
X73040238Y-106245000D01*
%TO.C,SW1*%
X108400000Y-120750000D02*
X110800000Y-120750000D01*
X108400000Y-124850000D02*
X108400000Y-120750000D01*
X108400000Y-128850000D02*
X108400000Y-132950000D01*
X108400000Y-132950000D02*
X120200000Y-132950000D01*
X110200000Y-134050000D02*
X110500000Y-134350000D01*
X110200000Y-134650000D02*
X110200000Y-134050000D01*
X110500000Y-134350000D02*
X110200000Y-134650000D01*
X113000000Y-120750000D02*
X115600000Y-120750000D01*
X113800000Y-126850000D02*
X114800000Y-126850000D01*
X114300000Y-127350000D02*
X114300000Y-126350000D01*
X117800000Y-120750000D02*
X120200000Y-120750000D01*
X120200000Y-120750000D02*
X120200000Y-124850000D01*
X120200000Y-128850000D02*
X120200000Y-132950000D01*
X117300000Y-126850000D02*
G75*
G02*
X111300000Y-126850000I-3000000J0D01*
G01*
X111300000Y-126850000D02*
G75*
G02*
X117300000Y-126850000I3000000J0D01*
G01*
D13*
%TO.C,U1*%
X77850238Y-147701000D02*
X77850238Y-164846000D01*
D14*
X79755238Y-166751000D02*
X93725238Y-166751000D01*
D13*
X79755238Y-166751000D02*
X93725238Y-166751000D01*
X82236238Y-167761000D02*
X82236238Y-166751000D01*
X90731510Y-168261000D02*
X82736238Y-168261000D01*
X91235238Y-166751000D02*
X91231510Y-167761272D01*
X93725238Y-145796000D02*
X79755238Y-145796000D01*
X95630238Y-147701000D02*
X95630238Y-164846000D01*
X77850238Y-147701000D02*
G75*
G02*
X79755238Y-145796000I1905000J0D01*
G01*
X79755238Y-166751000D02*
G75*
G02*
X77850238Y-164846000I0J1905000D01*
G01*
X82736238Y-168261000D02*
G75*
G02*
X82236238Y-167761000I0J500000D01*
G01*
X91231510Y-167761272D02*
G75*
G02*
X90731510Y-168260999I-500018J291D01*
G01*
X93725238Y-145796000D02*
G75*
G02*
X95630238Y-147701000I-1J-1905001D01*
G01*
X95630238Y-164846000D02*
G75*
G02*
X93725238Y-166751000I-1905001J1D01*
G01*
D15*
X94849238Y-165580000D02*
G75*
G02*
X94345238Y-165580000I-252000J0D01*
G01*
X94345238Y-165580000D02*
G75*
G02*
X94849238Y-165580000I252000J0D01*
G01*
X95992238Y-166460000D02*
G75*
G02*
X95488238Y-166460000I-252000J0D01*
G01*
X95488238Y-166460000D02*
G75*
G02*
X95992238Y-166460000I252000J0D01*
G01*
%TD*%
M02*
