<svg width="138" height="81" viewBox="0 0 138 81" fill="none" xmlns="http://www.w3.org/2000/svg">
<path d="M1.248 10.736V2.912C1.248 2.744 1.392 2.6 1.56 2.6H4.296C6.144 2.6 7.416 3.548 7.416 5.168V5.192C7.416 6.956 5.892 7.868 4.14 7.868H1.872V10.736C1.872 10.904 1.728 11.048 1.56 11.048C1.392 11.048 1.248 10.904 1.248 10.736ZM1.872 7.292H4.176C5.736 7.292 6.792 6.476 6.792 5.228V5.204C6.792 3.872 5.76 3.176 4.248 3.176H1.872V7.292ZM11.785 11.144C9.97303 11.144 8.65303 9.68 8.65303 7.964V7.94C8.65303 6.224 9.98503 4.736 11.809 4.736C13.621 4.736 14.941 6.2 14.941 7.916V7.94C14.941 9.656 13.609 11.144 11.785 11.144ZM11.809 10.592C13.261 10.592 14.305 9.404 14.305 7.964V7.94C14.305 6.464 13.201 5.288 11.785 5.288C10.333 5.288 9.28903 6.476 9.28903 7.916V7.94C9.28903 9.416 10.393 10.592 11.809 10.592ZM18.4001 11.084C18.2561 11.084 18.1361 10.988 18.0761 10.82L16.0721 5.312C16.0481 5.252 16.0241 5.18 16.0241 5.12C16.0241 4.964 16.1681 4.832 16.3361 4.832C16.5041 4.832 16.6001 4.94 16.6481 5.084L18.4241 10.256L20.2001 5.06C20.2481 4.928 20.3321 4.832 20.4881 4.832H20.5121C20.6801 4.832 20.7641 4.928 20.8121 5.06L22.5881 10.256L24.3761 5.06C24.4121 4.94 24.4961 4.832 24.6641 4.832C24.8321 4.832 24.9641 4.964 24.9641 5.108C24.9641 5.18 24.9401 5.252 24.9161 5.312L22.9121 10.82C22.8521 10.988 22.7321 11.084 22.5881 11.084H22.5641C22.4081 11.084 22.3001 10.988 22.2401 10.808L20.5001 5.804L18.7481 10.808C18.6881 10.988 18.5801 11.084 18.4241 11.084H18.4001ZM26.6794 7.652H31.1314C31.0474 6.416 30.3394 5.276 28.9354 5.276C27.7234 5.276 26.7874 6.296 26.6794 7.652ZM31.4434 10.148C30.8434 10.748 30.1594 11.144 29.0554 11.144C27.4474 11.144 26.0554 9.86 26.0554 7.952V7.928C26.0554 6.152 27.3034 4.736 28.9594 4.736C30.6754 4.736 31.7674 6.152 31.7674 7.904C31.7674 8.048 31.6234 8.18 31.4794 8.18H26.6794C26.7874 9.704 27.8794 10.592 29.0794 10.592C29.9554 10.592 30.5674 10.232 31.0594 9.752C31.1074 9.704 31.1674 9.668 31.2514 9.668C31.4074 9.668 31.5394 9.788 31.5394 9.944C31.5394 10.004 31.5154 10.076 31.4434 10.148ZM33.4832 10.748V5.132C33.4832 4.964 33.6032 4.832 33.7712 4.832C33.9392 4.832 34.0712 4.952 34.0712 5.132V6.62C34.5992 5.432 35.6672 4.784 36.5312 4.784C36.7112 4.784 36.8432 4.928 36.8432 5.108C36.8432 5.276 36.7232 5.42 36.5312 5.432C35.2352 5.552 34.0712 6.524 34.0712 8.492V10.748C34.0712 10.916 33.9512 11.048 33.7832 11.048C33.6152 11.048 33.4832 10.928 33.4832 10.748ZM38.1872 7.652H42.6392C42.5552 6.416 41.8472 5.276 40.4432 5.276C39.2312 5.276 38.2952 6.296 38.1872 7.652ZM42.9512 10.148C42.3512 10.748 41.6672 11.144 40.5632 11.144C38.9552 11.144 37.5632 9.86 37.5632 7.952V7.928C37.5632 6.152 38.8112 4.736 40.4672 4.736C42.1832 4.736 43.2752 6.152 43.2752 7.904C43.2752 8.048 43.1312 8.18 42.9872 8.18H38.1872C38.2952 9.704 39.3872 10.592 40.5872 10.592C41.4632 10.592 42.0752 10.232 42.5672 9.752C42.6152 9.704 42.6752 9.668 42.7592 9.668C42.9152 9.668 43.0472 9.788 43.0472 9.944C43.0472 10.004 43.0232 10.076 42.9512 10.148ZM50.679 2.492V10.748C50.679 10.928 50.559 11.048 50.391 11.048C50.223 11.048 50.091 10.928 50.091 10.748V9.632C49.563 10.436 48.783 11.144 47.571 11.144C46.095 11.144 44.595 9.956 44.595 7.964V7.94C44.595 5.948 46.095 4.736 47.571 4.736C48.795 4.736 49.587 5.432 50.091 6.2V2.492C50.091 2.312 50.211 2.192 50.379 2.192C50.547 2.192 50.679 2.312 50.679 2.492ZM47.631 5.3C46.299 5.3 45.231 6.272 45.231 7.916V7.94C45.231 9.548 46.347 10.58 47.631 10.58C48.903 10.58 50.127 9.512 50.127 7.952V7.928C50.127 6.356 48.903 5.3 47.631 5.3ZM56.5105 10.748V2.492C56.5105 2.312 56.6305 2.192 56.7985 2.192C56.9665 2.192 57.0985 2.312 57.0985 2.492V6.248C57.6265 5.444 58.4065 4.736 59.6185 4.736C61.0945 4.736 62.5945 5.924 62.5945 7.916V7.94C62.5945 9.932 61.0945 11.144 59.6185 11.144C58.3945 11.144 57.6025 10.448 57.0985 9.68V10.748C57.0985 10.916 56.9785 11.048 56.8105 11.048C56.6425 11.048 56.5105 10.916 56.5105 10.748ZM59.5585 10.58C60.8905 10.58 61.9585 9.608 61.9585 7.964V7.94C61.9585 6.332 60.8425 5.3 59.5585 5.3C58.2865 5.3 57.0625 6.368 57.0625 7.928V7.952C57.0625 9.524 58.2865 10.58 59.5585 10.58ZM64.8717 12.956C64.4637 12.956 64.1517 12.884 63.8277 12.764C63.7317 12.728 63.6597 12.644 63.6597 12.512C63.6597 12.356 63.7797 12.236 63.9357 12.236C63.9957 12.236 64.0557 12.26 64.1277 12.284C64.3197 12.356 64.5357 12.404 64.9077 12.404C65.5797 12.404 65.9877 11.96 66.3837 11.048L66.4197 10.964L63.6837 5.312C63.6597 5.252 63.6357 5.192 63.6357 5.132C63.6357 4.964 63.7677 4.832 63.9477 4.832C64.1277 4.832 64.1997 4.94 64.2597 5.072L66.7077 10.352L68.8437 5.048C68.8917 4.928 68.9757 4.832 69.1317 4.832C69.2997 4.832 69.4317 4.964 69.4317 5.132C69.4317 5.192 69.4197 5.228 69.3957 5.288L66.9117 11.216C66.3717 12.5 65.7477 12.956 64.8717 12.956ZM74.9121 10.736V2.912C74.9121 2.744 75.0561 2.6 75.2241 2.6H78.4401C79.4721 2.6 80.3001 2.924 80.8041 3.428C81.2001 3.824 81.4401 4.388 81.4401 4.988V5.012C81.4401 6.416 80.3961 7.22 78.9801 7.412L81.3681 10.508C81.4281 10.58 81.4641 10.652 81.4641 10.724C81.4641 10.892 81.3081 11.048 81.1401 11.048C81.0201 11.048 80.9361 10.976 80.8641 10.88L78.2841 7.52H75.5361V10.736C75.5361 10.904 75.3921 11.048 75.2241 11.048C75.0561 11.048 74.9121 10.904 74.9121 10.736ZM75.5361 6.956H78.3681C79.7721 6.956 80.8161 6.248 80.8161 5.036V5.012C80.8161 3.884 79.9281 3.176 78.4041 3.176H75.5361V6.956ZM85.3119 11.144C84.1719 11.144 82.9479 10.496 82.9479 9.224V9.2C82.9479 7.928 84.0399 7.208 85.6239 7.208C86.4759 7.208 87.0639 7.316 87.6519 7.472V7.208C87.6519 5.972 86.8959 5.336 85.6359 5.336C84.9639 5.336 84.3999 5.504 83.8959 5.744C83.8479 5.768 83.7999 5.78 83.7639 5.78C83.6199 5.78 83.4879 5.648 83.4879 5.504C83.4879 5.36 83.5959 5.264 83.6559 5.24C84.2799 4.964 84.8919 4.784 85.6719 4.784C86.4999 4.784 87.1599 5.012 87.6039 5.456C88.0119 5.864 88.2279 6.428 88.2279 7.184V10.748C88.2279 10.928 88.1079 11.048 87.9399 11.048C87.7719 11.048 87.6519 10.928 87.6519 10.748V9.98C87.2319 10.568 86.4759 11.144 85.3119 11.144ZM85.3479 10.592C86.5959 10.592 87.6639 9.824 87.6639 8.708V8.012C87.1479 7.88 86.4639 7.736 85.5879 7.736C84.2919 7.736 83.5719 8.312 83.5719 9.164V9.188C83.5719 10.076 84.4119 10.592 85.3479 10.592ZM96.0306 2.492V10.748C96.0306 10.928 95.9106 11.048 95.7426 11.048C95.5746 11.048 95.4426 10.928 95.4426 10.748V9.632C94.9146 10.436 94.1346 11.144 92.9226 11.144C91.4466 11.144 89.9466 9.956 89.9466 7.964V7.94C89.9466 5.948 91.4466 4.736 92.9226 4.736C94.1466 4.736 94.9386 5.432 95.4426 6.2V2.492C95.4426 2.312 95.5626 2.192 95.7306 2.192C95.8986 2.192 96.0306 2.312 96.0306 2.492ZM92.9826 5.3C91.6506 5.3 90.5826 6.272 90.5826 7.916V7.94C90.5826 9.548 91.6986 10.58 92.9826 10.58C94.2546 10.58 95.4786 9.512 95.4786 7.952V7.928C95.4786 6.356 94.2546 5.3 92.9826 5.3ZM98.2764 2.984V2.78C98.2764 2.576 98.4324 2.42 98.6364 2.42C98.8404 2.42 99.0084 2.576 99.0084 2.78V2.984C99.0084 3.188 98.8404 3.344 98.6364 3.344C98.4324 3.344 98.2764 3.188 98.2764 2.984ZM98.3484 10.748V5.132C98.3484 4.964 98.4684 4.832 98.6364 4.832C98.8044 4.832 98.9364 4.952 98.9364 5.132V10.748C98.9364 10.928 98.8164 11.048 98.6484 11.048C98.4804 11.048 98.3484 10.928 98.3484 10.748ZM103.113 11.144C101.973 11.144 100.749 10.496 100.749 9.224V9.2C100.749 7.928 101.841 7.208 103.425 7.208C104.277 7.208 104.865 7.316 105.453 7.472V7.208C105.453 5.972 104.697 5.336 103.437 5.336C102.765 5.336 102.201 5.504 101.697 5.744C101.649 5.768 101.601 5.78 101.565 5.78C101.421 5.78 101.289 5.648 101.289 5.504C101.289 5.36 101.397 5.264 101.457 5.24C102.081 4.964 102.693 4.784 103.473 4.784C104.301 4.784 104.961 5.012 105.405 5.456C105.813 5.864 106.029 6.428 106.029 7.184V10.748C106.029 10.928 105.909 11.048 105.741 11.048C105.573 11.048 105.453 10.928 105.453 10.748V9.98C105.033 10.568 104.277 11.144 103.113 11.144ZM103.149 10.592C104.397 10.592 105.465 9.824 105.465 8.708V8.012C104.949 7.88 104.265 7.736 103.389 7.736C102.093 7.736 101.373 8.312 101.373 9.164V9.188C101.373 10.076 102.213 10.592 103.149 10.592ZM108.143 10.748V5.132C108.143 4.964 108.263 4.832 108.431 4.832C108.599 4.832 108.731 4.952 108.731 5.132V6.02C109.139 5.3 109.823 4.736 110.939 4.736C112.487 4.736 113.387 5.792 113.387 7.256V10.748C113.387 10.928 113.267 11.048 113.099 11.048C112.931 11.048 112.799 10.928 112.799 10.748V7.364C112.799 6.104 112.091 5.276 110.855 5.276C109.655 5.276 108.731 6.188 108.731 7.46V10.748C108.731 10.928 108.611 11.048 108.443 11.048C108.275 11.048 108.143 10.928 108.143 10.748ZM117.543 11.108C116.595 11.108 115.827 10.592 115.827 9.428V5.42H115.167C115.023 5.42 114.891 5.288 114.891 5.144C114.891 5 115.023 4.88 115.167 4.88H115.827V3.176C115.827 3.008 115.947 2.876 116.115 2.876C116.283 2.876 116.415 3.008 116.415 3.176V4.88H118.335C118.479 4.88 118.611 5.012 118.611 5.156C118.611 5.3 118.479 5.42 118.335 5.42H116.415V9.368C116.415 10.244 116.931 10.556 117.639 10.556C118.059 10.556 118.251 10.436 118.335 10.436C118.467 10.436 118.599 10.556 118.599 10.7C118.599 10.82 118.527 10.904 118.407 10.952C118.167 11.036 117.891 11.108 117.543 11.108ZM124.279 11.144C121.735 11.144 120.067 9.116 120.067 6.824V6.8C120.067 4.508 121.759 2.456 124.303 2.456C126.847 2.456 128.515 4.484 128.515 6.776V6.8C128.515 9.092 126.823 11.144 124.279 11.144ZM124.303 10.58C126.379 10.58 127.867 8.9 127.867 6.824V6.8C127.867 4.724 126.355 3.02 124.279 3.02C122.203 3.02 120.715 4.7 120.715 6.776V6.8C120.715 8.876 122.227 10.58 124.303 10.58ZM133.42 11.12C132.16 11.12 131.176 10.724 130.228 9.944C130.168 9.896 130.108 9.812 130.108 9.704C130.108 9.536 130.252 9.392 130.42 9.392C130.504 9.392 130.576 9.428 130.624 9.464C131.464 10.22 132.304 10.556 133.456 10.556C134.716 10.556 135.58 9.848 135.58 8.888V8.864C135.58 7.976 135.112 7.46 133.204 7.076C131.188 6.668 130.372 5.984 130.372 4.712V4.688C130.372 3.44 131.512 2.48 133.072 2.48C134.2 2.48 134.98 2.768 135.748 3.344C135.808 3.392 135.88 3.476 135.88 3.596C135.88 3.764 135.736 3.908 135.568 3.908C135.496 3.908 135.424 3.884 135.364 3.836C134.632 3.272 133.9 3.044 133.048 3.044C131.812 3.044 130.996 3.752 130.996 4.628V4.652C130.996 5.54 131.452 6.08 133.444 6.488C135.388 6.884 136.204 7.58 136.204 8.804V8.828C136.204 10.184 135.04 11.12 133.42 11.12Z" fill="white"/>
<g filter="url(#filter0_g_121_5)">
<path d="M41.1171 41.2342C40.825 42.1212 40.5261 43.0356 40.2218 43.9722C38.6085 43.0907 36.9461 42.183 35.2328 41.2491C8.69316 40.4751 2.40241 28.3221 19.6371 32.8031C25.262 35.8255 30.4464 38.6399 35.2328 41.2491C37.0949 41.3034 39.0567 41.3016 41.1171 41.2342C43.6368 33.5804 45.6402 27.9689 46.1375 27.8031C47.6375 27.3031 163.138 5.3031 83.1375 32.8031C66.3542 38.5724 52.2873 40.8688 41.1171 41.2342Z" fill="black"/>
<path d="M30.1375 76.3031C34.9709 60.3031 44.9375 28.2031 46.1375 27.8031C47.6375 27.3031 163.138 5.3031 83.1375 32.8031C19.1375 54.8031 -5.36279 26.3031 19.6371 32.8031C86.6362 68.8031 91.1372 75.3031 105.137 56.8031" stroke="white" stroke-width="2"/>
</g>
<defs>
<filter id="filter0_g_121_5" x="5" y="14" width="111.333" height="66.5923" filterUnits="userSpaceOnUse" color-interpolation-filters="sRGB">
<feFlood flood-opacity="0" result="BackgroundImageFix"/>
<feBlend mode="normal" in="SourceGraphic" in2="BackgroundImageFix" result="shape"/>
<feTurbulence type="fractalNoise" baseFrequency="2 2" numOctaves="3" seed="3020" />
<feDisplacementMap in="shape" scale="8" xChannelSelector="R" yChannelSelector="G" result="displacedImage" width="100%" height="100%" />
<feMerge result="effect1_texture_121_5">
<feMergeNode in="displacedImage"/>
</feMerge>
</filter>
</defs>
</svg>
