<svg width="136" height="11" viewBox="0 0 136 11" fill="none" xmlns="http://www.w3.org/2000/svg">
<path d="M0.248 8.736V0.912C0.248 0.744 0.392 0.599999 0.56 0.599999H3.296C5.144 0.599999 6.416 1.548 6.416 3.168V3.192C6.416 4.956 4.892 5.868 3.14 5.868H0.872V8.736C0.872 8.904 0.728 9.048 0.56 9.048C0.392 9.048 0.248 8.904 0.248 8.736ZM0.872 5.292H3.176C4.736 5.292 5.792 4.476 5.792 3.228V3.204C5.792 1.872 4.76 1.176 3.248 1.176H0.872V5.292ZM10.785 9.144C8.97303 9.144 7.65303 7.68 7.65303 5.964V5.94C7.65303 4.224 8.98503 2.736 10.809 2.736C12.621 2.736 13.941 4.2 13.941 5.916V5.94C13.941 7.656 12.609 9.144 10.785 9.144ZM10.809 8.592C12.261 8.592 13.305 7.404 13.305 5.964V5.94C13.305 4.464 12.201 3.288 10.785 3.288C9.33303 3.288 8.28903 4.476 8.28903 5.916V5.94C8.28903 7.416 9.39303 8.592 10.809 8.592ZM17.4001 9.084C17.2561 9.084 17.1361 8.988 17.0761 8.82L15.0721 3.312C15.0481 3.252 15.0241 3.18 15.0241 3.12C15.0241 2.964 15.1681 2.832 15.3361 2.832C15.5041 2.832 15.6001 2.94 15.6481 3.084L17.4241 8.256L19.2001 3.06C19.2481 2.928 19.3321 2.832 19.4881 2.832H19.5121C19.6801 2.832 19.7641 2.928 19.8121 3.06L21.5881 8.256L23.3761 3.06C23.4121 2.94 23.4961 2.832 23.6641 2.832C23.8321 2.832 23.9641 2.964 23.9641 3.108C23.9641 3.18 23.9401 3.252 23.9161 3.312L21.9121 8.82C21.8521 8.988 21.7321 9.084 21.5881 9.084H21.5641C21.4081 9.084 21.3001 8.988 21.2401 8.808L19.5001 3.804L17.7481 8.808C17.6881 8.988 17.5801 9.084 17.4241 9.084H17.4001ZM25.6794 5.652H30.1314C30.0474 4.416 29.3394 3.276 27.9354 3.276C26.7234 3.276 25.7874 4.296 25.6794 5.652ZM30.4434 8.148C29.8434 8.748 29.1594 9.144 28.0554 9.144C26.4474 9.144 25.0554 7.86 25.0554 5.952V5.928C25.0554 4.152 26.3034 2.736 27.9594 2.736C29.6754 2.736 30.7674 4.152 30.7674 5.904C30.7674 6.048 30.6234 6.18 30.4794 6.18H25.6794C25.7874 7.704 26.8794 8.592 28.0794 8.592C28.9554 8.592 29.5674 8.232 30.0594 7.752C30.1074 7.704 30.1674 7.668 30.2514 7.668C30.4074 7.668 30.5394 7.788 30.5394 7.944C30.5394 8.004 30.5154 8.076 30.4434 8.148ZM32.4832 8.748V3.132C32.4832 2.964 32.6032 2.832 32.7712 2.832C32.9392 2.832 33.0712 2.952 33.0712 3.132V4.62C33.5992 3.432 34.6672 2.784 35.5312 2.784C35.7112 2.784 35.8432 2.928 35.8432 3.108C35.8432 3.276 35.7232 3.42 35.5312 3.432C34.2352 3.552 33.0712 4.524 33.0712 6.492V8.748C33.0712 8.916 32.9512 9.048 32.7832 9.048C32.6152 9.048 32.4832 8.928 32.4832 8.748ZM37.1872 5.652H41.6392C41.5552 4.416 40.8472 3.276 39.4432 3.276C38.2312 3.276 37.2952 4.296 37.1872 5.652ZM41.9512 8.148C41.3512 8.748 40.6672 9.144 39.5632 9.144C37.9552 9.144 36.5632 7.86 36.5632 5.952V5.928C36.5632 4.152 37.8112 2.736 39.4672 2.736C41.1832 2.736 42.2752 4.152 42.2752 5.904C42.2752 6.048 42.1312 6.18 41.9872 6.18H37.1872C37.2952 7.704 38.3872 8.592 39.5872 8.592C40.4632 8.592 41.0752 8.232 41.5672 7.752C41.6152 7.704 41.6752 7.668 41.7592 7.668C41.9152 7.668 42.0472 7.788 42.0472 7.944C42.0472 8.004 42.0232 8.076 41.9512 8.148ZM49.679 0.491999V8.748C49.679 8.928 49.559 9.048 49.391 9.048C49.223 9.048 49.091 8.928 49.091 8.748V7.632C48.563 8.436 47.783 9.144 46.571 9.144C45.095 9.144 43.595 7.956 43.595 5.964V5.94C43.595 3.948 45.095 2.736 46.571 2.736C47.795 2.736 48.587 3.432 49.091 4.2V0.491999C49.091 0.312 49.211 0.192 49.379 0.192C49.547 0.192 49.679 0.312 49.679 0.491999ZM46.631 3.3C45.299 3.3 44.231 4.272 44.231 5.916V5.94C44.231 7.548 45.347 8.58 46.631 8.58C47.903 8.58 49.127 7.512 49.127 5.952V5.928C49.127 4.356 47.903 3.3 46.631 3.3ZM55.5105 8.748V0.491999C55.5105 0.312 55.6305 0.192 55.7985 0.192C55.9665 0.192 56.0985 0.312 56.0985 0.491999V4.248C56.6265 3.444 57.4065 2.736 58.6185 2.736C60.0945 2.736 61.5945 3.924 61.5945 5.916V5.94C61.5945 7.932 60.0945 9.144 58.6185 9.144C57.3945 9.144 56.6025 8.448 56.0985 7.68V8.748C56.0985 8.916 55.9785 9.048 55.8105 9.048C55.6425 9.048 55.5105 8.916 55.5105 8.748ZM58.5585 8.58C59.8905 8.58 60.9585 7.608 60.9585 5.964V5.94C60.9585 4.332 59.8425 3.3 58.5585 3.3C57.2865 3.3 56.0625 4.368 56.0625 5.928V5.952C56.0625 7.524 57.2865 8.58 58.5585 8.58ZM63.8717 10.956C63.4637 10.956 63.1517 10.884 62.8277 10.764C62.7317 10.728 62.6597 10.644 62.6597 10.512C62.6597 10.356 62.7797 10.236 62.9357 10.236C62.9957 10.236 63.0557 10.26 63.1277 10.284C63.3197 10.356 63.5357 10.404 63.9077 10.404C64.5797 10.404 64.9877 9.96 65.3837 9.048L65.4197 8.964L62.6837 3.312C62.6597 3.252 62.6357 3.192 62.6357 3.132C62.6357 2.964 62.7677 2.832 62.9477 2.832C63.1277 2.832 63.1997 2.94 63.2597 3.072L65.7077 8.352L67.8437 3.048C67.8917 2.928 67.9757 2.832 68.1317 2.832C68.2997 2.832 68.4317 2.964 68.4317 3.132C68.4317 3.192 68.4197 3.228 68.3957 3.288L65.9117 9.216C65.3717 10.5 64.7477 10.956 63.8717 10.956ZM73.9121 8.736V0.912C73.9121 0.744 74.0561 0.599999 74.2241 0.599999H77.4401C78.4721 0.599999 79.3001 0.924 79.8041 1.428C80.2001 1.824 80.4401 2.388 80.4401 2.988V3.012C80.4401 4.416 79.3961 5.22 77.9801 5.412L80.3681 8.508C80.4281 8.58 80.4641 8.652 80.4641 8.724C80.4641 8.892 80.3081 9.048 80.1401 9.048C80.0201 9.048 79.9361 8.976 79.8641 8.88L77.2841 5.52H74.5361V8.736C74.5361 8.904 74.3921 9.048 74.2241 9.048C74.0561 9.048 73.9121 8.904 73.9121 8.736ZM74.5361 4.956H77.3681C78.7721 4.956 79.8161 4.248 79.8161 3.036V3.012C79.8161 1.884 78.9281 1.176 77.4041 1.176H74.5361V4.956ZM84.3119 9.144C83.1719 9.144 81.9479 8.496 81.9479 7.224V7.2C81.9479 5.928 83.0399 5.208 84.6239 5.208C85.4759 5.208 86.0639 5.316 86.6519 5.472V5.208C86.6519 3.972 85.8959 3.336 84.6359 3.336C83.9639 3.336 83.3999 3.504 82.8959 3.744C82.8479 3.768 82.7999 3.78 82.7639 3.78C82.6199 3.78 82.4879 3.648 82.4879 3.504C82.4879 3.36 82.5959 3.264 82.6559 3.24C83.2799 2.964 83.8919 2.784 84.6719 2.784C85.4999 2.784 86.1599 3.012 86.6039 3.456C87.0119 3.864 87.2279 4.428 87.2279 5.184V8.748C87.2279 8.928 87.1079 9.048 86.9399 9.048C86.7719 9.048 86.6519 8.928 86.6519 8.748V7.98C86.2319 8.568 85.4759 9.144 84.3119 9.144ZM84.3479 8.592C85.5959 8.592 86.6639 7.824 86.6639 6.708V6.012C86.1479 5.88 85.4639 5.736 84.5879 5.736C83.2919 5.736 82.5719 6.312 82.5719 7.164V7.188C82.5719 8.076 83.4119 8.592 84.3479 8.592ZM95.0306 0.491999V8.748C95.0306 8.928 94.9106 9.048 94.7426 9.048C94.5746 9.048 94.4426 8.928 94.4426 8.748V7.632C93.9146 8.436 93.1346 9.144 91.9226 9.144C90.4466 9.144 88.9466 7.956 88.9466 5.964V5.94C88.9466 3.948 90.4466 2.736 91.9226 2.736C93.1466 2.736 93.9386 3.432 94.4426 4.2V0.491999C94.4426 0.312 94.5626 0.192 94.7306 0.192C94.8986 0.192 95.0306 0.312 95.0306 0.491999ZM91.9826 3.3C90.6506 3.3 89.5826 4.272 89.5826 5.916V5.94C89.5826 7.548 90.6986 8.58 91.9826 8.58C93.2546 8.58 94.4786 7.512 94.4786 5.952V5.928C94.4786 4.356 93.2546 3.3 91.9826 3.3ZM97.2764 0.983999V0.779999C97.2764 0.576 97.4324 0.42 97.6364 0.42C97.8404 0.42 98.0084 0.576 98.0084 0.779999V0.983999C98.0084 1.188 97.8404 1.344 97.6364 1.344C97.4324 1.344 97.2764 1.188 97.2764 0.983999ZM97.3484 8.748V3.132C97.3484 2.964 97.4684 2.832 97.6364 2.832C97.8044 2.832 97.9364 2.952 97.9364 3.132V8.748C97.9364 8.928 97.8164 9.048 97.6484 9.048C97.4804 9.048 97.3484 8.928 97.3484 8.748ZM102.113 9.144C100.973 9.144 99.7487 8.496 99.7487 7.224V7.2C99.7487 5.928 100.841 5.208 102.425 5.208C103.277 5.208 103.865 5.316 104.453 5.472V5.208C104.453 3.972 103.697 3.336 102.437 3.336C101.765 3.336 101.201 3.504 100.697 3.744C100.649 3.768 100.601 3.78 100.565 3.78C100.421 3.78 100.289 3.648 100.289 3.504C100.289 3.36 100.397 3.264 100.457 3.24C101.081 2.964 101.693 2.784 102.473 2.784C103.301 2.784 103.961 3.012 104.405 3.456C104.813 3.864 105.029 4.428 105.029 5.184V8.748C105.029 8.928 104.909 9.048 104.741 9.048C104.573 9.048 104.453 8.928 104.453 8.748V7.98C104.033 8.568 103.277 9.144 102.113 9.144ZM102.149 8.592C103.397 8.592 104.465 7.824 104.465 6.708V6.012C103.949 5.88 103.265 5.736 102.389 5.736C101.093 5.736 100.373 6.312 100.373 7.164V7.188C100.373 8.076 101.213 8.592 102.149 8.592ZM107.143 8.748V3.132C107.143 2.964 107.263 2.832 107.431 2.832C107.599 2.832 107.731 2.952 107.731 3.132V4.02C108.139 3.3 108.823 2.736 109.939 2.736C111.487 2.736 112.387 3.792 112.387 5.256V8.748C112.387 8.928 112.267 9.048 112.099 9.048C111.931 9.048 111.799 8.928 111.799 8.748V5.364C111.799 4.104 111.091 3.276 109.855 3.276C108.655 3.276 107.731 4.188 107.731 5.46V8.748C107.731 8.928 107.611 9.048 107.443 9.048C107.275 9.048 107.143 8.928 107.143 8.748ZM116.543 9.108C115.595 9.108 114.827 8.592 114.827 7.428V3.42H114.167C114.023 3.42 113.891 3.288 113.891 3.144C113.891 3 114.023 2.88 114.167 2.88H114.827V1.176C114.827 1.008 114.947 0.875999 115.115 0.875999C115.283 0.875999 115.415 1.008 115.415 1.176V2.88H117.335C117.479 2.88 117.611 3.012 117.611 3.156C117.611 3.3 117.479 3.42 117.335 3.42H115.415V7.368C115.415 8.244 115.931 8.556 116.639 8.556C117.059 8.556 117.251 8.436 117.335 8.436C117.467 8.436 117.599 8.556 117.599 8.7C117.599 8.82 117.527 8.904 117.407 8.952C117.167 9.036 116.891 9.108 116.543 9.108ZM123.279 9.144C120.735 9.144 119.067 7.116 119.067 4.824V4.8C119.067 2.508 120.759 0.456 123.303 0.456C125.847 0.456 127.515 2.484 127.515 4.776V4.8C127.515 7.092 125.823 9.144 123.279 9.144ZM123.303 8.58C125.379 8.58 126.867 6.9 126.867 4.824V4.8C126.867 2.724 125.355 1.02 123.279 1.02C121.203 1.02 119.715 2.7 119.715 4.776V4.8C119.715 6.876 121.227 8.58 123.303 8.58ZM132.42 9.12C131.16 9.12 130.176 8.724 129.228 7.944C129.168 7.896 129.108 7.812 129.108 7.704C129.108 7.536 129.252 7.392 129.42 7.392C129.504 7.392 129.576 7.428 129.624 7.464C130.464 8.22 131.304 8.556 132.456 8.556C133.716 8.556 134.58 7.848 134.58 6.888V6.864C134.58 5.976 134.112 5.46 132.204 5.076C130.188 4.668 129.372 3.984 129.372 2.712V2.688C129.372 1.44 130.512 0.48 132.072 0.48C133.2 0.48 133.98 0.767999 134.748 1.344C134.808 1.392 134.88 1.476 134.88 1.596C134.88 1.764 134.736 1.908 134.568 1.908C134.496 1.908 134.424 1.884 134.364 1.836C133.632 1.272 132.9 1.044 132.048 1.044C130.812 1.044 129.996 1.752 129.996 2.628V2.652C129.996 3.54 130.452 4.08 132.444 4.488C134.388 4.884 135.204 5.58 135.204 6.804V6.828C135.204 8.184 134.04 9.12 132.42 9.12Z" fill="white"/>
</svg>
