<svg width="112" height="67" viewBox="0 0 112 67" fill="none" xmlns="http://www.w3.org/2000/svg">
<g filter="url(#filter0_g_121_3)">
<path d="M36.1171 27.2342C35.825 28.1212 35.5261 29.0356 35.2218 29.9722C33.6085 29.0907 31.9461 28.183 30.2328 27.2491C3.69316 26.4751 -2.59759 14.3221 14.6371 18.8031C20.262 21.8255 25.4464 24.6399 30.2328 27.2491C32.0949 27.3034 34.0567 27.3016 36.1171 27.2342C38.6368 19.5804 40.6402 13.9689 41.1375 13.8031C42.6375 13.3031 158.138 -8.6969 78.1375 18.8031C61.3542 24.5724 47.2873 26.8688 36.1171 27.2342Z" fill="black"/>
<path d="M25.1375 62.3031C29.9709 46.3031 39.9375 14.2031 41.1375 13.8031C42.6375 13.3031 158.138 -8.6969 78.1375 18.8031C14.1375 40.8031 -10.3628 12.3031 14.6371 18.8031C81.6362 54.8031 86.1372 61.3031 100.137 42.8031" stroke="white" stroke-width="2"/>
</g>
<defs>
<filter id="filter0_g_121_3" x="0" y="0" width="111.333" height="66.5923" filterUnits="userSpaceOnUse" color-interpolation-filters="sRGB">
<feFlood flood-opacity="0" result="BackgroundImageFix"/>
<feBlend mode="normal" in="SourceGraphic" in2="BackgroundImageFix" result="shape"/>
<feTurbulence type="fractalNoise" baseFrequency="2 2" numOctaves="3" seed="3020" />
<feDisplacementMap in="shape" scale="8" xChannelSelector="R" yChannelSelector="G" result="displacedImage" width="100%" height="100%" />
<feMerge result="effect1_texture_121_3">
<feMergeNode in="displacedImage"/>
</feMerge>
</filter>
</defs>
</svg>
